<?xml version="1.0" encoding="utf-8"?>
<!-- Generator: Adobe Illustrator 18.0.0, SVG Export Plug-In . SVG Version: 6.00 Build 0)  -->
<!DOCTYPE svg PUBLIC "-//W3C//DTD SVG 1.1//EN" "http://www.w3.org/Graphics/SVG/1.1/DTD/svg11.dtd">
<svg version="1.1" id="Layer_1" xmlns="http://www.w3.org/2000/svg" xmlns:xlink="http://www.w3.org/1999/xlink" x="0px" y="0px"
	 viewBox="79.8 0 225.2 437" enable-background="new 79.8 0 225.2 437" xml:space="preserve">
<path opacity="0.7" fill="#625B53" d="M297.8,437H86.1c-3.7,0-6.7-3.3-6.7-7.3V7.3c0-4,3-7.3,6.7-7.3h211.7c3.7,0,6.7,3.3,6.7,7.3
	v422.3C304.6,433.7,301.5,437,297.8,437z"/>
<rect x="121" y="23.9" fill="none" width="139.5" height="56.3"/>
<text transform="matrix(1 0 0 1 121.0368 38.1112)" enable-background="new    "><tspan x="0" y="0" fill="#F3F3F3" font-family="'ElectraLTStd-Regular'" font-size="19.0517">EveryJourneyIsN</tspan><tspan x="0" y="22.9" fill="#F3F3F3" font-family="'ElectraLTStd-Regular'" font-size="19.0517">owAStory </tspan></text>
<g>
	
		<image overflow="visible" opacity="0.75" enable-background="new    " width="1167" height="2067" xlink:href="D52E85C60C0A0D74.png"  transform="matrix(0.1342 0 0 0.1342 116.4652 101.5831)">
	</image>
	<g>
		<path fill="#625B53" d="M255.1,366.6H126.6c-3,0-5.5-2.5-5.5-5.5V111.6c0-3,2.5-5.5,5.5-5.5h128.4c3,0,5.5,2.5,5.5,5.5V361
			C260.6,364.1,258.1,366.6,255.1,366.6z"/>
	</g>
</g>
<rect x="226.5" y="130.9" fill="none" width="28.2" height="20.2"/>
<text transform="matrix(1 0 0 1 226.4695 135.3934)" fill="#F2F2F2" font-family="'ProximaNova-Regular'" font-size="6.7242">3,460 </text>
<rect x="190.8" y="130.9" fill="none" width="31.4" height="23.5"/>
<text transform="matrix(1 0 0 1 190.8064 135.3934)" fill="#F2F2F2" font-family="'ProximaNova-Regular'" font-size="6.7242">7,400</text>
<rect x="126.5" y="130.9" fill="none" width="31.4" height="23.5"/>
<text transform="matrix(1 0 0 1 126.489 135.3934)" fill="#F2F2F2" font-family="'ProximaNova-Regular'" font-size="6.7242">25.05.19</text>
<rect x="190.8" y="139.4" fill="none" width="31.4" height="23.5"/>
<text transform="matrix(1 0 0 1 190.8064 143.8387)" fill="#F2F2F2" font-family="'ProximaNova-Regular'" font-size="6.7242">Kilometres</text>
<rect x="126.5" y="139.4" fill="none" width="31.4" height="23.5"/>
<text transform="matrix(1 0 0 1 126.489 143.8387)" fill="#F2F2F2" font-family="'ProximaNova-Regular'" font-size="6.7242">Today</text>
<rect x="226.4" y="139.4" fill="none" width="31.4" height="23.5"/>
<text transform="matrix(1 0 0 1 226.4362 143.8387)" fill="#F2F2F2" font-family="'ProximaNova-Regular'" font-size="6.7242">Chapters</text>
<rect x="161.2" y="113.5" fill="none" width="73.2" height="16.8"/>
<text transform="matrix(1 0 0 1 161.1648 122.2655)" fill="#FFFFFF" font-family="'ElectraLTStd-Regular'" font-size="11.7672">StoryJourney</text>
<rect x="137.8" y="234.5" fill="none" width="43.3" height="39.7"/>
<text transform="matrix(1 0 0 1 137.8933 252.0878)" fill="#E8DBD4" font-family="'ProximaNova-Regular'" font-size="26.3123">f</text>
<rect x="148.2" y="241.3" fill="none" width="43.3" height="39.7"/>
<text transform="matrix(1 0 0 1 148.1364 258.8671)" fill="#E8DBD4" font-family="'ProximaNova-Regular'" font-size="26.3123">a</text>
<rect x="163.8" y="256.1" fill="none" width="43.3" height="39.7"/>
<text transform="matrix(1 0 0 1 163.7966 273.6024)" opacity="0.5" fill="#E8DBD4" enable-background="new    " font-family="'ProximaNova-Regular'" font-size="26.3123">l</text>
<rect x="171.3" y="262.6" fill="none" width="43.3" height="39.7"/>
<text transform="matrix(1 0 0 1 171.2966 280.1141)" opacity="0.3" fill="#E8DBD4" enable-background="new    " font-family="'ProximaNova-Regular'" font-size="26.3123">s</text>
<rect x="182.8" y="274" fill="none" width="43.3" height="39.7"/>
<text transform="matrix(1 0 0 1 182.8279 291.535)" opacity="0.2" fill="#E8DBD4" enable-background="new    " font-family="'ProximaNova-Regular'" font-size="26.3123">e</text>
<rect x="197.8" y="287.1" fill="none" width="43.3" height="39.7"/>
<text transform="matrix(1 0 0 1 197.8444 304.6336)" opacity="0.1" fill="#E8DBD4" enable-background="new    " font-family="'ProximaNova-Regular'" font-size="26.3123">s</text>
<rect x="210" y="298.9" fill="none" width="43.3" height="39.7"/>
<text transform="matrix(1 0 0 1 210.0163 316.4793)" opacity="0.2" fill="#E8DBD4" enable-background="new    " font-family="'ProximaNova-Regular'" font-size="26.3123">t</text>
<rect x="210" y="348.2" fill="none" width="43.3" height="39.7"/>
<text transform="matrix(1 0 0 1 210.0163 365.7899)" fill="#E8DBD4" font-family="'ProximaNova-Regular'" font-size="26.3123">t</text>
<rect x="219.5" y="309.2" fill="none" width="43.3" height="39.7"/>
<text transform="matrix(1 0 0 1 219.5407 326.7723)" opacity="0.3" fill="#E8DBD4" enable-background="new    " font-family="'ProximaNova-Regular'" font-size="26.3123">e</text>
<rect x="219.5" y="337.2" fill="none" width="43.3" height="39.7"/>
<text transform="matrix(1 0 0 1 219.5407 354.7899)" fill="#E8DBD4" font-family="'ProximaNova-Regular'" font-size="26.3123">e</text>
<rect x="233.7" y="321.6" fill="none" width="43.3" height="39.7"/>
<text transform="matrix(1 0 0 1 233.6823 339.1161)" opacity="0.5" fill="#E8DBD4" enable-background="new    " font-family="'ProximaNova-Regular'" font-size="26.3123">p</text>
<rect x="148.2" y="218.9" fill="none" width="43.3" height="39.7"/>
<text transform="matrix(1 0 0 1 148.1364 236.4462)" fill="#E8DBD4" font-family="'ProximaNova-Regular'" font-size="26.3123">a</text>
<rect x="163.8" y="211.7" fill="none" width="43.3" height="39.7"/>
<text transform="matrix(1 0 0 1 163.7966 229.2694)" opacity="0.5" fill="#E8DBD4" enable-background="new    " font-family="'ProximaNova-Regular'" font-size="26.3123">l</text>
<rect x="171.3" y="200.2" fill="none" width="43.3" height="39.7"/>
<text transform="matrix(1 0 0 1 171.2966 217.7372)" opacity="0.3" fill="#E8DBD4" enable-background="new    " font-family="'ProximaNova-Regular'" font-size="26.3123">s</text>
<rect x="182.8" y="187.6" fill="none" width="43.3" height="39.7"/>
<text transform="matrix(1 0 0 1 182.8279 205.1503)" opacity="0.2" fill="#E8DBD4" enable-background="new    " font-family="'ProximaNova-Regular'" font-size="26.3123">e</text>
<rect x="197.8" y="175.9" fill="none" width="43.3" height="39.7"/>
<text transform="matrix(1 0 0 1 197.8444 193.4218)" opacity="0.1" fill="#E8DBD4" enable-background="new    " font-family="'ProximaNova-Regular'" font-size="26.3123">s</text>
<ellipse fill="none" stroke="#F2F2F2" stroke-miterlimit="10" cx="140" cy="165" rx="11.5" ry="12.7"/>
<ellipse fill="none" stroke="#F2F2F2" stroke-miterlimit="10" cx="140" cy="165" rx="4.3" ry="4.8"/>
<ellipse opacity="0.1" fill="#F2F2F2" enable-background="new    " cx="171.9" cy="165" rx="4.3" ry="4.8"/>
<ellipse opacity="0.1" fill="#F2F2F2" enable-background="new    " cx="205.4" cy="165" rx="4.3" ry="4.8"/>
<g opacity="0.1">
	<path fill="#F2F2F2" d="M241.5,163.1c0.9,0,1.5,0.9,1.5,2s-0.8,2-1.5,2s-1.5-0.9-1.5-2S240.6,163.1,241.5,163.1 M241.5,160.2
		c-2.4,0-4.3,2.2-4.3,4.8s2,4.8,4.3,4.8s4.3-2.2,4.3-4.8C245.8,162.3,243.9,160.2,241.5,160.2L241.5,160.2z"/>
</g>
</svg>
