<?xml version="1.0" encoding="utf-8"?>
<!-- Generator: Adobe Illustrator 18.0.0, SVG Export Plug-In . SVG Version: 6.00 Build 0)  -->
<!DOCTYPE svg PUBLIC "-//W3C//DTD SVG 1.1//EN" "http://www.w3.org/Graphics/SVG/1.1/DTD/svg11.dtd">
<svg version="1.1" id="Layer_1" xmlns="http://www.w3.org/2000/svg" xmlns:xlink="http://www.w3.org/1999/xlink" x="0px" y="0px"
	 viewBox="0 0 444.3 753" enable-background="new 0 0 444.3 753" xml:space="preserve">
<linearGradient id="SVGID_1_" gradientUnits="userSpaceOnUse" x1="22.4084" y1="377.4614" x2="424.328" y2="377.4614">
	<stop  offset="0" style="stop-color:#477E8D"/>
	<stop  offset="1" style="stop-color:#477E8D;stop-opacity:0.9"/>
</linearGradient>
<path opacity="0.9" fill="url(#SVGID_1_)" d="M412.3,734.4H34.4c-6.6,0-12-5.4-12-12V32.5c0-6.6,5.4-12,12-12h377.9
	c6.6,0,12,5.4,12,12v689.9C424.3,729,418.9,734.4,412.3,734.4z"/>
<g>
	<g>
		
			<image overflow="visible" opacity="0.75" width="1163" height="2063" xlink:href="17F2AF45767DD373.png"  transform="matrix(0.24 0 0 0.24 87.8656 175.6922)">
		</image>
		<g>
			<linearGradient id="SVGID_2_" gradientUnits="userSpaceOnUse" x1="220.378" y1="648.7387" x2="220.378" y2="183.6922">
				<stop  offset="0" style="stop-color:#477E8D"/>
				<stop  offset="1" style="stop-color:#477E8D;stop-opacity:0.9"/>
			</linearGradient>
			<path fill="url(#SVGID_2_)" d="M335,648.7H105.8c-5.5,0-9.9-4.4-9.9-9.9V193.6c0-5.5,4.4-9.9,9.9-9.9H335c5.5,0,9.9,4.4,9.9,9.9
				v445.2C344.9,644.3,340.4,648.7,335,648.7z"/>
		</g>
	</g>
	<rect x="284" y="228.1" fill="none" width="50.4" height="36"/>
	<text transform="matrix(1 0 0 1 284.0222 236.1195)" fill="#F2F2F2" font-family="'ProximaNova-Regular'" font-size="12">3,460 </text>
	<rect x="220.4" y="228.1" fill="none" width="56" height="41.9"/>
	<text transform="matrix(1 0 0 1 220.3772 236.1195)" fill="#F2F2F2" font-family="'ProximaNova-Regular'" font-size="12">7,400</text>
	<rect x="105.6" y="228.1" fill="none" width="56" height="41.9"/>
	<text transform="matrix(1 0 0 1 105.595 236.1195)" fill="#F2F2F2" font-family="'ProximaNova-Regular'" font-size="12">25.05.19</text>
	<rect x="220.4" y="243.2" fill="none" width="56" height="41.9"/>
	<text transform="matrix(1 0 0 1 220.3772 251.1918)" fill="#F2F2F2" font-family="'ProximaNova-Regular'" font-size="12">Kilometres</text>
	<rect x="105.6" y="243.2" fill="none" width="56" height="41.9"/>
	<text transform="matrix(1 0 0 1 105.595 251.1918)" fill="#F2F2F2" font-family="'ProximaNova-Regular'" font-size="12">Today</text>
	<rect x="284" y="243.2" fill="none" width="56" height="41.9"/>
	<text transform="matrix(1 0 0 1 283.9626 251.1918)" fill="#F2F2F2" font-family="'ProximaNova-Regular'" font-size="12">Chapters</text>
	<rect x="167.5" y="197" fill="none" width="130.7" height="30"/>
	<text transform="matrix(1 0 0 1 167.4778 212.6918)" fill="#FFFFFF" font-family="'ElectraLTStd-Regular'" font-size="21">StoryJourney</text>
	<rect x="125.9" y="413.1" fill="none" width="77.4" height="70.8"/>
	<text transform="matrix(1 0 0 1 125.9475 444.3755)" fill="#D89487" font-family="'ProximaNova-Regular'" font-size="46.9575">f</text>
	<rect x="144.2" y="425.2" fill="none" width="77.4" height="70.8"/>
	<text transform="matrix(1 0 0 1 144.2288 456.4731)" fill="#D89487" font-family="'ProximaNova-Regular'" font-size="46.9575">a</text>
	<rect x="172.2" y="451.4" fill="none" width="77.4" height="70.8"/>
	
		<text transform="matrix(1 0 0 1 172.175 482.769)" opacity="0.5" fill="#D89487" font-family="'ProximaNova-Regular'" font-size="46.9575">l</text>
	<rect x="185.6" y="463.1" fill="none" width="77.4" height="70.8"/>
	
		<text transform="matrix(1 0 0 1 185.5588 494.3921)" opacity="0.3" fill="#D89487" font-family="'ProximaNova-Regular'" font-size="46.9575">s</text>
	<rect x="206.1" y="483.5" fill="none" width="77.4" height="70.8"/>
	
		<text transform="matrix(1 0 0 1 206.1399 514.772)" opacity="0.2" fill="#D89487" font-family="'ProximaNova-Regular'" font-size="46.9575">e</text>
	<rect x="232.9" y="506.8" fill="none" width="77.4" height="70.8"/>
	
		<text transform="matrix(1 0 0 1 232.9377 538.1499)" opacity="0.1" fill="#D89487" font-family="'ProximaNova-Regular'" font-size="46.9575">s</text>
	<rect x="254.7" y="528" fill="none" width="77.4" height="70.8"/>
	
		<text transform="matrix(1 0 0 1 254.6604 559.2896)" opacity="0.2" fill="#D89487" font-family="'ProximaNova-Regular'" font-size="46.9575">t</text>
	<rect x="254.7" y="616" fill="none" width="77.4" height="70.8"/>
	<text transform="matrix(1 0 0 1 254.6604 647.2895)" fill="#D89487" font-family="'ProximaNova-Regular'" font-size="46.9575">t</text>
	<rect x="271.7" y="546.3" fill="none" width="77.4" height="70.8"/>
	
		<text transform="matrix(1 0 0 1 271.6575 577.6597)" opacity="0.3" fill="#D89487" font-family="'ProximaNova-Regular'" font-size="46.9575">e</text>
	<rect x="271.7" y="596.3" fill="none" width="77.4" height="70.8"/>
	<text transform="matrix(1 0 0 1 271.6575 627.6596)" fill="#D89487" font-family="'ProximaNova-Regular'" font-size="46.9575">e</text>
	<rect x="296.9" y="568.4" fill="none" width="77.4" height="70.8"/>
	
		<text transform="matrix(1 0 0 1 296.8938 599.688)" opacity="0.5" fill="#D89487" font-family="'ProximaNova-Regular'" font-size="46.9575">p</text>
	<rect x="144.2" y="385.1" fill="none" width="77.4" height="70.8"/>
	<text transform="matrix(1 0 0 1 144.2288 416.4604)" fill="#D89487" font-family="'ProximaNova-Regular'" font-size="46.9575">a</text>
	<rect x="172.2" y="372.3" fill="none" width="77.4" height="70.8"/>
	
		<text transform="matrix(1 0 0 1 172.175 403.6528)" opacity="0.5" fill="#D89487" font-family="'ProximaNova-Regular'" font-size="46.9575">l</text>
	<rect x="185.6" y="351.8" fill="none" width="77.4" height="70.8"/>
	
		<text transform="matrix(1 0 0 1 185.5588 383.0717)" opacity="0.3" fill="#D89487" font-family="'ProximaNova-Regular'" font-size="46.9575">s</text>
	<rect x="206.1" y="329.3" fill="none" width="77.4" height="70.8"/>
	<text transform="matrix(1 0 0 1 206.1399 360.6089)" opacity="0.9"><tspan x="0" y="0" opacity="0.2" fill="#D89487" font-family="'ProximaNova-Regular'" font-size="46.9575">e</tspan></text>
	<rect x="232.9" y="308.4" fill="none" width="77.4" height="70.8"/>
	<text transform="matrix(1 0 0 1 232.9377 339.6792)" opacity="0.9"><tspan x="0" y="0" opacity="0.1" fill="#D89487" font-family="'ProximaNova-Regular'" font-size="46.9575">s</tspan></text>
	<ellipse fill="none" stroke="#F2F2F2" stroke-miterlimit="10" cx="129.8" cy="288.9" rx="20.6" ry="22.7"/>
	<ellipse fill="none" stroke="#F2F2F2" stroke-miterlimit="10" cx="129.8" cy="288.9" rx="7.8" ry="8.5"/>
	<ellipse opacity="0.1" fill="#F2F2F2" cx="186.7" cy="288.9" rx="7.8" ry="8.5"/>
	<ellipse opacity="0.1" fill="#F2F2F2" cx="246.4" cy="288.9" rx="7.8" ry="8.5"/>
	<g opacity="0.1">
		<path fill="#F2F2F2" d="M310.8,285.4c1.5,0,2.8,1.6,2.8,3.5s-1.3,3.5-2.8,3.5s-2.8-1.6-2.8-3.5S309.3,285.4,310.8,285.4
			 M310.8,280.4c-4.3,0-7.8,3.8-7.8,8.5c0,4.7,3.5,8.5,7.8,8.5c4.3,0,7.8-3.8,7.8-8.5C318.6,284.2,315.1,280.4,310.8,280.4
			L310.8,280.4z"/>
	</g>
</g>
<rect x="95.9" y="63.2" fill="none" width="249" height="100.5"/>
<text transform="matrix(1 0 0 1 95.8664 88.6122)"><tspan x="0" y="0" fill="#F3F3F3" font-family="'ElectraLTStd-Regular'" font-size="34">Every journey </tspan><tspan x="0" y="40.8" fill="#F3F3F3" font-family="'ElectraLTStd-Regular'" font-size="34">is now a story</tspan></text>
</svg>
