<?xml version="1.0" encoding="utf-8"?>
<!-- Generator: Adobe Illustrator 18.0.0, SVG Export Plug-In . SVG Version: 6.00 Build 0)  -->
<!DOCTYPE svg PUBLIC "-//W3C//DTD SVG 1.1//EN" "http://www.w3.org/Graphics/SVG/1.1/DTD/svg11.dtd">
<svg version="1.1" id="Layer_1" xmlns="http://www.w3.org/2000/svg" xmlns:xlink="http://www.w3.org/1999/xlink" x="0px" y="0px"
	 viewBox="86.1 -2 225.3 437.7" enable-background="new 86.1 -2 225.3 437.7" xml:space="preserve">
<path opacity="0.7" fill="#625B53" d="M304.7,435.4H92.9c-3.7,0-6.7-3.3-6.7-7.3V5.8c0-4,3-7.3,6.7-7.3h211.7c3.7,0,6.7,3.3,6.7,7.3
	v422.3C311.4,432.1,308.4,435.4,304.7,435.4z"/>
<rect x="128.5" y="19.4" fill="none" width="139.5" height="61.3"/>
<g>
	<text transform="matrix(1 0 0 1 128.4777 33.6818)" fill="#F4F2F2" font-family="'ElectraLTStd-Regular'" font-size="19.0503">BeACritic, </text>
</g>
<g>
	<text transform="matrix(1 0 0 1 128.4777 56.5436)" fill="#F4F2F2" font-family="'ElectraLTStd-Regular'" font-size="19.0503">EvenJustFor </text>
</g>
<g>
	<text transform="matrix(1 0 0 1 128.4777 79.4059)" fill="#F4F2F2" font-family="'ElectraLTStd-Regular'" font-size="19.0503">AMinute.</text>
</g>
<g>
	
		<image overflow="visible" opacity="0.75" enable-background="new    " width="1167" height="2071" xlink:href="17F2AF45767DD370.png"  transform="matrix(0.1339 0 0 0.1339 126.1 96.7549)">
	</image>
	<g>
		<path fill="#F3F3F3" d="M136.2,361.9h128.2c3,0,5.5-2.5,5.5-5.5V106.8c0-3-2.5-5.5-5.5-5.5H136.2c-3,0-5.5,2.5-5.5,5.5v249.5
			C130.6,359.4,133.1,361.9,136.2,361.9z"/>
	</g>
</g>
<rect x="164.6" y="108.5" fill="none" width="73.2" height="16.8"/>
<text transform="matrix(1 0 0 1 170.3507 117.3375)" fill="#625B53" font-family="'ElectraLTStd-Regular'" font-size="11.7672">StoryJourney</text>
<circle fill="#F3F3F3" cx="241.7" cy="180" r="3.3"/>
<circle fill="#F3F3F3" cx="165.5" cy="294.7" r="0.9"/>
<path opacity="0.1" fill="#625B53" enable-background="new    " d="M264.7,313.8h-8.4c-0.9,0-1.6-0.8-1.6-1.6v-9.9
	c0-0.9,0.8-1.6,1.6-1.6h8.4c0.9,0,1.6,0.8,1.6,1.6v9.9C266.3,313.2,265.6,313.8,264.7,313.8z"/>
<path opacity="0.1" fill="#625B53" enable-background="new    " d="M251.3,313.8H243c-0.9,0-1.6-0.8-1.6-1.6v-9.9
	c0-0.9,0.8-1.6,1.6-1.6h8.4c0.9,0,1.6,0.8,1.6,1.6v9.9C253.1,313.2,252.2,313.8,251.3,313.8z"/>
<path opacity="0.1" fill="#625B53" enable-background="new    " d="M238,313.8h-8.4c-0.9,0-1.6-0.8-1.6-1.6v-9.9
	c0-0.9,0.8-1.6,1.6-1.6h8.4c0.9,0,1.6,0.8,1.6,1.6v9.9C239.7,313.2,238.9,313.8,238,313.8z"/>
<path opacity="0.1" fill="#625B53" enable-background="new    " d="M224.7,313.8h-8.4c-0.9,0-1.6-0.8-1.6-1.6v-9.9
	c0-0.9,0.8-1.6,1.6-1.6h8.4c0.9,0,1.6,0.8,1.6,1.6v9.9C226.3,313.2,225.6,313.8,224.7,313.8z"/>
<path opacity="0.1" fill="#625B53" enable-background="new    " d="M211.4,313.8H203c-0.9,0-1.6-0.8-1.6-1.6v-9.9
	c0-0.9,0.8-1.6,1.6-1.6h8.4c0.9,0,1.6,0.8,1.6,1.6v9.9C213,313.2,212.2,313.8,211.4,313.8z"/>
<path opacity="0.1" fill="#625B53" enable-background="new    " d="M198,313.8h-8.4c-0.9,0-1.6-0.8-1.6-1.6v-9.9
	c0-0.9,0.8-1.6,1.6-1.6h8.4c0.9,0,1.6,0.8,1.6,1.6v9.9C199.7,313.2,198.9,313.8,198,313.8z"/>
<path opacity="0.1" fill="#625B53" enable-background="new    " d="M184.6,313.8h-8.4c-0.9,0-1.6-0.8-1.6-1.6v-9.9
	c0-0.9,0.8-1.6,1.6-1.6h8.4c0.9,0,1.6,0.8,1.6,1.6v9.9C186.4,313.2,185.6,313.8,184.6,313.8z"/>
<path opacity="0.1" fill="#625B53" enable-background="new    " d="M171.4,313.8H163c-0.9,0-1.6-0.8-1.6-1.6v-9.9
	c0-0.9,0.8-1.6,1.6-1.6h8.4c0.9,0,1.6,0.8,1.6,1.6v9.9C173,313.2,172.2,313.8,171.4,313.8z"/>
<path opacity="0.1" fill="#625B53" enable-background="new    " d="M158,313.8h-8.4c-0.9,0-1.6-0.8-1.6-1.6v-9.9
	c0-0.9,0.8-1.6,1.6-1.6h8.4c0.9,0,1.6,0.8,1.6,1.6v9.9C159.6,313.2,158.9,313.8,158,313.8z"/>
<path opacity="0.1" fill="#625B53" enable-background="new    " d="M257.7,333h-8.4c-0.9,0-1.6-0.8-1.6-1.6v-9.9
	c0-0.9,0.8-1.6,1.6-1.6h8.4c0.9,0,1.6,0.8,1.6,1.6v9.9C259.4,332.2,258.7,333,257.7,333z"/>
<path opacity="0.1" fill="#625B53" enable-background="new    " d="M244.4,333H236c-0.9,0-1.6-0.8-1.6-1.6v-9.9
	c0-0.9,0.8-1.6,1.6-1.6h8.4c0.9,0,1.6,0.8,1.6,1.6v9.9C246.1,332.2,245.4,333,244.4,333z"/>
<path opacity="0.1" fill="#625B53" enable-background="new    " d="M231,333h-8.4c-0.9,0-1.6-0.8-1.6-1.6v-9.9
	c0-0.9,0.8-1.6,1.6-1.6h8.4c0.9,0,1.6,0.8,1.6,1.6v9.9C232.8,332.2,232,333,231,333z"/>
<path opacity="0.1" fill="#625B53" enable-background="new    " d="M217.8,333h-8.3c-0.9,0-1.6-0.8-1.6-1.6v-9.9
	c0-0.9,0.8-1.6,1.6-1.6h8.4c0.9,0,1.6,0.8,1.6,1.6v9.9C219.4,332.2,218.7,333,217.8,333z"/>
<path opacity="0.1" fill="#625B53" enable-background="new    " d="M204.4,333H196c-0.9,0-1.6-0.8-1.6-1.6v-9.9
	c0-0.9,0.8-1.6,1.6-1.6h8.4c0.9,0,1.6,0.8,1.6,1.6v9.9C206,332.2,205.4,333,204.4,333z"/>
<path opacity="0.1" fill="#625B53" enable-background="new    " d="M191,333h-8.4c-0.9,0-1.6-0.8-1.6-1.6v-9.9
	c0-0.9,0.8-1.6,1.6-1.6h8.4c0.9,0,1.6,0.8,1.6,1.6v9.9C192.8,332.2,192,333,191,333z"/>
<path opacity="0.1" fill="#625B53" enable-background="new    " d="M177.7,333h-8.4c-0.9,0-1.6-0.8-1.6-1.6v-9.9
	c0-0.9,0.8-1.6,1.6-1.6h8.4c0.9,0,1.6,0.8,1.6,1.6v9.9C179.4,332.2,178.7,333,177.7,333z"/>
<path opacity="0.1" fill="#625B53" enable-background="new    " d="M164.4,333h-8.4c-0.9,0-1.6-0.8-1.6-1.6v-9.9
	c0-0.9,0.8-1.6,1.6-1.6h8.4c0.9,0,1.6,0.8,1.6,1.6v9.9C166.1,332.2,165.3,333,164.4,333z"/>
<path opacity="0.1" fill="#625B53" enable-background="new    " d="M244.4,351.8H236c-0.9,0-1.6-0.8-1.6-1.6v-9.9
	c0-0.9,0.8-1.6,1.6-1.6h8.4c0.9,0,1.6,0.8,1.6,1.6v9.9C246.1,351,245.4,351.8,244.4,351.8z"/>
<path opacity="0.1" fill="#625B53" enable-background="new    " d="M257.7,351.8h-8.4c-0.9,0-1.6-0.8-1.6-1.6v-9.9
	c0-0.9,0.8-1.6,1.6-1.6h8.4c0.9,0,1.6,0.8,1.6,1.6v9.9C259.4,351,258.7,351.8,257.7,351.8z"/>
<path opacity="0.1" fill="#625B53" enable-background="new    " d="M231,351.8h-8.4c-0.9,0-1.6-0.8-1.6-1.6v-9.9
	c0-0.9,0.8-1.6,1.6-1.6h8.4c0.9,0,1.6,0.8,1.6,1.6v9.9C232.8,351,232,351.8,231,351.8z"/>
<path opacity="0.1" fill="#625B53" enable-background="new    " d="M217.8,351.8h-8.3c-0.9,0-1.6-0.8-1.6-1.6v-9.9
	c0-0.9,0.8-1.6,1.6-1.6h8.4c0.9,0,1.6,0.8,1.6,1.6v9.9C219.4,351,218.7,351.8,217.8,351.8z"/>
<path opacity="0.1" fill="#625B53" enable-background="new    " d="M204.4,351.8H196c-0.9,0-1.6-0.8-1.6-1.6v-9.9
	c0-0.9,0.8-1.6,1.6-1.6h8.4c0.9,0,1.6,0.8,1.6,1.6v9.9C206,351,205.4,351.8,204.4,351.8z"/>
<path opacity="0.1" fill="#625B53" enable-background="new    " d="M191,351.8h-8.4c-0.9,0-1.6-0.8-1.6-1.6v-9.9
	c0-0.9,0.8-1.6,1.6-1.6h8.4c0.9,0,1.6,0.8,1.6,1.6v9.9C192.8,351,192,351.8,191,351.8z"/>
<path opacity="0.1" fill="#625B53" enable-background="new    " d="M177.7,351.8h-8.4c-0.9,0-1.6-0.8-1.6-1.6v-9.9
	c0-0.9,0.8-1.6,1.6-1.6h8.4c0.9,0,1.6,0.8,1.6,1.6v9.9C179.4,351,178.7,351.8,177.7,351.8z"/>
<path opacity="0.1" fill="#625B53" enable-background="new    " d="M164.4,351.8h-8.4c-0.9,0-1.6-0.8-1.6-1.6v-9.9
	c0-0.9,0.8-1.6,1.6-1.6h8.4c0.9,0,1.6,0.8,1.6,1.6v9.9C166.1,351,165.3,351.8,164.4,351.8z"/>
<path opacity="0.1" fill="#625B53" enable-background="new    " d="M151,351.8h-8.4c-0.9,0-1.6-0.8-1.6-1.6v-9.9
	c0-0.9,0.8-1.6,1.6-1.6h8.4c0.9,0,1.6,0.8,1.6,1.6v9.9C152.6,351,151.9,351.8,151,351.8z"/>
<path opacity="0.1" fill="#625B53" enable-background="new    " d="M151.1,333h-8.3c-0.9,0-1.6-0.8-1.6-1.6v-9.9
	c0-0.9,0.8-1.6,1.6-1.6h8.4c0.9,0,1.6,0.8,1.6,1.6v9.9C152.7,332.2,152,333,151.1,333z"/>
<path opacity="0.1" fill="#625B53" enable-background="new    " d="M144.6,313.8h-8.4c-0.9,0-1.6-0.8-1.6-1.6v-9.9
	c0-0.9,0.8-1.6,1.6-1.6h8.4c0.9,0,1.6,0.8,1.6,1.6v9.9C146.4,313.2,145.5,313.8,144.6,313.8z"/>
<path opacity="0.1" fill="#625B53" enable-background="new    " d="M247,294.7H136.4c-0.9,0-1.6-0.8-1.6-1.6v-10.5
	c0-0.9,0.8-1.6,1.6-1.6H247c0.9,0,1.6,0.8,1.6,1.6v10.5C248.6,294,247.9,294.7,247,294.7z"/>
<rect x="157.6" y="285.2" fill="none" width="118.2" height="20.2"/>
<g>
	<path fill="none" stroke="#231F20" stroke-width="0.5" stroke-linecap="round" stroke-miterlimit="10" d="M253.1,348.5h2.8
		c0.8,0,1.4-0.7,1.4-1.5v-3.2c0-0.9-0.7-1.5-1.4-1.5h-2.8c-0.2,0-0.3,0.1-0.4,0.2l-2.7,2.3c-0.4,0.3-0.4,0.9,0,1.2l2.7,2.3
		C252.7,348.4,253,348.5,253.1,348.5z"/>
	<g>
		
			<line fill="none" stroke="#231F20" stroke-width="0.5" stroke-linecap="round" stroke-miterlimit="10" x1="255.9" y1="343.8" x2="253.1" y2="346.8"/>
		
			<line fill="none" stroke="#231F20" stroke-width="0.5" stroke-linecap="round" stroke-miterlimit="10" x1="253.1" y1="343.8" x2="256.1" y2="347"/>
	</g>
</g>
<path fill="none" stroke="#231F20" stroke-width="0.5" stroke-linecap="round" stroke-miterlimit="10" d="M143.2,345.2l2.9,3
	c0.4,0.4,1.2,0.4,1.5,0l2.9-3"/>
<line fill="none" stroke="#231F20" stroke-width="0.5" stroke-linecap="round" stroke-miterlimit="10" x1="170.7" y1="283.1" x2="170.7" y2="292.4"/>
<line fill="none" stroke="#231F20" stroke-width="0.5" stroke-linecap="round" stroke-miterlimit="10" x1="146.9" y1="348.6" x2="146.9" y2="342.6"/>
<rect x="137.9" y="305.2" fill="none" width="6.3" height="5.6"/>
<text transform="matrix(1 0 0 1 137.8683 309.608)" fill="#3F3A31" font-family="'ProximaNova-Regular'" font-size="6.7242">Q</text>
<rect x="144.3" y="324" fill="none" width="6.3" height="5.6"/>
<text transform="matrix(1 0 0 1 144.3088 328.4264)" fill="#3F3A31" font-family="'ProximaNova-Regular'" font-size="6.7242">A</text>
<rect x="158.1" y="324" fill="none" width="6.3" height="5.6"/>
<text transform="matrix(1 0 0 1 158.1828 328.4264)" fill="#3F3A31" font-family="'ProximaNova-Regular'" font-size="6.7242">S</text>
<rect x="157.6" y="342.6" fill="none" width="6.3" height="5.6"/>
<text transform="matrix(1 0 0 1 157.6105 347.1412)" fill="#3F3A31" font-family="'ProximaNova-Regular'" font-size="6.7242">Z</text>
<rect x="170.7" y="343.1" fill="none" width="6.3" height="5.6"/>
<text transform="matrix(1 0 0 1 170.7492 347.5631)" fill="#3F3A31" font-family="'ProximaNova-Regular'" font-size="6.7242">X</text>
<rect x="184" y="342.9" fill="none" width="6.3" height="5.6"/>
<text transform="matrix(1 0 0 1 183.9679 347.2808)" fill="#3F3A31" font-family="'ProximaNova-Regular'" font-size="6.7242">C</text>
<rect x="197.8" y="343.1" fill="none" width="6.3" height="5.6"/>
<text transform="matrix(1 0 0 1 197.7873 347.5611)" fill="#3F3A31" font-family="'ProximaNova-Regular'" font-size="6.7242">V</text>
<rect x="211.4" y="343.2" fill="none" width="6.3" height="5.6"/>
<text transform="matrix(1 0 0 1 211.3967 347.7017)" fill="#3F3A31" font-family="'ProximaNova-Regular'" font-size="6.7242">B</text>
<rect x="224" y="343.2" fill="none" width="6.3" height="5.6"/>
<text transform="matrix(1 0 0 1 223.9611 347.7017)" fill="#3F3A31" font-family="'ProximaNova-Regular'" font-size="6.7242">N</text>
<rect x="237.4" y="343.4" fill="none" width="6.3" height="5.6"/>
<text transform="matrix(1 0 0 1 237.4289 347.8336)" fill="#3F3A31" font-family="'ProximaNova-Regular'" font-size="6.7242">M</text>
<rect x="170.9" y="324.2" fill="none" width="6.3" height="5.6"/>
<text transform="matrix(1 0 0 1 170.966 328.692)" fill="#3F3A31" font-family="'ProximaNova-Regular'" font-size="6.7242">D</text>
<rect x="184.7" y="324" fill="none" width="6.3" height="5.6"/>
<text transform="matrix(1 0 0 1 184.7541 328.4264)" fill="#3F3A31" font-family="'ProximaNova-Regular'" font-size="6.7242">F</text>
<rect x="197.6" y="324.1" fill="none" width="6.3" height="5.6"/>
<text transform="matrix(1 0 0 1 197.5626 328.567)" fill="#3F3A31" font-family="'ProximaNova-Regular'" font-size="6.7242">G</text>
<rect x="211.2" y="324.1" fill="none" width="6.3" height="5.6"/>
<text transform="matrix(1 0 0 1 211.2931 328.567)" fill="#3F3A31" font-family="'ProximaNova-Regular'" font-size="6.7242">H</text>
<rect x="224.8" y="324.1" fill="none" width="6.3" height="5.6"/>
<text transform="matrix(1 0 0 1 224.8468 328.567)" fill="#3F3A31" font-family="'ProximaNova-Regular'" font-size="6.7242">J</text>
<rect x="238" y="324.3" fill="none" width="6.3" height="5.6"/>
<text transform="matrix(1 0 0 1 237.9836 328.8316)" fill="#3F3A31" font-family="'ProximaNova-Regular'" font-size="6.7242">K</text>
<rect x="251.9" y="324.1" fill="none" width="6.3" height="5.6"/>
<text transform="matrix(1 0 0 1 251.8947 328.567)" fill="#3F3A31" font-family="'ProximaNova-Regular'" font-size="6.7242">L</text>
<rect x="151" y="305.4" fill="none" width="6.3" height="5.6"/>
<text transform="matrix(1 0 0 1 150.9562 309.8883)" fill="#3F3A31" font-family="'ProximaNova-Regular'" font-size="6.7242">W</text>
<rect x="164.9" y="305.2" fill="none" width="6.3" height="5.6"/>
<text transform="matrix(1 0 0 1 164.8996 309.608)" fill="#3F3A31" font-family="'ProximaNova-Regular'" font-size="6.7242">E</text>
<rect x="178.2" y="304.8" fill="none" width="6.3" height="5.6"/>
<text transform="matrix(1 0 0 1 178.2072 309.3658)" fill="#3F3A31" font-family="'ProximaNova-Regular'" font-size="6.7242">R</text>
<rect x="192.1" y="304.7" fill="none" width="6.3" height="5.6"/>
<text transform="matrix(1 0 0 1 192.1301 309.2252)" fill="#3F3A31" font-family="'ProximaNova-Regular'" font-size="6.7242">T</text>
<rect x="204.7" y="304.7" fill="none" width="6.3" height="5.6"/>
<text transform="matrix(1 0 0 1 204.674 309.1852)" fill="#3F3A31" font-family="'ProximaNova-Regular'" font-size="6.7242">Y</text>
<rect x="218" y="304.5" fill="none" width="6.3" height="5.6"/>
<text transform="matrix(1 0 0 1 218.0119 309.0485)" fill="#3F3A31" font-family="'ProximaNova-Regular'" font-size="6.7242">U</text>
<rect x="244.8" y="304.3" fill="none" width="6.3" height="5.6"/>
<text transform="matrix(1 0 0 1 244.7775 308.8052)" fill="#3F3A31" font-family="'ProximaNova-Regular'" font-size="6.7242">O</text>
<rect x="258.7" y="304.6" fill="none" width="6.3" height="5.6"/>
<text transform="matrix(1 0 0 1 258.7414 309.1227)" fill="#3F3A31" font-family="'ProximaNova-Regular'" font-size="6.7242">P</text>
<rect x="233.2" y="304.3" fill="none" width="6.3" height="5.6"/>
<text transform="matrix(1 0 0 1 233.1437 308.8052)" fill="#3F3A31" font-family="'ProximaNova-Regular'" font-size="6.7242">I</text>
<rect x="137.9" y="286.3" fill="none" width="118.2" height="20.2"/>
<text transform="matrix(1 0 0 1 137.8683 290.6959)" fill="#625B53" font-family="'ProximaNova-Regular'" font-size="6.7242">Tenacious</text>
<rect x="194.6" y="245.1" fill="none" width="68.1" height="185.9"/>
<text transform="matrix(1 0 0 1 194.5939 250.064)" fill="#625B53" font-family="'ElectraLTStd-Regular'" font-size="6.7242">∙</text>
<text transform="matrix(1 0 0 1 196.2746 250.064)" fill="#625B53" font-family="'ProximaNova-Regular'" font-size="6.7242">persisting in </text>
<text transform="matrix(1 0 0 1 194.5939 258.1324)" fill="#625B53" font-family="'ProximaNova-Regular'" font-size="6.7242">existence; not easily </text>
<text transform="matrix(1 0 0 1 194.5939 266.2018)" fill="#625B53" font-family="'ProximaNova-Regular'" font-size="6.7242">dispelled, clinging or </text>
<text transform="matrix(1 0 0 1 194.5939 274.2711)" fill="#625B53" font-family="'ProximaNova-Regular'" font-size="6.7242">adhering closely.</text>
<rect x="196.3" y="126.2" fill="none" width="117.7" height="14.6"/>
<text transform="matrix(1 0 0 1 196.2082 130.6754)" fill="#3F3A31" font-family="'ProximaNova-Regular'" font-size="6.7242">Short stories with </text>
<text transform="matrix(1 0 0 1 196.2082 138.7442)" fill="#3F3A31" font-family="'ProximaNova-Regular'" font-size="6.7242">even shorter reviews.</text>
<path fill="none" stroke="#231F20" stroke-width="0.5" stroke-linecap="round" stroke-miterlimit="10" d="M143.2,110.3l-6.7,2.6
	c-1,0.4-1,1.1,0,1.4l6.7,2.6"/>
<line fill="none" stroke="#231F20" stroke-width="0.5" stroke-linecap="round" stroke-miterlimit="10" x1="266.3" y1="145.7" x2="266.3" y2="160.6"/>
<g>
	<ellipse fill="#3F3A31" cx="254.8" cy="114.6" rx="0.7" ry="0.8"/>
	<ellipse fill="#3F3A31" cx="257.6" cy="114.6" rx="0.7" ry="0.8"/>
	<ellipse fill="#3F3A31" cx="260.5" cy="114.6" rx="0.7" ry="0.8"/>
</g>
<path fill="none" stroke="#231F20" stroke-width="0.5" stroke-linecap="round" stroke-miterlimit="10" d="M255.4,289.3l2.5,2.7
	c0.3,0.3,0.8,0.3,1,0l6.7-6.7"/>
<rect x="135.5" y="143.1" fill="none" width="118.2" height="20.2"/>
<text transform="matrix(1 0 0 1 135.4806 147.5147)" fill="#3F3A31" font-family="'ProximaNova-Regular'" font-size="6.7242">Synonyms</text>
<rect x="134.8" y="157.3" fill="none" width="128.7" height="154.2"/>
<text transform="matrix(1 0 0 1 134.7843 171.5572)" fill="#625B53" font-family="'ElectraLTStd-Regular'" font-size="19.0517">“Unyielding”</text>
<text transform="matrix(1 0 0 1 134.7843 194.4195)" fill="#625B53" font-family="'ElectraLTStd-Regular'" font-size="19.0517">“Inexorable”</text>
<text transform="matrix(1 0 0 1 134.7843 217.2809)" fill="#625B53" font-family="'ElectraLTStd-Regular'" font-size="19.0517">“Indefatigable”</text>
<text transform="matrix(1 0 0 1 134.7843 240.1432)" fill="#625B53" font-family="'ProximaNova-Regular'" font-size="19.0517">“Tenacious”</text>
</svg>
