<?xml version="1.0" encoding="utf-8"?>
<!-- Generator: Adobe Illustrator 18.0.0, SVG Export Plug-In . SVG Version: 6.00 Build 0)  -->
<!DOCTYPE svg PUBLIC "-//W3C//DTD SVG 1.1//EN" "http://www.w3.org/Graphics/SVG/1.1/DTD/svg11.dtd">
<svg version="1.1" id="Layer_1" xmlns="http://www.w3.org/2000/svg" xmlns:xlink="http://www.w3.org/1999/xlink" x="0px" y="0px"
	 viewBox="0 0 444.3 753" enable-background="new 0 0 444.3 753" xml:space="preserve">
<path opacity="0.2" fill="#231F20" stroke="#231F20" stroke-miterlimit="10" d="M410.3,735.1H32.3c-6.6,0-12-5.4-12-12V33.2
	c0-6.6,5.4-12,12-12h377.9c6.6,0,12,5.4,12,12v689.9C422.3,729.7,416.9,735.1,410.3,735.1z"/>
<g>
	
		<image overflow="visible" opacity="0.75" width="1163" height="2063" xlink:href="9CC414E202A0AD16.png"  transform="matrix(0.24 0 0 0.24 90.5549 187.9908)">
	</image>
	<g>
		<path fill="#F3F3F3" d="M337.7,661H108.5c-5.5,0-9.9-4.4-9.9-9.9V205.9c0-5.5,4.4-9.9,9.9-9.9h229.2c5.5,0,9.9,4.4,9.9,9.9v445.2
			C347.6,656.6,343.1,661,337.7,661z"/>
	</g>
</g>
<g>
	<rect x="159" y="208.8" fill="none" width="130.7" height="30"/>
	<text transform="matrix(1 0 0 1 169.0753 224.4344)" fill="#231F20" font-family="'ElectraLTStd-Regular'" font-size="21">StoryJourney</text>
</g>
<circle fill="#F3F3F3" cx="296.3" cy="336.2" r="5.9"/>
<circle fill="#F3F3F3" cx="160.4" cy="540.9" r="1.6"/>
<path opacity="0.1" fill="#231F20" stroke="#231F20" stroke-miterlimit="10" d="M337.4,575.2h-14.9c-1.6,0-3-1.3-3-3v-17.6
	c0-1.6,1.3-3,3-3h14.9c1.6,0,3,1.3,3,3v17.6C340.4,573.9,339.1,575.2,337.4,575.2z"/>
<path opacity="0.1" fill="#231F20" stroke="#231F20" stroke-miterlimit="10" d="M313.6,575.2h-14.9c-1.6,0-3-1.3-3-3v-17.6
	c0-1.6,1.3-3,3-3h14.9c1.6,0,3,1.3,3,3v17.6C316.6,573.9,315.3,575.2,313.6,575.2z"/>
<path opacity="0.1" fill="#231F20" stroke="#231F20" stroke-miterlimit="10" d="M289.8,575.2H275c-1.6,0-3-1.3-3-3v-17.6
	c0-1.6,1.3-3,3-3h14.9c1.6,0,3,1.3,3,3v17.6C292.8,573.9,291.5,575.2,289.8,575.2z"/>
<path opacity="0.1" fill="#231F20" stroke="#231F20" stroke-miterlimit="10" d="M266,575.2h-14.9c-1.6,0-3-1.3-3-3v-17.6
	c0-1.6,1.3-3,3-3H266c1.6,0,3,1.3,3,3v17.6C269,573.9,267.7,575.2,266,575.2z"/>
<path opacity="0.1" fill="#231F20" stroke="#231F20" stroke-miterlimit="10" d="M242.2,575.2h-14.9c-1.6,0-3-1.3-3-3v-17.6
	c0-1.6,1.3-3,3-3h14.9c1.6,0,3,1.3,3,3v17.6C245.2,573.9,243.9,575.2,242.2,575.2z"/>
<path opacity="0.1" fill="#231F20" stroke="#231F20" stroke-miterlimit="10" d="M218.4,575.2h-14.9c-1.6,0-3-1.3-3-3v-17.6
	c0-1.6,1.3-3,3-3h14.9c1.6,0,3,1.3,3,3v17.6C221.4,573.9,220.1,575.2,218.4,575.2z"/>
<path opacity="0.1" fill="#231F20" stroke="#231F20" stroke-miterlimit="10" d="M194.6,575.2h-14.9c-1.6,0-3-1.3-3-3v-17.6
	c0-1.6,1.3-3,3-3h14.9c1.6,0,3,1.3,3,3v17.6C197.6,573.9,196.3,575.2,194.6,575.2z"/>
<path opacity="0.1" fill="#231F20" stroke="#231F20" stroke-miterlimit="10" d="M170.8,575.2H156c-1.6,0-3-1.3-3-3v-17.6
	c0-1.6,1.3-3,3-3h14.9c1.6,0,3,1.3,3,3v17.6C173.8,573.9,172.5,575.2,170.8,575.2z"/>
<path opacity="0.1" fill="#231F20" stroke="#231F20" stroke-miterlimit="10" d="M147,575.2h-14.9c-1.6,0-3-1.3-3-3v-17.6
	c0-1.6,1.3-3,3-3H147c1.6,0,3,1.3,3,3v17.6C150,573.9,148.7,575.2,147,575.2z"/>
<path opacity="0.1" fill="#231F20" stroke="#231F20" stroke-miterlimit="10" d="M325.1,609.2h-14.9c-1.6,0-3-1.3-3-3v-17.6
	c0-1.6,1.3-3,3-3h14.9c1.6,0,3,1.3,3,3v17.6C328,607.9,326.7,609.2,325.1,609.2z"/>
<path opacity="0.1" fill="#231F20" stroke="#231F20" stroke-miterlimit="10" d="M301.3,609.2h-14.9c-1.6,0-3-1.3-3-3v-17.6
	c0-1.6,1.3-3,3-3h14.9c1.6,0,3,1.3,3,3v17.6C304.2,607.9,302.9,609.2,301.3,609.2z"/>
<path opacity="0.1" fill="#231F20" stroke="#231F20" stroke-miterlimit="10" d="M277.5,609.2h-14.9c-1.6,0-3-1.3-3-3v-17.6
	c0-1.6,1.3-3,3-3h14.9c1.6,0,3,1.3,3,3v17.6C280.4,607.9,279.1,609.2,277.5,609.2z"/>
<path opacity="0.1" fill="#231F20" stroke="#231F20" stroke-miterlimit="10" d="M253.7,609.2h-14.9c-1.6,0-3-1.3-3-3v-17.6
	c0-1.6,1.3-3,3-3h14.9c1.6,0,3,1.3,3,3v17.6C256.6,607.9,255.3,609.2,253.7,609.2z"/>
<path opacity="0.1" fill="#231F20" stroke="#231F20" stroke-miterlimit="10" d="M229.9,609.2H215c-1.6,0-3-1.3-3-3v-17.6
	c0-1.6,1.3-3,3-3h14.9c1.6,0,3,1.3,3,3v17.6C232.8,607.9,231.5,609.2,229.9,609.2z"/>
<path opacity="0.1" fill="#231F20" stroke="#231F20" stroke-miterlimit="10" d="M206.1,609.2h-14.9c-1.6,0-3-1.3-3-3v-17.6
	c0-1.6,1.3-3,3-3h14.9c1.6,0,3,1.3,3,3v17.6C209,607.9,207.7,609.2,206.1,609.2z"/>
<path opacity="0.1" fill="#231F20" stroke="#231F20" stroke-miterlimit="10" d="M182.3,609.2h-14.9c-1.6,0-3-1.3-3-3v-17.6
	c0-1.6,1.3-3,3-3h14.9c1.6,0,3,1.3,3,3v17.6C185.2,607.9,183.9,609.2,182.3,609.2z"/>
<path opacity="0.1" fill="#231F20" stroke="#231F20" stroke-miterlimit="10" d="M158.5,609.2h-14.9c-1.6,0-3-1.3-3-3v-17.6
	c0-1.6,1.3-3,3-3h14.9c1.6,0,3,1.3,3,3v17.6C161.4,607.9,160.1,609.2,158.5,609.2z"/>
<path opacity="0.1" fill="#231F20" stroke="#231F20" stroke-miterlimit="10" d="M301.3,642.7h-14.9c-1.6,0-3-1.3-3-3v-17.6
	c0-1.6,1.3-3,3-3h14.9c1.6,0,3,1.3,3,3v17.6C304.2,641.4,302.9,642.7,301.3,642.7z"/>
<path opacity="0.1" fill="#231F20" stroke="#231F20" stroke-miterlimit="10" d="M325.1,642.7h-14.9c-1.6,0-3-1.3-3-3v-17.6
	c0-1.6,1.3-3,3-3h14.9c1.6,0,3,1.3,3,3v17.6C328,641.4,326.7,642.7,325.1,642.7z"/>
<path opacity="0.1" fill="#231F20" stroke="#231F20" stroke-miterlimit="10" d="M277.5,642.7h-14.9c-1.6,0-3-1.3-3-3v-17.6
	c0-1.6,1.3-3,3-3h14.9c1.6,0,3,1.3,3,3v17.6C280.4,641.4,279.1,642.7,277.5,642.7z"/>
<path opacity="0.1" fill="#231F20" stroke="#231F20" stroke-miterlimit="10" d="M253.7,642.7h-14.9c-1.6,0-3-1.3-3-3v-17.6
	c0-1.6,1.3-3,3-3h14.9c1.6,0,3,1.3,3,3v17.6C256.6,641.4,255.3,642.7,253.7,642.7z"/>
<path opacity="0.1" fill="#231F20" stroke="#231F20" stroke-miterlimit="10" d="M229.9,642.7H215c-1.6,0-3-1.3-3-3v-17.6
	c0-1.6,1.3-3,3-3h14.9c1.6,0,3,1.3,3,3v17.6C232.8,641.4,231.5,642.7,229.9,642.7z"/>
<path opacity="0.1" fill="#231F20" stroke="#231F20" stroke-miterlimit="10" d="M206.1,642.7h-14.9c-1.6,0-3-1.3-3-3v-17.6
	c0-1.6,1.3-3,3-3h14.9c1.6,0,3,1.3,3,3v17.6C209,641.4,207.7,642.7,206.1,642.7z"/>
<path opacity="0.1" fill="#231F20" stroke="#231F20" stroke-miterlimit="10" d="M182.3,642.7h-14.9c-1.6,0-3-1.3-3-3v-17.6
	c0-1.6,1.3-3,3-3h14.9c1.6,0,3,1.3,3,3v17.6C185.2,641.4,183.9,642.7,182.3,642.7z"/>
<path opacity="0.1" fill="#231F20" stroke="#231F20" stroke-miterlimit="10" d="M158.5,642.7h-14.9c-1.6,0-3-1.3-3-3v-17.6
	c0-1.6,1.3-3,3-3h14.9c1.6,0,3,1.3,3,3v17.6C161.4,641.4,160.1,642.7,158.5,642.7z"/>
<path opacity="0.1" fill="#231F20" stroke="#231F20" stroke-miterlimit="10" d="M134.5,642.7h-14.9c-1.6,0-3-1.3-3-3v-17.6
	c0-1.6,1.3-3,3-3h14.9c1.6,0,3,1.3,3,3v17.6C137.4,641.4,136.1,642.7,134.5,642.7z"/>
<path opacity="0.1" fill="#231F20" stroke="#231F20" stroke-miterlimit="10" d="M134.7,609.2h-14.9c-1.6,0-3-1.3-3-3v-17.6
	c0-1.6,1.3-3,3-3h14.9c1.6,0,3,1.3,3,3v17.6C137.6,607.9,136.3,609.2,134.7,609.2z"/>
<path opacity="0.1" fill="#231F20" stroke="#231F20" stroke-miterlimit="10" d="M123.2,575.2h-14.9c-1.6,0-3-1.3-3-3v-17.6
	c0-1.6,1.3-3,3-3h14.9c1.6,0,3,1.3,3,3v17.6C126.2,573.9,124.9,575.2,123.2,575.2z"/>
<path opacity="0.1" fill="#231F20" stroke="#231F20" stroke-miterlimit="10" d="M305.8,541H108.4c-1.6,0-2.9-1.3-2.9-2.9v-18.9
	c0-1.6,1.3-2.9,2.9-2.9h197.4c1.6,0,2.9,1.3,2.9,2.9v18.9C308.7,539.7,307.4,541,305.8,541z"/>
<rect x="146.4" y="524" fill="none" width="211" height="36"/>
<g>
	<path fill="none" stroke="#231F20" stroke-miterlimit="10" d="M316.7,637h5c1.4,0,2.6-1.2,2.6-2.7v-5.6c0-1.5-1.2-2.7-2.6-2.7h-5
		c-0.3,0-0.6,0.1-0.8,0.3l-4.8,4.1c-0.7,0.6-0.7,1.6,0,2.2l4.8,4.1C316.2,636.9,316.4,637,316.7,637z"/>
	<g>
		<line fill="none" stroke="#231F20" stroke-miterlimit="10" x1="321.7" y1="628.7" x2="316.7" y2="633.9"/>
		<line fill="none" stroke="#231F20" stroke-miterlimit="10" x1="316.7" y1="628.7" x2="322" y2="634.2"/>
	</g>
</g>
<path fill="none" stroke="#231F20" stroke-miterlimit="10" d="M120.6,631.1l5.2,5.5c0.7,0.8,2.1,0.8,2.8,0l5.2-5.5"/>
<line fill="none" stroke="#231F20" stroke-miterlimit="10" x1="127.6" y1="520.4" x2="127.6" y2="536.9"/>
<line fill="none" stroke="#231F20" stroke-miterlimit="10" x1="127.2" y1="637.1" x2="127.2" y2="626.5"/>
<rect x="111.1" y="559.6" fill="none" width="11.3" height="10"/>
<text transform="matrix(1 0 0 1 111.1066 567.5653)" fill="#231F20" font-family="'ProximaNova-Regular'" font-size="12">Q</text>
<rect x="122.6" y="593.1" fill="none" width="11.3" height="10"/>
<text transform="matrix(1 0 0 1 122.6007 601.1483)" fill="#231F20" font-family="'ProximaNova-Regular'" font-size="12">A</text>
<rect x="147.4" y="593.1" fill="none" width="11.3" height="10"/>
<text transform="matrix(1 0 0 1 147.3585 601.1483)" fill="#231F20" font-family="'ProximaNova-Regular'" font-size="12">S</text>
<rect x="146.3" y="626.5" fill="none" width="11.3" height="10"/>
<text transform="matrix(1 0 0 1 146.339 634.5468)" fill="#231F20" font-family="'ProximaNova-Regular'" font-size="12">Z</text>
<rect x="169.8" y="627.3" fill="none" width="11.3" height="10"/>
<text transform="matrix(1 0 0 1 169.7853 635.2997)" fill="#231F20" font-family="'ProximaNova-Regular'" font-size="12">X</text>
<rect x="193.4" y="626.8" fill="none" width="11.3" height="10"/>
<text transform="matrix(1 0 0 1 193.3761 634.7968)" fill="#231F20" font-family="'ProximaNova-Regular'" font-size="12">C</text>
<rect x="218" y="627.3" fill="none" width="11.3" height="10"/>
<text transform="matrix(1 0 0 1 218.0382 635.2968)" fill="#231F20" font-family="'ProximaNova-Regular'" font-size="12">V</text>
<rect x="242.3" y="627.5" fill="none" width="11.3" height="10"/>
<text transform="matrix(1 0 0 1 242.3263 635.5468)" fill="#231F20" font-family="'ProximaNova-Regular'" font-size="12">B</text>
<rect x="264.7" y="627.5" fill="none" width="11.3" height="10"/>
<text transform="matrix(1 0 0 1 264.7472 635.5468)" fill="#231F20" font-family="'ProximaNova-Regular'" font-size="12">N</text>
<rect x="288.8" y="627.8" fill="none" width="11.3" height="10"/>
<text transform="matrix(1 0 0 1 288.7833 635.7821)" fill="#231F20" font-family="'ProximaNova-Regular'" font-size="12">M</text>
<rect x="170.2" y="593.6" fill="none" width="11.3" height="10"/>
<text transform="matrix(1 0 0 1 170.174 601.6219)" fill="#231F20" font-family="'ProximaNova-Regular'" font-size="12">D</text>
<rect x="194.8" y="593.1" fill="none" width="11.3" height="10"/>
<text transform="matrix(1 0 0 1 194.7784 601.1483)" fill="#231F20" font-family="'ProximaNova-Regular'" font-size="12">F</text>
<rect x="217.6" y="593.4" fill="none" width="11.3" height="10"/>
<text transform="matrix(1 0 0 1 217.6378 601.3983)" fill="#231F20" font-family="'ProximaNova-Regular'" font-size="12">G</text>
<rect x="242.1" y="593.4" fill="none" width="11.3" height="10"/>
<text transform="matrix(1 0 0 1 242.1427 601.3983)" fill="#231F20" font-family="'ProximaNova-Regular'" font-size="12">H</text>
<rect x="266.3" y="593.4" fill="none" width="11.3" height="10"/>
<text transform="matrix(1 0 0 1 266.3292 601.3983)" fill="#231F20" font-family="'ProximaNova-Regular'" font-size="12">J</text>
<rect x="289.8" y="593.9" fill="none" width="11.3" height="10"/>
<text transform="matrix(1 0 0 1 289.7726 601.8719)" fill="#231F20" font-family="'ProximaNova-Regular'" font-size="12">K</text>
<rect x="314.6" y="593.4" fill="none" width="11.3" height="10"/>
<text transform="matrix(1 0 0 1 314.6007 601.3983)" fill="#231F20" font-family="'ProximaNova-Regular'" font-size="12">L</text>
<rect x="134.5" y="560.1" fill="none" width="11.3" height="10"/>
<text transform="matrix(1 0 0 1 134.464 568.0653)" fill="#231F20" font-family="'ProximaNova-Regular'" font-size="12">W</text>
<rect x="159.3" y="559.6" fill="none" width="11.3" height="10"/>
<text transform="matrix(1 0 0 1 159.3478 567.5653)" fill="#231F20" font-family="'ProximaNova-Regular'" font-size="12">E</text>
<rect x="183.1" y="559.1" fill="none" width="11.3" height="10"/>
<text transform="matrix(1 0 0 1 183.0958 567.1307)" fill="#231F20" font-family="'ProximaNova-Regular'" font-size="12">R</text>
<rect x="207.9" y="558.9" fill="none" width="11.3" height="10"/>
<text transform="matrix(1 0 0 1 207.9425 566.8807)" fill="#231F20" font-family="'ProximaNova-Regular'" font-size="12">T</text>
<rect x="230.3" y="558.8" fill="none" width="11.3" height="10"/>
<text transform="matrix(1 0 0 1 230.3282 566.8085)" fill="#231F20" font-family="'ProximaNova-Regular'" font-size="12">Y</text>
<rect x="254.1" y="558.6" fill="none" width="11.3" height="10"/>
<text transform="matrix(1 0 0 1 254.1329 566.5653)" fill="#231F20" font-family="'ProximaNova-Regular'" font-size="12">U</text>
<rect x="301.9" y="558.1" fill="none" width="11.3" height="10"/>
<text transform="matrix(1 0 0 1 301.9005 566.1307)" fill="#231F20" font-family="'ProximaNova-Regular'" font-size="12">O</text>
<rect x="326.8" y="558.7" fill="none" width="11.3" height="10"/>
<text transform="matrix(1 0 0 1 326.8185 566.6971)" fill="#231F20" font-family="'ProximaNova-Regular'" font-size="12">P</text>
<rect x="281.1" y="558.1" fill="none" width="11.3" height="10"/>
<text transform="matrix(1 0 0 1 281.1349 566.1307)" fill="#231F20" font-family="'ProximaNova-Regular'" font-size="12">I</text>
<path fill="none" stroke="#231F20" stroke-miterlimit="10" d="M328,533.7L328,533.7c-2.1,0-3.8-1.7-3.8-3.8v-8.8
	c0-2.1,1.7-3.8,3.8-3.8l0,0c2.1,0,3.8,1.7,3.8,3.8v8.8C331.8,532,330.1,533.7,328,533.7z"/>
<path fill="none" stroke="#231F20" stroke-miterlimit="10" d="M322.3,527.1v3.1c0,3.2,2.6,5.8,5.8,5.8c3.2,0,5.8-2.6,5.8-5.8v-3.1"
	/>
<line fill="none" stroke="#231F20" stroke-miterlimit="10" x1="324.9" y1="541.1" x2="331.2" y2="541.1"/>
<line fill="none" stroke="#231F20" stroke-miterlimit="10" x1="328" y1="536" x2="328" y2="541.1"/>
<rect x="111.1" y="525.8" fill="none" width="211" height="36"/>
<text transform="matrix(1 0 0 1 111.1066 533.8124)" fill="#231F20" font-family="'ProximaNova-Regular'" font-size="12">Te</text>
<rect x="105.4" y="280" fill="none" width="229.8" height="275.2"/>
<text transform="matrix(1 0 0 1 105.4405 305.3983)"><tspan x="0" y="0" fill="#231F20" font-family="'ElectraLTStd-Regular'" font-size="34">“Terrific”</tspan><tspan x="0" y="40.8" fill="#231F20" font-family="'ElectraLTStd-Regular'" font-size="34">“Tender”</tspan><tspan x="0" y="81.6" fill="#231F20" font-family="'ElectraLTStd-Regular'" font-size="34">“Timid”</tspan><tspan x="0" y="122.4" fill="#477E8D" font-family="'ElectraLTStd-Regular'" font-size="34">“Tenacious”</tspan></text>
<rect x="212.3" y="447.3" fill="none" width="121.5" height="331.7"/>
<text transform="matrix(1 0 0 1 212.339 456.2997)"><tspan x="0" y="0" fill="#477E8D" font-family="'ElectraLTStd-Regular'" font-size="12">∙persisting in existence; </tspan><tspan x="0" y="14.4" fill="#477E8D" font-family="'ElectraLTStd-Regular'" font-size="12">not easily dispelled, </tspan><tspan x="0" y="28.8" fill="#477E8D" font-family="'ElectraLTStd-Regular'" font-size="12">clinging or adhering </tspan><tspan x="0" y="43.2" fill="#477E8D" font-family="'ElectraLTStd-Regular'" font-size="12">closely.</tspan></text>
<rect x="215.2" y="240.2" fill="none" width="210" height="25.9"/>
<text transform="matrix(1 0 0 1 215.2198 248.2372)"><tspan x="0" y="0" fill="#231F20" font-family="'ProximaNova-Regular'" font-size="12">Short stories with </tspan><tspan x="0" y="14.4" fill="#231F20" font-family="'ProximaNova-Regular'" font-size="12">even shorter reviews.</tspan></text>
<path fill="none" stroke="#231F20" stroke-linecap="round" stroke-miterlimit="10" d="M120.6,211.8l-12,4.7c-1.7,0.7-1.7,1.9,0,2.5
	l12,4.7"/>
<line fill="none" stroke="#231F20" stroke-linecap="round" stroke-miterlimit="10" x1="340.4" y1="275" x2="340.4" y2="301.5"/>
<g>
	<ellipse fill="#231F20" cx="319.9" cy="219.5" rx="1.2" ry="1.3"/>
	<ellipse fill="#231F20" cx="324.9" cy="219.5" rx="1.2" ry="1.3"/>
	<ellipse fill="#231F20" cx="329.9" cy="219.5" rx="1.2" ry="1.3"/>
</g>
<rect x="95.8" y="59.5" fill="none" width="249" height="109.4"/>
<text transform="matrix(1 0 0 1 95.8199 84.8133)"><tspan x="0" y="0" fill="#F3F3F3" font-family="'ElectraLTStd-Regular'" font-size="34">Be a critic, </tspan><tspan x="0" y="40.8" fill="#F3F3F3" font-family="'ElectraLTStd-Regular'" font-size="34">even just for </tspan><tspan x="0" y="81.6" fill="#F3F3F3" font-family="'ElectraLTStd-Regular'" font-size="34">a minute.</tspan></text>
</svg>
