<?xml version="1.0" encoding="utf-8"?>
<!-- Generator: Adobe Illustrator 18.0.0, SVG Export Plug-In . SVG Version: 6.00 Build 0)  -->
<!DOCTYPE svg PUBLIC "-//W3C//DTD SVG 1.1//EN" "http://www.w3.org/Graphics/SVG/1.1/DTD/svg11.dtd">
<svg version="1.1" id="Layer_1" xmlns="http://www.w3.org/2000/svg" xmlns:xlink="http://www.w3.org/1999/xlink" x="0px" y="0px"
	 viewBox="87.4 0 225.2 437" enable-background="new 87.4 0 225.2 437" xml:space="preserve">
<path opacity="0.7" fill="#625B53" d="M305.8,437H94.1c-3.7,0-6.7-3.3-6.7-7.3V7.3c0-4,3-7.3,6.7-7.3h211.7c3.7,0,6.7,3.3,6.7,7.3
	v422.3C312.6,433.7,309.5,437,305.8,437z"/>
<rect x="130.2" y="21.5" fill="none" width="139.5" height="61.3"/>
<g>
	<text transform="matrix(1 0 0 1 130.1314 35.646)" enable-background="new    "><tspan x="0" y="0" fill="#F4F2F2" font-family="'ElectraLTStd-Regular'" font-size="19.0503">ShortStories,With</tspan><tspan x="0" y="22.9" fill="#F4F2F2" font-family="'ElectraLTStd-Regular'" font-size="19.0503">BigWordsExplain</tspan><tspan x="0" y="45.7" fill="#F4F2F2" font-family="'ElectraLTStd-Regular'" font-size="19.0503">ed </tspan></text>
</g>
<g>
	
		<image overflow="visible" opacity="0.75" enable-background="new    " width="1167" height="2067" xlink:href="F9B5A9EC117DF020.png"  transform="matrix(0.1342 0 0 0.1342 125.5603 98.7346)">
	</image>
	<g>
		<path fill="#E8DBD4" d="M264.1,363.7H135.7c-3.1,0-5.5-2.5-5.5-5.5V108.7c0-3.1,2.5-5.5,5.5-5.5h128.4c3.1,0,5.5,2.5,5.5,5.5
			v249.4C269.7,361.2,267.2,363.7,264.1,363.7z"/>
	</g>
</g>
<g>
	<rect x="167.5" y="111.1" fill="none" width="73.2" height="16.8"/>
	<text transform="matrix(1 0 0 1 180.8974 119.8373)" fill="#625B53" font-family="'ElectraLTStd-Regular'" font-size="11.7664">FalseStep</text>
</g>
<g>
	<rect x="234.5" y="127.4" fill="none" width="28.2" height="20.2"/>
	<text transform="matrix(1 0 0 1 234.4637 131.8836)" fill="#3F3A31" font-family="'ProximaNova-Regular'" font-size="6.7236">3,461 </text>
</g>
<g>
	<rect x="198.8" y="127.7" fill="none" width="31.4" height="23.5"/>
	<text transform="matrix(1 0 0 1 198.8035 132.2171)" fill="#3F3A31" font-family="'ProximaNova-Regular'" font-size="6.7236">7,410</text>
</g>
<g>
	<rect x="198.8" y="136.9" fill="none" width="31.4" height="23.5"/>
	<text transform="matrix(1 0 0 1 198.8035 141.409)" fill="#3F3A31" font-family="'ProximaNova-Regular'" font-size="6.7236">Kilometres</text>
</g>
<g>
	<rect x="234.4" y="136.9" fill="none" width="31.4" height="23.5"/>
	<text transform="matrix(1 0 0 1 234.4297 141.409)" fill="#3F3A31" font-family="'ProximaNova-Regular'" font-size="6.7236">Chapters</text>
</g>
<rect x="137.2" y="182.2" fill="none" width="126.7" height="232.2"/>
<text transform="matrix(1 0 0 1 137.2055 187.1629)" fill="#625B53" font-family="'ElectraLTStd-Regular'" font-size="6.7236">Appearing from the smoke, then </text>
<text transform="matrix(1 0 0 1 227.1346 187.1629)" fill="#625B53" font-family="'ProximaNova-Regular'" font-size="6.7236">engulfed</text>
<text transform="matrix(1 0 0 1 253.2442 187.1629)" fill="#625B53" font-family="'ElectraLTStd-Regular'" font-size="6.7236"> by </text>
<text transform="matrix(1 0 0 1 137.2055 195.2314)" fill="#625B53" font-family="'ElectraLTStd-Regular'" font-size="6.7236">the dark until the brightest light of all broke </text>
<text transform="matrix(1 0 0 1 137.2055 203.2998)" fill="#625B53" font-family="'ElectraLTStd-Regular'" font-size="6.7236">free and lit up the darkness. I could see it </text>
<text transform="matrix(1 0 0 1 137.2055 211.3682)" fill="#625B53" font-family="'ElectraLTStd-Regular'" font-size="6.7236">from the corner of my eye. </text>
<text transform="matrix(1 0 0 1 137.2055 219.4363)" fill="#625B53" font-family="'ElectraLTStd-Regular'" font-size="6.7236">To my left. </text>
<text transform="matrix(1 0 0 1 137.2055 227.5047)" fill="#625B53" font-family="'ElectraLTStd-Regular'" font-size="6.7236">I had to refocus. </text>
<text transform="matrix(1 0 0 1 137.2055 235.5732)" fill="#625B53" font-family="'ElectraLTStd-Regular'" font-size="6.7236">Again and again. </text>
<text transform="matrix(1 0 0 1 137.2055 243.6416)" fill="#625B53" font-family="'ElectraLTStd-Regular'" font-size="6.7236">It was so bright. </text>
<text transform="matrix(1 0 0 1 137.2055 251.71)" fill="#625B53" font-family="'ElectraLTStd-Regular'" font-size="6.7236">Then other smaller lights to the left and right </text>
<text transform="matrix(1 0 0 1 137.2055 259.7781)" fill="#625B53" font-family="'ElectraLTStd-Regular'" font-size="6.7236">of it. It was the moon. I relalised it was the </text>
<text transform="matrix(1 0 0 1 137.2055 267.8466)" fill="#625B53" font-family="'ElectraLTStd-Regular'" font-size="6.7236">moon. A full moon. I felt a sense of relief </text>
<text transform="matrix(1 0 0 1 137.2055 275.915)" fill="#625B53" font-family="'ElectraLTStd-Regular'" font-size="6.7236">followed quickly by frustration with myself. </text>
<text transform="matrix(1 0 0 1 137.2055 283.9834)" fill="#625B53" font-family="'ElectraLTStd-Regular'" font-size="6.7236">Of course it was the moon and stars. </text>
<text transform="matrix(1 0 0 1 137.2055 292.0515)" fill="#625B53" font-family="'ElectraLTStd-Regular'" font-size="6.7236">What was I thinking about? </text>
<text transform="matrix(1 0 0 1 137.2055 300.12)" fill="#625B53" font-family="'ElectraLTStd-Regular'" font-size="6.7236">Was I dreaming? </text>
<text transform="matrix(1 0 0 1 137.2055 308.1884)" fill="#625B53" font-family="'ElectraLTStd-Regular'" font-size="6.7236">Had I just woken up from a bad dream? </text>
<text transform="matrix(1 0 0 1 137.2055 316.2568)" fill="#625B53" font-family="'ElectraLTStd-Regular'" font-size="6.7236">I was awake. I knew that now. And I was </text>
<text transform="matrix(1 0 0 1 137.2055 324.3252)" fill="#625B53" font-family="'ElectraLTStd-Regular'" font-size="6.7236">staring up at the night sky and a full moon. </text>
<text transform="matrix(1 0 0 1 137.2055 332.3933)" fill="#625B53" font-family="'ElectraLTStd-Regular'" font-size="6.7236">But why?</text>
<path fill="none" stroke="#231F20" stroke-width="0.5" stroke-linecap="round" stroke-miterlimit="10" d="M145,112.4l-6.7,2.6
	c-1,0.4-1,1.1,0,1.4l6.7,2.6"/>
<ellipse fill="none" stroke="#231F20" stroke-width="0.5" stroke-miterlimit="10" cx="186.5" cy="162.7" rx="11.5" ry="12.7"/>
<ellipse fill="none" stroke="#231F20" stroke-width="0.5" stroke-miterlimit="10" cx="186.5" cy="162.7" rx="4.4" ry="4.8"/>
<ellipse opacity="0.1" fill="none" stroke="#231F20" stroke-width="0.5" stroke-miterlimit="10" enable-background="new    " cx="218.9" cy="162.8" rx="4.4" ry="4.8"/>
<ellipse fill="#3F3A31" cx="153.1" cy="162.8" rx="4.4" ry="4.8"/>
<ellipse opacity="0.1" fill="none" stroke="#231F20" stroke-width="0.5" stroke-miterlimit="10" enable-background="new    " cx="251.6" cy="162.7" rx="4.4" ry="4.8"/>
<g>
	<ellipse fill="#3F3A31" cx="256.7" cy="115.7" rx="0.7" ry="0.7"/>
	<ellipse fill="#3F3A31" cx="259.5" cy="115.7" rx="0.7" ry="0.7"/>
	<ellipse fill="#3F3A31" cx="262.3" cy="115.7" rx="0.7" ry="0.7"/>
</g>
<rect x="201" y="353.4" fill="none" width="42.9" height="20.2"/>
<text transform="matrix(1 0 0 1 216.8075 357.9052)" fill="#3F3A31" font-family="'ProximaNova-Regular'" font-size="6.7236">46a</text>
<rect x="239.2" y="353.9" fill="none" width="33.6" height="20.2"/>
<text transform="matrix(1 0 0 1 252.126 358.3926)" fill="#3F3A31" font-family="'ProximaNova-Regular'" font-size="6.7236">49</text>
<g>
	<path fill="none" stroke="#231F20" stroke-width="0.5" stroke-miterlimit="10" d="M243.5,355l1-1c0.2-0.2,0.6-0.2,0.7,0l0.9,1"/>
	<ellipse fill="none" stroke="#231F20" stroke-width="0.5" stroke-miterlimit="10" cx="241.5" cy="356.5" rx="2.4" ry="2.6"/>
	<ellipse fill="none" stroke="#231F20" stroke-width="0.5" stroke-miterlimit="10" cx="247.9" cy="356.5" rx="2.4" ry="2.6"/>
</g>
<g>
	<path fill="none" stroke="#231F20" stroke-width="0.5" stroke-miterlimit="10" d="M202.8,357.5v-6c0-0.3,0.2-0.5,0.5-0.5h9.9
		c0.3,0,0.5,0.2,0.5,0.5v6.1"/>
	<ellipse fill="none" stroke="#231F20" stroke-width="0.5" stroke-miterlimit="10" cx="205.3" cy="357.5" rx="1.2" ry="1.3"/>
	<ellipse fill="none" stroke="#231F20" stroke-width="0.5" stroke-miterlimit="10" cx="211.5" cy="357.5" rx="1.2" ry="1.3"/>
</g>
<g opacity="0.9">
	<path fill="#E8DBD4" d="M135.8,364H264c3.1,0,5.5-2.5,5.5-5.6V107.8c0-3.1-2.5-5.6-5.5-5.6H135.8c-3.1,0-5.5,2.5-5.5,5.6v250.6
		C130.3,361.5,132.7,364,135.8,364z"/>
</g>
<g>
	<rect x="199.3" y="191.5" fill="none" width="68.1" height="185.9"/>
	<text transform="matrix(1 0 0 1 199.3153 196.3037)" fill="#625B53" font-family="'MyriadPro-Regular'" font-size="6.7236">∙</text>
	<text transform="matrix(1 0 0 1 200.7168 196.3037)" fill="#625B53" font-family="'ProximaNova-Regular'" font-size="6.7236">persisting in </text>
	<text transform="matrix(1 0 0 1 199.3153 204.3719)" fill="#625B53" font-family="'ProximaNova-Regular'" font-size="6.7236">existence; not easily </text>
	<text transform="matrix(1 0 0 1 199.3153 212.4403)" fill="#625B53" font-family="'ProximaNova-Regular'" font-size="6.7236">dispelled, clinging or </text>
	<text transform="matrix(1 0 0 1 199.3153 220.5087)" fill="#625B53" font-family="'ProximaNova-Regular'" font-size="6.7236">adhering closely.</text>
</g>
<g>
	<rect x="228.1" y="182.2" fill="none" width="68.1" height="185.9"/>
	<text transform="matrix(1 0 0 1 228.0779 186.9207)" fill="#625B53" font-family="'MyriadPro-Regular'" font-size="6.7236">engulfed</text>
</g>
<line fill="none" stroke="#3F3A31" stroke-width="0.5" stroke-miterlimit="10" x1="232.4" y1="347" x2="251.9" y2="326"/>
<line fill="none" stroke="#3F3A31" stroke-width="0.5" stroke-miterlimit="10" x1="232.4" y1="326" x2="251.9" y2="347"/>
<g>
	<line fill="none" stroke="#3F3A31" stroke-width="0.5" stroke-miterlimit="10" x1="159.3" y1="323.2" x2="159.3" y2="344"/>
	<path fill="none" stroke="#3F3A31" stroke-width="0.5" stroke-miterlimit="10" d="M148.6,333.2l9.6-9.6c0.6-0.6,1.6-0.6,2.2,0
		l9.6,9.6"/>
	<path fill="none" stroke="#3F3A31" stroke-width="0.5" stroke-miterlimit="10" d="M171.4,336.7c0.7,0,1.2,0.6,1.2,1.2v10.6
		c0,0.7-0.6,1.2-1.2,1.2h-24.1c-0.7,0-1.2-0.6-1.2-1.2V338c0-0.7,0.6-1.2,1.2-1.2"/>
</g>
</svg>
