<?xml version="1.0" encoding="utf-8"?>
<!-- Generator: Adobe Illustrator 18.0.0, SVG Export Plug-In . SVG Version: 6.00 Build 0)  -->
<!DOCTYPE svg PUBLIC "-//W3C//DTD SVG 1.1//EN" "http://www.w3.org/Graphics/SVG/1.1/DTD/svg11.dtd">
<svg version="1.1" id="Layer_1" xmlns="http://www.w3.org/2000/svg" xmlns:xlink="http://www.w3.org/1999/xlink" x="0px" y="0px"
	 viewBox="0 0 444.3 753" enable-background="new 0 0 444.3 753" xml:space="preserve">
<path opacity="0.9" fill="#D89487" d="M411.1,735.1H33.2c-6.6,0-12-5.4-12-12V33.2c0-6.6,5.4-12,12-12h377.9c6.6,0,12,5.4,12,12
	v689.9C423.1,729.7,417.7,735.1,411.1,735.1z"/>
<g>
	
		<image overflow="visible" opacity="0.75" width="1163" height="2063" xlink:href="F9B5A9EC117DF025.png"  transform="matrix(0.24 0 0 0.24 96.2798 183.2334)">
	</image>
	<g>
		<path fill="#D89487" d="M343.4,656.3H114.2c-5.5,0-9.9-4.4-9.9-9.9V201.2c0-5.5,4.4-9.9,9.9-9.9h229.2c5.5,0,9.9,4.4,9.9,9.9
			v445.2C353.3,651.8,348.9,656.3,343.4,656.3z"/>
	</g>
</g>
<rect x="189.5" y="205.3" fill="none" width="130.7" height="30"/>
<text transform="matrix(1 0 0 1 189.5086 220.9859)" fill="#477E8D" font-family="'ElectraLTStd-Regular'" font-size="21">FalseStep</text>
<rect x="290.5" y="234.5" fill="none" width="50.4" height="36"/>
<text transform="matrix(1 0 0 1 290.4861 242.4859)" fill="#010101" font-family="'ProximaNova-Regular'" font-size="12">3,461 </text>
<rect x="226.8" y="235.1" fill="none" width="56" height="41.9"/>
<text transform="matrix(1 0 0 1 226.8416 243.0807)" fill="#010101" font-family="'ProximaNova-Regular'" font-size="12">7,410</text>
<rect x="226.8" y="251.5" fill="none" width="56" height="41.9"/>
<text transform="matrix(1 0 0 1 226.8416 259.4859)" fill="#010101" font-family="'ProximaNova-Regular'" font-size="12">Kilometres</text>
<rect x="290.4" y="251.5" fill="none" width="56" height="41.9"/>
<text transform="matrix(1 0 0 1 290.4266 259.4859)" fill="#010101" font-family="'ProximaNova-Regular'" font-size="12">Chapters</text>
<rect x="116.9" y="332.2" fill="none" width="226.2" height="414.5"/>
<text transform="matrix(1 0 0 1 116.9062 341.1461)"><tspan x="0" y="0" fill="#010101" font-family="'ElectraLTStd-Regular'" font-size="12">Appearing from the smoke, then </tspan><tspan x="160.5" y="0" fill="#477E8D" font-family="'ElectraLTStd-Regular'" font-size="12">engulfed</tspan><tspan x="203.4" y="0" fill="#010101" font-family="'ElectraLTStd-Regular'" font-size="12"> by </tspan><tspan x="0" y="14.4" fill="#010101" font-family="'ElectraLTStd-Regular'" font-size="12">the dark until the brightest light of all broke </tspan><tspan x="0" y="28.8" fill="#010101" font-family="'ElectraLTStd-Regular'" font-size="12">free and lit up the darkness. I could see it </tspan><tspan x="0" y="43.2" fill="#010101" font-family="'ElectraLTStd-Regular'" font-size="12">from the corner of my eye. </tspan><tspan x="0" y="57.6" fill="#010101" font-family="'ElectraLTStd-Regular'" font-size="12">To my left. </tspan><tspan x="0" y="72" fill="#010101" font-family="'ElectraLTStd-Regular'" font-size="12">I had to refocus. </tspan><tspan x="0" y="86.4" fill="#010101" font-family="'ElectraLTStd-Regular'" font-size="12">Again and again. </tspan><tspan x="0" y="100.8" fill="#010101" font-family="'ElectraLTStd-Regular'" font-size="12">It was so bright. </tspan><tspan x="0" y="115.2" fill="#010101" font-family="'ElectraLTStd-Regular'" font-size="12">Then other smaller lights to the left and right </tspan><tspan x="0" y="129.6" fill="#010101" font-family="'ElectraLTStd-Regular'" font-size="12">of it. It was the moon. I relalised it was the </tspan><tspan x="0" y="144" fill="#010101" font-family="'ElectraLTStd-Regular'" font-size="12">moon. A full moon. I felt a sense of relief </tspan><tspan x="0" y="158.4" fill="#010101" font-family="'ElectraLTStd-Regular'" font-size="12">followed quickly by frustration with myself. </tspan><tspan x="0" y="172.8" fill="#010101" font-family="'ElectraLTStd-Regular'" font-size="12">Of course it was the moon and stars. </tspan><tspan x="0" y="187.2" fill="#010101" font-family="'ElectraLTStd-Regular'" font-size="12">What was I thinking about? </tspan><tspan x="0" y="201.6" fill="#010101" font-family="'ElectraLTStd-Regular'" font-size="12">Was I dreaming? </tspan><tspan x="0" y="216" fill="#010101" font-family="'ElectraLTStd-Regular'" font-size="12">Had I just woken up from a bad dream? </tspan><tspan x="0" y="230.4" fill="#010101" font-family="'ElectraLTStd-Regular'" font-size="12">I was awake. I knew that now. And I was </tspan><tspan x="0" y="244.8" fill="#010101" font-family="'ElectraLTStd-Regular'" font-size="12">staring up at the night sky and a full moon. </tspan><tspan x="0" y="259.2" fill="#010101" font-family="'ElectraLTStd-Regular'" font-size="12">But why?</tspan></text>
<path fill="none" stroke="#231F20" stroke-linecap="round" stroke-miterlimit="10" d="M130.7,207.7l-12,4.7c-1.7,0.7-1.7,1.9,0,2.5
	l12,4.7"/>
<rect x="226.8" y="638.4" fill="none" width="76.6" height="36"/>
<text transform="matrix(1 0 0 1 255.0526 646.4537)" fill="#231F20" font-family="'ProximaNova-Regular'" font-size="12">46a</text>
<polyline fill="none" stroke="#231F20" stroke-linejoin="bevel" stroke-miterlimit="10" points="230,645.8 230,634.1 249.6,634.1 
	249.6,645.8 "/>
<rect x="295" y="639.3" fill="none" width="60" height="36"/>
<text transform="matrix(1 0 0 1 318.0877 647.3229)" fill="#231F20" font-family="'ProximaNova-Regular'" font-size="12">49</text>
<path fill="none" stroke="#231F20" stroke-miterlimit="10" d="M302.7,641.3l1.7-1.7c0.4-0.4,1-0.4,1.3,0l1.6,1.7"/>
<ellipse fill="none" stroke="#231F20" stroke-miterlimit="10" cx="204.9" cy="297.4" rx="20.6" ry="22.7"/>
<ellipse fill="none" stroke="#231F20" stroke-miterlimit="10" cx="204.9" cy="297.4" rx="7.8" ry="8.5"/>
<ellipse fill="none" stroke="#231F20" stroke-miterlimit="10" cx="299.2" cy="644" rx="4.2" ry="4.6"/>
<ellipse fill="none" stroke="#231F20" stroke-miterlimit="10" cx="310.6" cy="644" rx="4.2" ry="4.6"/>
<ellipse fill="none" stroke="#231F20" stroke-miterlimit="10" cx="234.5" cy="645.8" rx="2.2" ry="2.4"/>
<ellipse fill="none" stroke="#231F20" stroke-miterlimit="10" cx="245.6" cy="645.8" rx="2.2" ry="2.4"/>
<ellipse opacity="0.1" fill="none" stroke="#231F20" stroke-miterlimit="10" cx="262.6" cy="297.8" rx="7.8" ry="8.5"/>
<ellipse fill="#231F20" stroke="#231F20" stroke-miterlimit="10" cx="145.3" cy="297.8" rx="7.8" ry="8.5"/>
<ellipse opacity="0.1" fill="none" stroke="#231F20" stroke-miterlimit="10" cx="321.1" cy="297.5" rx="7.8" ry="8.5"/>
<g>
	<ellipse fill="#231F20" cx="330.2" cy="213.6" rx="1.2" ry="1.3"/>
	<ellipse fill="#231F20" cx="335.2" cy="213.6" rx="1.2" ry="1.3"/>
	<ellipse fill="#231F20" cx="340.2" cy="213.6" rx="1.2" ry="1.3"/>
</g>
<rect x="105.9" y="59.5" fill="none" width="249" height="109.4"/>
<text transform="matrix(1 0 0 1 105.9476 84.8133)"><tspan x="0" y="0" fill="#F3F3F3" font-family="'ElectraLTStd-Regular'" font-size="34">Comfortable </tspan><tspan x="0" y="40.8" fill="#F3F3F3" font-family="'ElectraLTStd-Regular'" font-size="34">mobile reading </tspan><tspan x="0" y="81.6" fill="#F3F3F3" font-family="'ElectraLTStd-Regular'" font-size="34">that feels familiar</tspan></text>
</svg>
