<?xml version="1.0" encoding="utf-8"?>
<!-- Generator: Adobe Illustrator 18.0.0, SVG Export Plug-In . SVG Version: 6.00 Build 0)  -->
<!DOCTYPE svg PUBLIC "-//W3C//DTD SVG 1.1//EN" "http://www.w3.org/Graphics/SVG/1.1/DTD/svg11.dtd">
<svg version="1.1" id="Layer_1" xmlns="http://www.w3.org/2000/svg" xmlns:xlink="http://www.w3.org/1999/xlink" x="0px" y="0px"
	 viewBox="0 0 444.3 753" enable-background="new 0 0 444.3 753" xml:space="preserve">
<path opacity="0.2" fill="#231F20" stroke="#231F20" stroke-miterlimit="10" d="M411.1,733.3H33.2c-6.6,0-12-5.4-12-12V31.5
	c0-6.6,5.4-12,12-12h377.9c6.6,0,12,5.4,12,12v689.9C423.1,727.9,417.7,733.3,411.1,733.3z"/>
<g>
	
		<image overflow="visible" opacity="0.75" width="1163" height="2063" xlink:href="EC17D434BC3840B8.png"  transform="matrix(0.24 0 0 0.24 87.5907 173.5543)">
	</image>
	<g>
		<path fill="#F3F3F3" d="M334.7,646.6H105.5c-5.5,0-9.9-4.4-9.9-9.9V191.5c0-5.5,4.4-9.9,9.9-9.9h229.2c5.5,0,9.9,4.4,9.9,9.9
			v445.2C344.6,642.2,340.2,646.6,334.7,646.6z"/>
	</g>
</g>
<rect x="180.8" y="195.6" fill="none" width="130.7" height="30"/>
<text transform="matrix(1 0 0 1 180.8194 211.3072)" fill="#477E8D" font-family="'ElectraLTStd-Regular'" font-size="21">FalseStep</text>
<rect x="281.8" y="224.8" fill="none" width="50.4" height="36"/>
<text transform="matrix(1 0 0 1 281.7969 232.8072)" fill="#010101" font-family="'ProximaNova-Regular'" font-size="12">3,461 </text>
<rect x="218.2" y="225.4" fill="none" width="56" height="41.9"/>
<text transform="matrix(1 0 0 1 218.1524 233.402)" fill="#010101" font-family="'ProximaNova-Regular'" font-size="12">7,410</text>
<rect x="218.2" y="241.8" fill="none" width="56" height="41.9"/>
<text transform="matrix(1 0 0 1 218.1524 249.8072)" fill="#010101" font-family="'ProximaNova-Regular'" font-size="12">Kilometres</text>
<rect x="281.7" y="241.8" fill="none" width="56" height="41.9"/>
<text transform="matrix(1 0 0 1 281.7374 249.8072)" fill="#010101" font-family="'ProximaNova-Regular'" font-size="12">Chapters</text>
<path fill="none" stroke="#231F20" stroke-miterlimit="10" d="M122,198l-12,4.7c-1.7,0.7-1.7,1.9,0,2.5l12,4.7"/>
<path fill="none" stroke="#231F20" stroke-miterlimit="10" d="M122,198l-12,4.7c-1.7,0.7-1.7,1.9,0,2.5l12,4.7"/>
<rect x="175.3" y="380.9" fill="none" width="208.2" height="92.6"/>
<text transform="matrix(1 0 0 1 175.2969 389.8268)"><tspan x="0" y="0" fill="#F2F2F2" font-family="'ElectraLTStd-Regular'" font-size="12">A man wakes up unable to move.</tspan><tspan x="0" y="28.8" fill="#F2F2F2" font-family="'ElectraLTStd-Regular'" font-size="12">People are describing it as</tspan></text>
<rect x="170.3" y="427.2" fill="none" width="129" height="141"/>
<text transform="matrix(1 0 0 1 170.2969 450.5152)"><tspan x="0" y="0" fill="#F2F2F2" font-family="'ElectraLTStd-Regular'" font-size="12">“Terrific”</tspan><tspan x="0" y="14.4" fill="#F2F2F2" font-family="'ElectraLTStd-Regular'" font-size="12">“Poignant”</tspan><tspan x="0" y="28.8" fill="#F2F2F2" font-family="'ElectraLTStd-Regular'" font-size="12">“Tense”</tspan><tspan x="0" y="43.2" fill="#F2F2F2" font-family="'ElectraLTStd-Regular'" font-size="12">“Frightning”</tspan><tspan x="0" y="57.6" fill="#F2F2F2" font-family="'ElectraLTStd-Regular'" font-size="12">“Passive”</tspan><tspan x="0" y="86.4" fill="#F2F2F2" font-family="'ElectraLTStd-Regular'" font-size="12">Written by AdrianTaheny</tspan></text>
<circle fill="#F2F2F2" cx="181.2" cy="431.5" r="1.5"/>
<circle fill="#F2F2F2" cx="186.2" cy="431.5" r="1.5"/>
<circle fill="#F2F2F2" cx="176.3" cy="428.5" r="1.5"/>
<rect x="108.8" y="322.5" fill="none" width="226.2" height="414.5"/>
<text transform="matrix(1 0 0 1 108.8227 331.4659)"><tspan x="0" y="0" fill="#010101" font-family="'ElectraLTStd-Regular'" font-size="12">Appearing from the smoke, then </tspan><tspan x="160.5" y="0" fill="#477E8D" font-family="'ElectraLTStd-Regular'" font-size="12">engulfed</tspan><tspan x="203.4" y="0" fill="#010101" font-family="'ElectraLTStd-Regular'" font-size="12"> by </tspan><tspan x="0" y="14.4" fill="#010101" font-family="'ElectraLTStd-Regular'" font-size="12">the dark until the brightest light of all broke </tspan><tspan x="0" y="28.8" fill="#010101" font-family="'ElectraLTStd-Regular'" font-size="12">free and lit up the darkness. I could see it </tspan><tspan x="0" y="43.2" fill="#010101" font-family="'ElectraLTStd-Regular'" font-size="12">from the corner of my eye. </tspan><tspan x="0" y="57.6" fill="#010101" font-family="'ElectraLTStd-Regular'" font-size="12">To my left. </tspan><tspan x="0" y="72" fill="#010101" font-family="'ElectraLTStd-Regular'" font-size="12">I had to refocus. </tspan><tspan x="0" y="86.4" fill="#010101" font-family="'ElectraLTStd-Regular'" font-size="12">Again and again. </tspan><tspan x="0" y="100.8" fill="#010101" font-family="'ElectraLTStd-Regular'" font-size="12">It was so bright. </tspan><tspan x="0" y="115.2" fill="#010101" font-family="'ElectraLTStd-Regular'" font-size="12">Then other smaller lights to the left and right </tspan><tspan x="0" y="129.6" fill="#010101" font-family="'ElectraLTStd-Regular'" font-size="12">of it. It was the moon. I relalised it was the </tspan><tspan x="0" y="144" fill="#010101" font-family="'ElectraLTStd-Regular'" font-size="12">moon. A full moon. I felt a sense of relief </tspan><tspan x="0" y="158.4" fill="#010101" font-family="'ElectraLTStd-Regular'" font-size="12">followed quickly by frustration with myself. </tspan><tspan x="0" y="172.8" fill="#010101" font-family="'ElectraLTStd-Regular'" font-size="12">Of course it was the moon and stars. </tspan><tspan x="0" y="187.2" fill="#010101" font-family="'ElectraLTStd-Regular'" font-size="12">What was I thinking about? </tspan><tspan x="0" y="201.6" fill="#010101" font-family="'ElectraLTStd-Regular'" font-size="12">Was I dreaming? </tspan><tspan x="0" y="216" fill="#010101" font-family="'ElectraLTStd-Regular'" font-size="12">Had I just woken up from a bad dream? </tspan><tspan x="0" y="230.4" fill="#010101" font-family="'ElectraLTStd-Regular'" font-size="12">I was awake. I knew that now. And I was </tspan><tspan x="0" y="244.8" fill="#010101" font-family="'ElectraLTStd-Regular'" font-size="12">staring up at the night sky and a full moon. </tspan><tspan x="0" y="259.2" fill="#010101" font-family="'ElectraLTStd-Regular'" font-size="12">But why?</tspan></text>
<g>
	<ellipse fill="#231F20" cx="317.4" cy="205.2" rx="1.2" ry="1.3"/>
	<ellipse fill="#231F20" cx="322.4" cy="205.2" rx="1.2" ry="1.3"/>
	<ellipse fill="#231F20" cx="327.4" cy="205.2" rx="1.2" ry="1.3"/>
</g>
<ellipse fill="none" stroke="#231F20" stroke-miterlimit="10" cx="189.9" cy="283.7" rx="20.6" ry="22.7"/>
<ellipse fill="none" stroke="#231F20" stroke-miterlimit="10" cx="189.9" cy="283.7" rx="7.8" ry="8.5"/>
<ellipse opacity="0.1" fill="none" stroke="#231F20" stroke-miterlimit="10" cx="247.6" cy="284" rx="7.8" ry="8.5"/>
<ellipse fill="#231F20" stroke="#231F20" stroke-miterlimit="10" cx="130.3" cy="284" rx="7.8" ry="8.5"/>
<ellipse opacity="0.1" fill="none" stroke="#231F20" stroke-miterlimit="10" cx="306.1" cy="283.8" rx="7.8" ry="8.5"/>
<rect x="221.9" y="628.3" fill="none" width="76.6" height="36"/>
<text transform="matrix(1 0 0 1 250.2066 636.3353)" fill="#231F20" font-family="'ProximaNova-Regular'" font-size="12">46a</text>
<polyline fill="none" stroke="#231F20" stroke-linejoin="bevel" stroke-miterlimit="10" points="225.2,635.6 225.2,624 244.7,624 
	244.7,635.7 "/>
<rect x="290.1" y="629.2" fill="none" width="60" height="36"/>
<text transform="matrix(1 0 0 1 313.2413 637.2045)" fill="#231F20" font-family="'ProximaNova-Regular'" font-size="12">49</text>
<path fill="none" stroke="#231F20" stroke-miterlimit="10" d="M297.9,631.2l1.7-1.7c0.4-0.4,1-0.4,1.3,0l1.6,1.7"/>
<ellipse fill="none" stroke="#231F20" stroke-miterlimit="10" cx="294.4" cy="633.8" rx="4.2" ry="4.6"/>
<ellipse fill="none" stroke="#231F20" stroke-miterlimit="10" cx="305.7" cy="633.8" rx="4.2" ry="4.6"/>
<ellipse fill="none" stroke="#231F20" stroke-miterlimit="10" cx="229.7" cy="635.7" rx="2.2" ry="2.4"/>
<ellipse fill="none" stroke="#231F20" stroke-miterlimit="10" cx="240.8" cy="635.7" rx="2.2" ry="2.4"/>
<g opacity="0.9">
	
		<image overflow="visible" opacity="0.75" width="1162" height="2064" xlink:href="EC17D434BC3840B9.png"  transform="matrix(0.24 0 0 0.24 87.4323 173.7187)">
	</image>
	<g>
		<path fill="#F3F3F3" d="M105.4,646.9h229c5.5,0,9.9-4.4,9.9-9.9V191.6c0-5.5-4.4-9.9-9.9-9.9h-229c-5.5,0-9.9,4.4-9.9,9.9V637
			C95.4,642.5,99.9,646.9,105.4,646.9z"/>
	</g>
</g>
<g>
	<rect x="218.7" y="339.4" fill="none" width="121.5" height="331.7"/>
	<text transform="matrix(1 0 0 1 218.6866 348.3775)"><tspan x="0" y="0" fill="#477E8D" font-family="'ElectraLTStd-Regular'" font-size="12">∙sweep over something </tspan><tspan x="0" y="14.4" fill="#477E8D" font-family="'ElectraLTStd-Regular'" font-size="12">so as to surround or </tspan><tspan x="0" y="28.8" fill="#477E8D" font-family="'ElectraLTStd-Regular'" font-size="12">cover it completely, </tspan><tspan x="0" y="43.2" fill="#477E8D" font-family="'ElectraLTStd-Regular'" font-size="12">powerfully affect </tspan><tspan x="0" y="57.6" fill="#477E8D" font-family="'ElectraLTStd-Regular'" font-size="12">someone; overwhelm.</tspan></text>
</g>
<line fill="none" stroke="#231F20" stroke-miterlimit="10" x1="277.7" y1="616.9" x2="312.6" y2="579.4"/>
<line fill="none" stroke="#231F20" stroke-miterlimit="10" x1="277.7" y1="579.4" x2="312.6" y2="616.9"/>
<g>
	<line fill="none" stroke="#231F20" stroke-miterlimit="10" x1="154" y1="574" x2="154" y2="611.2"/>
	<path fill="none" stroke="#231F20" stroke-miterlimit="10" d="M134.9,591.9l17.1-17.1c1.1-1.1,2.9-1.1,4,0l17.1,17.1"/>
	<path fill="none" stroke="#231F20" stroke-miterlimit="10" d="M174.3,598.1c1.6,0,3,0.6,3,1.5v20.4c0,0.8-1.3,1.5-3,1.5h-41.5
		c-1.6,0-3-0.6-3-1.5v-20.4"/>
	<path fill="none" stroke="#231F20" stroke-miterlimit="10" d="M132.8,598.1c-1.6,0-3,0.6-3,1.5v20.4c0,0.8,1.3,1.5,3,1.5h41.5
		c1.6,0,3-0.6,3-1.5v-20.4"/>
</g>
<rect x="97.4" y="57.7" fill="none" width="249" height="109.4"/>
<text transform="matrix(1 0 0 1 97.4336 83.0724)"><tspan x="0" y="0" fill="#F3F3F3" font-family="'ElectraLTStd-Regular'" font-size="34">Expand your </tspan><tspan x="0" y="40.8" fill="#F3F3F3" font-family="'ElectraLTStd-Regular'" font-size="34">vocabulary </tspan><tspan x="0" y="81.6" fill="#F3F3F3" font-family="'ElectraLTStd-Regular'" font-size="34">quickly</tspan></text>
</svg>
