<?xml version="1.0" encoding="utf-8"?>
<!-- Generator: Adobe Illustrator 18.0.0, SVG Export Plug-In . SVG Version: 6.00 Build 0)  -->
<!DOCTYPE svg PUBLIC "-//W3C//DTD SVG 1.1//EN" "http://www.w3.org/Graphics/SVG/1.1/DTD/svg11.dtd">
<svg version="1.1" id="Layer_1" xmlns="http://www.w3.org/2000/svg" xmlns:xlink="http://www.w3.org/1999/xlink" x="0px" y="0px"
	 viewBox="0 0 444.3 753" enable-background="new 0 0 444.3 753" xml:space="preserve">
<path opacity="0.2" fill="#231F20" stroke="#231F20" stroke-miterlimit="10" d="M411.1,733.4H33.2c-6.6,0-12-5.4-12-12V31.6
	c0-6.6,5.4-12,12-12h377.9c6.6,0,12,5.4,12,12v689.9C423.1,728,417.7,733.4,411.1,733.4z"/>
<g>
	
		<image overflow="visible" opacity="0.75" width="1163" height="2088" xlink:href="13E218CFAC4449DE.png"  transform="matrix(0.24 0 0 0.24 93.3134 173.0466)">
	</image>
	<g>
		<path fill="#F3F3F3" d="M340.4,652H111.2c-5.5,0-9.9-4.4-9.9-9.9V191c0-5.5,4.4-9.9,9.9-9.9h229.2c5.5,0,9.9,4.4,9.9,9.9v451.1
			C350.3,647.6,345.9,652,340.4,652z"/>
	</g>
</g>
<rect x="101.7" y="57.8" fill="none" width="249" height="109.4"/>
<text transform="matrix(1 0 0 1 101.71 83.1717)"><tspan x="0" y="0" fill="#F3F3F3" font-family="'ElectraLTStd-Regular'" font-size="34">Small tweaks </tspan><tspan x="0" y="40.8" fill="#F3F3F3" font-family="'ElectraLTStd-Regular'" font-size="34">can have a big </tspan><tspan x="0" y="81.6" fill="#F3F3F3" font-family="'ElectraLTStd-Regular'" font-size="34">difference</tspan></text>
<rect x="222.6" y="636.2" fill="none" width="76.6" height="36"/>
<text transform="matrix(1 0 0 1 250.8906 644.1898)" fill="#231F20" font-family="'ProximaNova-Regular'" font-size="12">46a</text>
<polyline fill="none" stroke="#231F20" stroke-linejoin="bevel" stroke-miterlimit="10" points="225.9,643.5 225.9,631.8 
	245.4,631.8 245.4,643.5 "/>
<rect x="290.8" y="637.1" fill="none" width="60" height="36"/>
<text transform="matrix(1 0 0 1 313.9253 645.059)" fill="#231F20" font-family="'ProximaNova-Regular'" font-size="12">49</text>
<path fill="none" stroke="#231F20" stroke-miterlimit="10" d="M298.6,639.1l1.7-1.7c0.4-0.4,1-0.4,1.3,0l1.6,1.7"/>
<ellipse fill="none" stroke="#231F20" stroke-miterlimit="10" cx="295" cy="641.7" rx="4.2" ry="4.6"/>
<ellipse fill="none" stroke="#231F20" stroke-miterlimit="10" cx="306.4" cy="641.7" rx="4.2" ry="4.6"/>
<ellipse fill="none" stroke="#231F20" stroke-miterlimit="10" cx="230.4" cy="643.5" rx="2.2" ry="2.4"/>
<ellipse fill="none" stroke="#231F20" stroke-miterlimit="10" cx="241.5" cy="643.5" rx="2.2" ry="2.4"/>
<g>
	<ellipse fill="#231F20" cx="324.2" cy="203" rx="1.2" ry="1.3"/>
	<ellipse fill="#231F20" cx="329.2" cy="203" rx="1.2" ry="1.3"/>
	<ellipse fill="#231F20" cx="334.2" cy="203" rx="1.2" ry="1.3"/>
</g>
<rect x="186.6" y="196.2" fill="none" width="130.7" height="30"/>
<text transform="matrix(1 0 0 1 186.6206 211.8231)" fill="#477E8D" font-family="'ElectraLTStd-Regular'" font-size="21">FalseStep</text>
<path fill="none" stroke="#231F20" stroke-miterlimit="10" d="M127.8,198.5l-12,4.7c-1.7,0.7-1.7,1.9,0,2.5l12,4.7"/>
<rect x="114.9" y="319.3" fill="none" width="219.3" height="309.4"/>
<text transform="matrix(1 0 0 1 114.9141 328.2144)"><tspan x="0" y="0" fill="#010101" font-family="'ElectraLTStd-Regular'" font-size="12">Darkness. </tspan><tspan x="0" y="14.4" fill="#010101" font-family="'ElectraLTStd-Regular'" font-size="12">That’s the first thing I remember. It was </tspan><tspan x="0" y="28.8" fill="#010101" font-family="'ElectraLTStd-Regular'" font-size="12">pitch black. I couldn’t tell if my eyes were </tspan><tspan x="0" y="43.2" fill="#010101" font-family="'ElectraLTStd-Regular'" font-size="12">open or closed. Still dark. My eyelids were </tspan><tspan x="0" y="57.6" fill="#010101" font-family="'ElectraLTStd-Regular'" font-size="12">heavy, and just as I pushed them apart, they </tspan><tspan x="0" y="72" fill="#010101" font-family="'ElectraLTStd-Regular'" font-size="12">closed again. </tspan><tspan x="0" y="86.4" fill="#010101" font-family="'ElectraLTStd-Regular'" font-size="12">But it was so dark. </tspan><tspan x="0" y="100.8" fill="#010101" font-family="'ElectraLTStd-Regular'" font-size="12">Eyelids so heavy. </tspan><tspan x="0" y="115.2" fill="#010101" font-family="'ElectraLTStd-Regular'" font-size="12">So tired. </tspan><tspan x="0" y="129.6" fill="#010101" font-family="'ElectraLTStd-Regular'" font-size="12">I was so tired. </tspan><tspan x="0" y="144" fill="#010101" font-family="'ElectraLTStd-Regular'" font-size="12">I waited for a little while and opened them </tspan><tspan x="0" y="158.4" fill="#010101" font-family="'ElectraLTStd-Regular'" font-size="12">once more. And still the darkness. I gazed </tspan><tspan x="0" y="172.8" fill="#010101" font-family="'ElectraLTStd-Regular'" font-size="12">into it, deep into the darkness. </tspan><tspan x="0" y="187.2" fill="#010101" font-family="'ElectraLTStd-Regular'" font-size="12">Suddenly a </tspan><tspan x="57.8" y="187.2" fill="#477E8D" font-family="'ElectraLTStd-Regular'" font-size="12">glimmer </tspan><tspan x="102.6" y="187.2" fill="#010101" font-family="'ElectraLTStd-Regular'" font-size="12">of light. </tspan><tspan x="0" y="201.6" fill="#010101" font-family="'ElectraLTStd-Regular'" font-size="12">In the distance. </tspan><tspan x="0" y="216" fill="#010101" font-family="'ElectraLTStd-Regular'" font-size="12">A smoky kind of light. </tspan><tspan x="0" y="230.4" fill="#010101" font-family="'ElectraLTStd-Regular'" font-size="12">Trying to break free from the dark. Then </tspan><tspan x="0" y="244.8" fill="#010101" font-family="'ElectraLTStd-Regular'" font-size="12">gone as quickly as it appeared. I felt cheated. </tspan><tspan x="0" y="259.2" opacity="0.1" fill="#010101" font-family="'ElectraLTStd-Regular'" font-size="12">I needed this light and it was gone. </tspan><tspan x="0" y="273.6" opacity="0.1" fill="#010101" font-family="'ElectraLTStd-Regular'" font-size="12">I continued to stare into the darkness. Afraid </tspan><tspan x="0" y="288" opacity="0.1" fill="#010101" font-family="'ElectraLTStd-Regular'" font-size="12">to close my eyes. The light would come </tspan></text>
<path fill="none" stroke="#231F20" stroke-miterlimit="10" d="M127.8,198.5l-12,4.7c-1.7,0.7-1.7,1.9,0,2.5l12,4.7"/>
<g opacity="0.9">
	
		<image overflow="visible" opacity="0.75" width="1163" height="2088" xlink:href="13E218CFAC4449E2.png"  transform="matrix(0.24 0 0 0.24 93.3134 173.0466)">
	</image>
	<g>
		<path fill="#F3F3F3" d="M340.4,652H111.2c-5.5,0-9.9-4.4-9.9-9.9V191c0-5.5,4.4-9.9,9.9-9.9h229.2c5.5,0,9.9,4.4,9.9,9.9v451.1
			C350.3,647.6,345.9,652,340.4,652z"/>
	</g>
</g>
<rect x="295.1" y="227.2" fill="none" width="50.4" height="36"/>
<text transform="matrix(1 0 0 1 295.0986 236.1991)" fill="#F2F2F2" font-family="'ElectraLTStd-Regular'" font-size="12">3,460 </text>
<rect x="231.5" y="227.2" fill="none" width="56" height="41.9"/>
<text transform="matrix(1 0 0 1 231.4536 236.1991)" fill="#F2F2F2" font-family="'ElectraLTStd-Regular'" font-size="12">7,400</text>
<rect x="231.5" y="242.3" fill="none" width="56" height="41.9"/>
<text transform="matrix(1 0 0 1 231.4536 251.2713)" fill="#F2F2F2" font-family="'ElectraLTStd-Regular'" font-size="12">Kilometres</text>
<rect x="295" y="242.3" fill="none" width="56" height="41.9"/>
<text transform="matrix(1 0 0 1 295.0391 251.2713)" fill="#F2F2F2" font-family="'ElectraLTStd-Regular'" font-size="12">Chapters</text>
<circle fill="none" stroke="#231F20" stroke-miterlimit="10" cx="202" cy="288.1" r="23.8"/>
<circle fill="none" stroke="#231F20" stroke-miterlimit="10" cx="262.3" cy="288.1" r="8"/>
<g>
	<path fill="#231F20" d="M317.2,281.1c3.9,0,7,3.1,7,7c0,3.9-3.1,7-7,7s-7-3.1-7-7C310.2,284.2,313.4,281.1,317.2,281.1
		 M317.2,280.1c-4.4,0-8,3.6-8,8s3.6,8,8,8s8-3.6,8-8S321.6,280.1,317.2,280.1L317.2,280.1z"/>
</g>
<circle fill="none" stroke="#231F20" stroke-miterlimit="10" cx="202" cy="288.1" r="8"/>
<rect x="176.1" y="427.7" fill="none" width="129" height="141"/>
<text transform="matrix(1 0 0 1 176.0981 451.0311)"><tspan x="0" y="0" fill="#F2F2F2" font-family="'ElectraLTStd-Regular'" font-size="12">“Terrific”</tspan><tspan x="0" y="14.4" fill="#F2F2F2" font-family="'ElectraLTStd-Regular'" font-size="12">“Poignant”</tspan><tspan x="0" y="28.8" fill="#F2F2F2" font-family="'ElectraLTStd-Regular'" font-size="12">“Tense”</tspan><tspan x="0" y="43.2" fill="#F2F2F2" font-family="'ElectraLTStd-Regular'" font-size="12">“Frightning”</tspan><tspan x="0" y="57.6" fill="#F2F2F2" font-family="'ElectraLTStd-Regular'" font-size="12">“Passive”</tspan><tspan x="0" y="86.4" fill="#F2F2F2" font-family="'ElectraLTStd-Regular'" font-size="12">Written by AdrianTaheny</tspan></text>
<rect x="287.6" y="225.3" fill="none" width="50.4" height="36"/>
<text transform="matrix(1 0 0 1 287.5986 233.3231)" fill="#010101" font-family="'ProximaNova-Regular'" font-size="12">3,461 </text>
<rect x="224" y="225.9" fill="none" width="56" height="41.9"/>
<text transform="matrix(1 0 0 1 223.9536 233.9178)" fill="#010101" font-family="'ProximaNova-Regular'" font-size="12">7,410</text>
<rect x="224" y="242.3" fill="none" width="56" height="41.9"/>
<text transform="matrix(1 0 0 1 223.9536 250.3231)" fill="#010101" font-family="'ProximaNova-Regular'" font-size="12">Kilometres</text>
<rect x="287.5" y="242.3" fill="none" width="56" height="41.9"/>
<text transform="matrix(1 0 0 1 287.5391 250.3231)" fill="#010101" font-family="'ProximaNova-Regular'" font-size="12">Chapters</text>
<rect x="101.3" y="220.9" fill="#F3F3F3" width="249.1" height="94.7"/>
<path fill="#F3F3F3" d="M111.2,627.9h229.2c5.5,0,9.9,4.4,9.9,9.9v4c0,5.5-4.4,9.9-9.9,9.9H111.2c-5.5,0-9.9-4.4-9.9-9.9v-4
	C101.3,632.4,105.7,627.9,111.2,627.9z"/>
<rect x="115.6" y="314.8" fill="none" width="56" height="13.5"/>
<text transform="matrix(1 0 0 1 115.5591 322.8272)" fill="#010101" font-family="'ProximaNova-Regular'" font-size="12">Text size</text>
<rect x="225.1" y="241.4" fill="none" width="56" height="13.5"/>
<text transform="matrix(1 0 0 1 225.0566 249.4044)" fill="#010101" font-family="'ProximaNova-Regular'" font-size="12">Serif</text>
<rect x="287.5" y="241.4" fill="none" width="56" height="13.5"/>
<text transform="matrix(1 0 0 1 287.5396 249.4044)" fill="#010101" font-family="'ProximaNova-Regular'" font-size="12">Sans-serif</text>
<g>
	<line fill="none" stroke="#231F20" stroke-linecap="round" stroke-miterlimit="10" x1="281" y1="619.7" x2="315.8" y2="582.2"/>
	<line fill="none" stroke="#231F20" stroke-linecap="round" stroke-miterlimit="10" x1="281" y1="582.2" x2="315.8" y2="619.7"/>
</g>
<path fill="none" stroke="#231F20" stroke-linecap="round" stroke-miterlimit="10" d="M131.8,603.3l13.4,14c1.4,1.5,3.8,1.5,5.2,0.1
	l35.6-35.6"/>
<line fill="none" stroke="#231F20" stroke-linecap="round" stroke-miterlimit="10" x1="329.5" y1="349.3" x2="329.5" y2="361.2"/>
<line fill="none" stroke="#231F20" stroke-linecap="round" stroke-miterlimit="10" x1="335.5" y1="355.2" x2="323.6" y2="355.2"/>
<line fill="none" stroke="#231F20" stroke-linecap="round" stroke-miterlimit="10" x1="125.2" y1="355.2" x2="113.3" y2="355.2"/>
<rect x="115.6" y="387" fill="none" width="93.8" height="13.5"/>
<text transform="matrix(1 0 0 1 115.5591 395.0138)" fill="#010101" font-family="'ProximaNova-Regular'" font-size="12">Line spacing</text>
<line fill="none" stroke="#231F20" stroke-linecap="round" stroke-miterlimit="10" x1="329.5" y1="421.5" x2="329.5" y2="433.4"/>
<line fill="none" stroke="#231F20" stroke-linecap="round" stroke-miterlimit="10" x1="335.5" y1="427.4" x2="323.6" y2="427.4"/>
<line fill="none" stroke="#231F20" stroke-linecap="round" stroke-miterlimit="10" x1="125.2" y1="427.4" x2="113.3" y2="427.4"/>
<g>
	<polyline fill="none" stroke="#231F20" stroke-linecap="round" stroke-linejoin="round" stroke-miterlimit="10" points="
		239.2,575.3 230.3,579.6 238,587.3 	"/>
	<path fill="none" stroke="#231F20" stroke-miterlimit="10" d="M230.4,579.7c11.4,0,20.6,10.1,20.6,22.7c0,12.5-9.2,22.7-20.6,22.7
		s-20.6-10.1-20.6-22.7"/>
</g>
<ellipse fill="none" stroke="#231F20" stroke-miterlimit="10" cx="234.3" cy="284.2" rx="7.8" ry="8.5"/>
<ellipse fill="none" stroke="#231F20" stroke-miterlimit="10" cx="176.1" cy="354.7" rx="7.8" ry="8.5"/>
<ellipse fill="none" stroke="#231F20" stroke-miterlimit="10" cx="209.5" cy="354.7" rx="7.8" ry="8.5"/>
<ellipse fill="none" stroke="#231F20" stroke-miterlimit="10" cx="242.9" cy="354.7" rx="7.8" ry="8.5"/>
<ellipse fill="none" stroke="#231F20" stroke-miterlimit="10" cx="276.3" cy="354.7" rx="7.8" ry="8.5"/>
<ellipse fill="none" stroke="#231F20" stroke-miterlimit="10" cx="309.7" cy="354.7" rx="7.8" ry="8.5"/>
<ellipse fill="#231F20" stroke="#231F20" stroke-miterlimit="10" cx="312.8" cy="284.2" rx="7.8" ry="8.5"/>
<ellipse fill="#231F20" stroke="#231F20" stroke-miterlimit="10" cx="143.9" cy="355.9" rx="7.8" ry="8.5"/>
<ellipse fill="none" stroke="#231F20" stroke-miterlimit="10" cx="176.1" cy="425.6" rx="7.8" ry="8.5"/>
<ellipse fill="none" stroke="#231F20" stroke-miterlimit="10" cx="209.5" cy="425.6" rx="7.8" ry="8.5"/>
<ellipse fill="none" stroke="#231F20" stroke-miterlimit="10" cx="242.9" cy="425.6" rx="7.8" ry="8.5"/>
<ellipse fill="none" stroke="#231F20" stroke-miterlimit="10" cx="276.3" cy="425.6" rx="7.8" ry="8.5"/>
<ellipse fill="none" stroke="#231F20" stroke-miterlimit="10" cx="309.7" cy="425.6" rx="7.8" ry="8.5"/>
<ellipse fill="#231F20" stroke="#231F20" stroke-miterlimit="10" cx="143.9" cy="426.8" rx="7.8" ry="8.5"/>
</svg>
