<svg width="19" height="17" viewBox="0 0 19 17" fill="none" xmlns="http://www.w3.org/2000/svg">
<path fill-rule="evenodd" clip-rule="evenodd" d="M9.5 11L9.5 0L10.5 -4.37114e-08L10.5 11L9.5 11Z" fill="white"/>
<mask id="path-2-inside-1" fill="white">
<path d="M17.9501 11.4913C18.1196 11.3404 18.2858 11.1837 18.4482 11.0212L17 11C12.5 14.5 7 14.5 2.5 11L0.980225 10.9785C1.1496 11.1479 1.32241 11.3116 1.49839 11.4698C6.26596 15.7532 13.3569 15.5797 17.9501 11.4913Z"/>
</mask>
<path d="M17.9501 11.4913C18.1196 11.3404 18.2858 11.1837 18.4482 11.0212L17 11C12.5 14.5 7 14.5 2.5 11L0.980225 10.9785C1.1496 11.1479 1.32241 11.3116 1.49839 11.4698C6.26596 15.7532 13.3569 15.5797 17.9501 11.4913Z" fill="#C4C4C4"/>
<path d="M18.4482 11.0212L112.493 105.066L334.91 -117.35L20.3992 -121.964L18.4482 11.0212ZM17.9501 11.4913L106.378 110.836L106.378 110.836L17.9501 11.4913ZM1.49839 11.4698L90.3861 -87.4644V-87.4644L1.49839 11.4698ZM0.980225 10.9785L2.8602 -122.008L-324.728 -126.639L-93.065 105.024L0.980225 10.9785ZM17 11L18.951 -121.986L-27.7705 -122.671L-64.6541 -93.9838L17 11ZM2.5 11L84.1541 -93.9838L48.9607 -121.356L4.37997 -121.987L2.5 11ZM-75.597 -83.024C-73.9373 -84.6836 -72.2303 -86.2942 -70.4782 -87.8537L106.378 110.836C108.47 108.975 110.509 107.051 112.493 105.066L-75.597 -83.024ZM-70.4781 -87.8538C-26.0484 -127.401 43.2299 -129.832 90.3861 -87.4644L-87.3893 110.404C-30.6979 161.338 52.7623 158.561 106.378 110.836L-70.4781 -87.8538ZM90.3861 -87.4644C91.9717 -86.0399 93.5187 -84.5734 95.0254 -83.0667L-93.065 105.024C-91.2195 106.869 -89.3269 108.663 -87.3893 110.404L90.3861 -87.4644ZM-64.6541 -93.9838C-45.6916 -108.732 -19.9197 -119.375 9.75 -119.375C39.4197 -119.375 65.1916 -108.732 84.1541 -93.9838L-79.1541 115.984C-26.6264 156.839 46.1264 156.839 98.6541 115.984L-64.6541 -93.9838ZM4.37997 -121.987L2.8602 -122.008L-0.899748 143.965L0.620027 143.987L4.37997 -121.987ZM15.049 143.986L16.4972 144.007L20.3992 -121.964L18.951 -121.986L15.049 143.986Z" fill="white" mask="url(#path-2-inside-1)"/>
</svg>
