<svg width="37" height="38" viewBox="0 0 37 38" fill="none" xmlns="http://www.w3.org/2000/svg">
<path fill-rule="evenodd" clip-rule="evenodd" d="M1.72163 13.9745C1.73291 13.9911 1.73894 14.0107 1.73894 14.0308V35.512C1.73894 35.5672 1.78371 35.612 1.83894 35.612H35.05C35.1053 35.612 35.15 35.5672 35.15 35.512V14.0308C35.15 14.0107 35.1561 13.9911 35.1673 13.9745L36.6673 11.7687C36.7227 11.6872 36.85 11.7264 36.85 11.8249V37.212C36.85 37.2672 36.8053 37.312 36.75 37.312H0.13894C0.083712 37.312 0.0389404 37.2672 0.0389404 37.212V11.8249C0.0389404 11.7264 0.166264 11.6872 0.221633 11.7687L1.72163 13.9745Z" fill="#E9C9B7"/>
<path fill-rule="evenodd" clip-rule="evenodd" d="M17.4176 23.0537C17.4774 23.1257 17.5945 23.0834 17.5945 22.9898V0.1C17.5945 0.0447715 17.6393 0 17.6945 0H19.1945C19.2497 0 19.2945 0.0447723 19.2945 0.100001V22.9913C19.2945 23.0848 19.4112 23.1272 19.4712 23.0555L34.97 4.53582C34.989 4.51312 35.0171 4.5 35.0467 4.5H36.7887C36.8731 4.5 36.9196 4.59811 36.8661 4.66339L19.03 26.4259C19.011 26.4491 18.9826 26.4626 18.9527 26.4626H18.0473C18.0174 26.4626 17.989 26.4491 17.97 26.4259L0.133909 4.66339C0.0804085 4.59811 0.126851 4.5 0.211252 4.5H1.95308C1.9828 4.5 2.01099 4.51323 2.02999 4.53609L17.4176 23.0537Z" fill="#E9C9B7"/>
</svg>
