<svg width="43" height="31" viewBox="0 0 43 31" fill="none" xmlns="http://www.w3.org/2000/svg">
<path fill-rule="evenodd" clip-rule="evenodd" d="M21.0476 27.6218C21.0175 27.6218 20.989 27.6083 20.97 27.5849L1.87757 4.11584C1.81818 4.04283 1.7 4.08483 1.7 4.17895V28.6609C1.7 28.7162 1.74477 28.7609 1.8 28.7609H41.2C41.2552 28.7609 41.3 28.7162 41.3 28.6609V4.17895C41.3 4.08483 41.1818 4.04283 41.1224 4.11584L22.03 27.5849C22.011 27.6083 21.9825 27.6218 21.9524 27.6218H21.0476ZM43 30.3609C43 30.4162 42.9552 30.4609 42.9 30.4609H0.099998C0.0447695 30.4609 0 30.4162 0 30.3609V0.460938H43V30.3609ZM40.3886 2.32404C40.4417 2.2587 40.3953 2.16094 40.311 2.16094H2.68898C2.60475 2.16094 2.55825 2.2587 2.61141 2.32404L21.4224 25.4472C21.4624 25.4964 21.5376 25.4964 21.5776 25.4472L40.3886 2.32404Z" fill="#E9C9B7"/>
</svg>
