<?xml version="1.0" encoding="utf-8"?>
<!-- Generator: Adobe Illustrator 18.0.0, SVG Export Plug-In . SVG Version: 6.00 Build 0)  -->
<!DOCTYPE svg PUBLIC "-//W3C//DTD SVG 1.1//EN" "http://www.w3.org/Graphics/SVG/1.1/DTD/svg11.dtd">
<svg version="1.1" id="Layer_1" xmlns="http://www.w3.org/2000/svg" xmlns:xlink="http://www.w3.org/1999/xlink" x="0px" y="0px"
	 viewBox="0 0 231.6 375.7" enable-background="new 0 0 231.6 375.7" xml:space="preserve">
<rect x="8.5" y="121.6" fill="none" width="77.4" height="70.8"/>
<text transform="matrix(1 0 0 1 8.4685 152.9217)" fill="#625B53" font-family="'ProximaNova-Regular'" font-size="46.9575">f</text>
<rect x="26.7" y="133.7" fill="none" width="77.4" height="70.8"/>
<text transform="matrix(1 0 0 1 26.7498 165.0193)" fill="#625B53" font-family="'ProximaNova-Regular'" font-size="46.9575">a</text>
<rect x="54.7" y="160" fill="none" width="77.4" height="70.8"/>
<text transform="matrix(1 0 0 1 54.6961 191.3152)" opacity="0.5" fill="#625B53" font-family="'ProximaNova-Regular'" font-size="46.9575">l</text>
<rect x="68.1" y="171.6" fill="none" width="77.4" height="70.8"/>
<text transform="matrix(1 0 0 1 68.0799 202.9383)" opacity="0.3" fill="#625B53" font-family="'ProximaNova-Regular'" font-size="46.9575">s</text>
<rect x="88.7" y="192" fill="none" width="77.4" height="70.8"/>
<text transform="matrix(1 0 0 1 88.6609 223.3182)" opacity="0.2" fill="#625B53" font-family="'ProximaNova-Regular'" font-size="46.9575">e</text>
<rect x="115.5" y="215.4" fill="none" width="77.4" height="70.8"/>
<text transform="matrix(1 0 0 1 115.4588 246.6961)" opacity="0.1" fill="#625B53" font-family="'ProximaNova-Regular'" font-size="46.9575">s</text>
<rect x="137.2" y="236.5" fill="none" width="77.4" height="70.8"/>
<text transform="matrix(1 0 0 1 137.1814 267.8357)" opacity="0.2" fill="#625B53" font-family="'ProximaNova-Regular'" font-size="46.9575">t</text>
<rect x="137.2" y="324.5" fill="none" width="77.4" height="70.8"/>
<text transform="matrix(1 0 0 1 137.1814 355.8358)" fill="#625B53" font-family="'ProximaNova-Regular'" font-size="46.9575">t</text>
<rect x="154.2" y="254.9" fill="none" width="77.4" height="70.8"/>
<text transform="matrix(1 0 0 1 154.1785 286.2058)" opacity="0.3" fill="#625B53" font-family="'ProximaNova-Regular'" font-size="46.9575">e</text>
<rect x="154.2" y="304.9" fill="none" width="77.4" height="70.8"/>
<text transform="matrix(1 0 0 1 154.1785 336.2058)" fill="#625B53" font-family="'ProximaNova-Regular'" font-size="46.9575">e</text>
<rect x="179.4" y="276.9" fill="none" width="77.4" height="70.8"/>
<text transform="matrix(1 0 0 1 179.4148 308.2342)" opacity="0.5" fill="#625B53" font-family="'ProximaNova-Regular'" font-size="46.9575">p</text>
<rect x="26.7" y="93.7" fill="none" width="77.4" height="70.8"/>
<text transform="matrix(1 0 0 1 26.7498 125.0066)" fill="#625B53" font-family="'ProximaNova-Regular'" font-size="46.9575">a</text>
<rect x="54.7" y="80.9" fill="none" width="77.4" height="70.8"/>
<text transform="matrix(1 0 0 1 54.6961 112.199)" opacity="0.5" fill="#625B53" font-family="'ProximaNova-Regular'" font-size="46.9575">l</text>
<rect x="68.1" y="60.3" fill="none" width="77.4" height="70.8"/>
<text transform="matrix(1 0 0 1 68.0799 91.618)" opacity="0.3" fill="#625B53" font-family="'ProximaNova-Regular'" font-size="46.9575">s</text>
<rect x="88.7" y="37.8" fill="none" width="77.4" height="70.8"/>
<text transform="matrix(1 0 0 1 88.6609 69.1551)" opacity="0.2" fill="#625B53" font-family="'ProximaNova-Regular'" font-size="46.9575">e</text>
<rect x="115.5" y="16.9" fill="none" width="77.4" height="70.8"/>
<text transform="matrix(1 0 0 1 115.4588 48.2254)" opacity="0.1" fill="#625B53" font-family="'ProximaNova-Regular'" font-size="46.9575">s</text>
</svg>
