<?xml version="1.0" encoding="utf-8"?>
<!-- Generator: Adobe Illustrator 18.0.0, SVG Export Plug-In . SVG Version: 6.00 Build 0)  -->
<!DOCTYPE svg PUBLIC "-//W3C//DTD SVG 1.1//EN" "http://www.w3.org/Graphics/SVG/1.1/DTD/svg11.dtd">
<svg version="1.1" id="Layer_1" xmlns="http://www.w3.org/2000/svg" xmlns:xlink="http://www.w3.org/1999/xlink" x="0px" y="0px"
	 viewBox="0 0 896.6 896.6" enable-background="new 0 0 896.6 896.6" xml:space="preserve">
<path fill="#E4DDD5" d="M698,896.6H198.6C89.4,896.6,0,807.2,0,698V198.6C0,89.4,89.4,0,198.6,0H698c109.2,0,198.6,89.4,198.6,198.6
	V698C896.6,807.2,807.2,896.6,698,896.6z"/>
<ellipse fill="none" stroke="#5D574E" stroke-width="5" stroke-miterlimit="10" cx="222.3" cy="447.9" rx="183.5" ry="201.5"/>
<path fill="none" stroke="#5D574E" stroke-width="5" stroke-miterlimit="10" d="M387.3,359.4c0-37.8,27.9-68.4,62.3-68.4
	s62.3,30.6,62.3,68.4"/>
<ellipse fill="none" stroke="#5D574E" stroke-width="5" stroke-miterlimit="10" cx="676.2" cy="448.6" rx="183.5" ry="201.5"/>
<ellipse fill="none" stroke="#5D574E" stroke-width="5" stroke-miterlimit="10" cx="222.3" cy="448.6" rx="67.9" ry="74.6"/>
<ellipse fill="none" stroke="#5D574E" stroke-width="5" stroke-miterlimit="10" cx="676.2" cy="447.9" rx="67.9" ry="74.6"/>
</svg>
