<?xml version="1.0" encoding="utf-8"?>
<!-- Generator: Adobe Illustrator 18.0.0, SVG Export Plug-In . SVG Version: 6.00 Build 0)  -->
<!DOCTYPE svg PUBLIC "-//W3C//DTD SVG 1.1//EN" "http://www.w3.org/Graphics/SVG/1.1/DTD/svg11.dtd">
<svg version="1.1" id="Layer_1" xmlns="http://www.w3.org/2000/svg" xmlns:xlink="http://www.w3.org/1999/xlink" x="0px" y="0px"
	 viewBox="0 0 623.3 129.9" enable-background="new 0 0 623.3 129.9" xml:space="preserve">
<g>
	<path fill="#625B53" d="M12.8,69.6h2.3c3.1,10.7,9.6,20.9,21.9,20.9c8.8,0,16-6.4,16-16c0-23-40.6-19.9-40.6-45.9
		c0-10.5,8.3-20.9,22.7-20.9c8.2,0,16,3.7,17.9,3.7c1.4,0,1.9-0.9,2.1-1.6h3.2v19.7h-2.1c-3.5-10.7-9.5-19.2-20.9-19.2
		c-10,0-14.6,7.9-14.6,14c0,20.7,40.8,19.6,40.8,45.6c0,12.5-10.5,23.2-24,23.2c-9,0-19.1-4.2-19.9-4.2s-0.8,0.2-1.6,2.1h-3.2V69.6z
		"/>
	<path fill="#625B53" d="M101.1,89.4c-4.8,1.7-7.9,2.9-12.1,2.9c-7.3,0-10.8-3.5-10.7-14.3l0.5-31.4L71.6,47v-3.6l5.3-0.2
		c1.4,0,1.9-0.6,1.9-1.6L79,21.6h8.2L87,42.7c7.4-0.3,9-0.5,14-1.2v4.4c-4.4-0.1-12.8,0-13.4,0.7c-0.7,0.7-0.7,1.5-0.7,6.8
		l-0.2,20.1c-0.2,12.1,1.5,15.1,7.4,15.1c2.7,0,5-0.3,7-0.9V89.4z"/>
	<path fill="#625B53" d="M130.9,40.1c18.4,0,23.3,14.7,23.3,25c0,14.3-8.7,27.6-24.2,27.6c-12.1,0-24.5-8.5-24.5-25.7
		C105.5,46.4,119.5,40.1,130.9,40.1z M129.8,90.2c10.7,0,15.5-11.6,15.5-23.9c0-13.2-5.2-23.6-14.6-23.6c-6.1,0-16.5,5.4-16.5,23.9
		C114.3,78.9,120.1,90.2,129.8,90.2z"/>
	<path fill="#625B53" d="M164.3,88.1l6.1-0.1V63.5c0-7.9,0-15.8-0.6-16.3c-0.3-0.3-3.8-0.5-5.9-0.6v-3.9l14-1.9l0.5,4.3
		c0.1,0.9,0.3,2,0.8,2c0.8,0,5.8-7,13.6-7c1.2,0,3.2,0,3.2,1.2c0,0.7-0.3,5.4-0.7,6c-0.1,0.2-0.7,0.5-9.3,0.5c-7,0-7.3,0.8-7.3,4.1
		V88l7.6,0.1v2.8h-22.1V88.1z"/>
	<path fill="#625B53" d="M246.2,45.7c-3.4,0.2-3.9,0.8-5.6,4.8l-20.2,47.9c-3.4,7.5-7.8,17.7-8.9,19.6c-1.3,2.1-3,3.2-4.3,3.1
		c-1.7-0.1-7.4-0.6-7.4-2.9c0-0.5,0.7-5.1,1.9-5.1c0.5,0,5.1,0.8,6,0.8c2.6,0,3.9-1.5,6.3-6.8l6.6-14.8L204.9,53
		c-2.9-7.3-3-7.3-6.1-7.8V42h19.5v3.2c-2,0.2-6.6-0.1-6.6,1.9c0,0.6,0.2,1.4,0.8,2.9l12.3,32.6l12.1-29.3c1.4-3.4,2.2-5.4,2.2-6.3
		c0-0.5-0.5-0.9-4.4-1.3V42h11.6V45.7z"/>
	<path fill="#625B53" d="M247.5,113.9c9.3-6,14.1-13.7,14.1-37.1c0-21.2-0.7-56.6-0.7-63.8l-8.3-0.5v-3c2.1,0,10.2,0.2,13.4,0.2
		c3.7,0,11.9-0.2,14.3-0.2v3l-8.7,0.5c-0.1,9.5,0.2,51.2,0.2,59.8c0,20.2-3.2,29-10.4,35.9c-5.9,5.8-10.5,6.5-13.9,7V113.9z"/>
	<path fill="#625B53" d="M315.4,40.1c18.4,0,23.3,14.7,23.3,25c0,14.3-8.7,27.6-24.2,27.6c-12.1,0-24.5-8.5-24.5-25.7
		C290,46.4,304.1,40.1,315.4,40.1z M314.4,90.2c10.7,0,15.5-11.6,15.5-23.9c0-13.2-5.2-23.6-14.6-23.6c-6.1,0-16.5,5.4-16.5,23.9
		C298.8,78.9,304.6,90.2,314.4,90.2z"/>
	<path fill="#625B53" d="M348.4,42.2l14.3-1.4V77c0,9,2.8,12.3,12.9,12.3c5.4,0,10.3-1.4,11.6-2.2c0.8-0.5,1.3-1.2,1.3-4.5v-33
		c0-2.9-0.6-3.2-7.4-3.4v-3.9l15.8-1.4v45.9h5.8v3.5c-2.7,0.6-7.8,1.9-10.1,1.9c-3.8,0-2.9-3.5-4.6-3.5c-1,0-9,3.7-18.3,3.7
		c-11,0-15.2-4.6-15.2-18.5v-27l-5.9-0.6V42.2z"/>
	<path fill="#625B53" d="M413.3,88.1l6.1-0.1V63.5c0-7.9,0-15.8-0.6-16.3c-0.3-0.3-3.8-0.5-5.9-0.6v-3.9l14-1.9l0.5,4.3
		c0.1,0.9,0.3,2,0.8,2c0.8,0,5.8-7,13.6-7c1.2,0,3.2,0,3.2,1.2c0,0.7-0.3,5.4-0.7,6c-0.1,0.2-0.7,0.5-9.3,0.5c-7,0-7.3,0.8-7.3,4.1
		V88l7.6,0.1v2.8h-22.1V88.1z"/>
	<path fill="#625B53" d="M451.9,88.1L458,88V47.6l-6.5-0.2v-4.6l14-1.6c0,3.4,0.2,4.3,1.4,4.3c1.3,0,8.9-4.8,18.5-4.8
		c9,0,14.7,4.6,14.7,14V88l6.1,0.1v2.8H486v-2.8l5.9-0.1V55.2c0-7.8-1.7-11.1-11-11.1c-3.9,0-10.2,1-13.3,3
		c-0.7,0.5-1.2,1.5-1.2,4.5V88l6,0.1v2.8h-20.5V88.1z"/>
	<path fill="#625B53" d="M559.5,79.7c-2.1,3.8-7.1,13.1-19.6,13.1c-13.2,0-23.9-10.3-23.9-25.5c0-13.4,8.8-27.1,24.3-27.1
		c15.3,0,19,13.2,19,17.6c0,1.7-0.2,2.4-2.3,2.4H526c-1.5,0-2.1,0.3-2.1,4.6c0,10.5,6.7,22.4,19.4,22.4c8.5,0,12.2-5.2,14.5-8.6
		L559.5,79.7z M548.9,57.6c2.1,0,2.5-0.3,2.5-1.4c0-2.6-1.3-13.6-10.7-13.6c-10.1,0-15.5,11.6-15.5,14.4c0,0.3,0.5,0.6,1.3,0.6
		H548.9z"/>
	<path fill="#625B53" d="M613.4,45.7c-3.4,0.2-3.9,0.8-5.6,4.8l-20.2,47.9c-3.4,7.5-7.8,17.7-8.9,19.6c-1.3,2.1-3,3.2-4.3,3.1
		c-1.7-0.1-7.4-0.6-7.4-2.9c0-0.5,0.7-5.1,1.9-5.1c0.5,0,5.1,0.8,6,0.8c2.6,0,3.9-1.5,6.3-6.8l6.6-14.8L572.1,53
		c-2.9-7.3-3-7.3-6.1-7.8V42h19.5v3.2c-2,0.2-6.6-0.1-6.6,1.9c0,0.6,0.2,1.4,0.8,2.9l12.3,32.6L604,53.2c1.4-3.4,2.2-5.4,2.2-6.3
		c0-0.5-0.5-0.9-4.4-1.3V42h11.6V45.7z"/>
</g>
<g>
	<path fill="#625B53" d="M281.7,114.9v-14.2h5.7c1.4,0,2.5,0.4,3.2,1.2c0.8,0.8,1.2,1.8,1.2,3c0,1.2-0.4,2.2-1.2,3
		c-0.8,0.8-1.9,1.2-3.2,1.2h-3.9v5.6H281.7z M283.4,107.7h3.7c0.8,0,1.5-0.2,2-0.7c0.5-0.5,0.8-1.1,0.8-1.9s-0.3-1.5-0.8-1.9
		c-0.5-0.5-1.2-0.7-2-0.7h-3.7V107.7z"/>
	<path fill="#625B53" d="M293.5,111.8c0-0.6,0.1-1.1,0.3-1.5c0.2-0.4,0.5-0.8,0.8-1.1c0.3-0.3,0.7-0.5,1.1-0.6
		c0.4-0.1,0.8-0.2,1.3-0.2c1.5,0,2.6,0.5,3.4,1.4v-1.8c0-0.7-0.2-1.2-0.7-1.6c-0.5-0.4-1.1-0.6-1.9-0.6c-1.2,0-2.3,0.5-3.1,1.4
		l-0.7-1.1c1.1-1.1,2.4-1.7,4.1-1.7c0.6,0,1.1,0.1,1.5,0.2c0.5,0.1,0.9,0.3,1.2,0.6c0.4,0.3,0.7,0.6,0.9,1.1s0.3,1,0.3,1.6v7h-1.6
		v-1.2c-0.9,1-2,1.4-3.4,1.4c-0.4,0-0.9-0.1-1.3-0.2c-0.4-0.1-0.8-0.4-1.1-0.6s-0.6-0.6-0.8-1.1
		C293.6,112.8,293.5,112.3,293.5,111.8z M295.1,111.8c0,0.7,0.2,1.2,0.7,1.6c0.5,0.4,1.1,0.6,1.8,0.6c0.6,0,1.1-0.1,1.6-0.3
		c0.5-0.2,0.9-0.5,1.2-0.9v-1.9c-0.3-0.4-0.7-0.7-1.2-0.9c-0.5-0.2-1-0.3-1.6-0.3c-0.7,0-1.4,0.2-1.8,0.6
		C295.3,110.6,295.1,111.1,295.1,111.8z"/>
	<path fill="#625B53" d="M305.3,114.9v-10.3h1.6v1.6c0.4-0.6,1-1,1.5-1.3c0.6-0.3,1.2-0.5,1.9-0.5v1.6c-0.2,0-0.5,0-0.6,0
		c-0.5,0-1,0.2-1.6,0.5c-0.6,0.3-1,0.7-1.2,1.1v7.3H305.3z"/>
	<path fill="#625B53" d="M311.7,111.8c0-0.6,0.1-1.1,0.3-1.5c0.2-0.4,0.5-0.8,0.8-1.1c0.3-0.3,0.7-0.5,1.1-0.6
		c0.4-0.1,0.8-0.2,1.3-0.2c1.5,0,2.6,0.5,3.4,1.4v-1.8c0-0.7-0.2-1.2-0.7-1.6c-0.5-0.4-1.1-0.6-1.9-0.6c-1.2,0-2.3,0.5-3.1,1.4
		l-0.7-1.1c1.1-1.1,2.4-1.7,4.1-1.7c0.6,0,1.1,0.1,1.5,0.2c0.5,0.1,0.9,0.3,1.2,0.6c0.4,0.3,0.7,0.6,0.9,1.1c0.2,0.5,0.3,1,0.3,1.6
		v7h-1.6v-1.2c-0.9,1-2,1.4-3.4,1.4c-0.4,0-0.9-0.1-1.3-0.2c-0.4-0.1-0.8-0.4-1.1-0.6c-0.3-0.3-0.6-0.6-0.8-1.1
		C311.8,112.8,311.7,112.3,311.7,111.8z M313.3,111.8c0,0.7,0.2,1.2,0.7,1.6c0.5,0.4,1.1,0.6,1.8,0.6c0.6,0,1.1-0.1,1.6-0.3
		c0.5-0.2,0.9-0.5,1.2-0.9v-1.9c-0.3-0.4-0.7-0.7-1.2-0.9c-0.5-0.2-1-0.3-1.6-0.3c-0.7,0-1.4,0.2-1.8,0.6
		C313.5,110.6,313.3,111.1,313.3,111.8z"/>
	<path fill="#625B53" d="M322.9,109.7c0-1.6,0.4-2.9,1.3-3.9c0.8-1,2-1.4,3.3-1.4c0.7,0,1.3,0.2,1.9,0.5s1.1,0.8,1.5,1.3v-1.5h1.6
		v10.1c0,0.8-0.1,1.5-0.4,2c-0.3,0.6-0.6,1-1.1,1.3c-0.5,0.3-1,0.6-1.5,0.7c-0.6,0.1-1.2,0.2-1.8,0.2c-0.9,0-1.7-0.1-2.3-0.3
		c-0.6-0.2-1.2-0.6-1.8-1.2l0.8-1.2c0.4,0.5,0.9,0.8,1.4,1.1c0.5,0.2,1.2,0.3,1.9,0.3c0.9,0,1.7-0.2,2.4-0.7
		c0.6-0.5,0.9-1.2,0.9-2.3v-1.6c-0.4,0.5-0.9,1-1.5,1.3c-0.6,0.3-1.3,0.5-1.9,0.5c-1.4,0-2.5-0.5-3.3-1.4
		C323.3,112.7,322.9,111.4,322.9,109.7z M324.6,109.7c0,1.1,0.3,2.1,0.9,2.8c0.6,0.7,1.4,1.1,2.4,1.1c0.6,0,1.2-0.2,1.8-0.5
		c0.6-0.3,1-0.7,1.3-1.2v-4.5c-0.3-0.5-0.7-0.8-1.3-1.2c-0.6-0.3-1.2-0.5-1.8-0.5c-1,0-1.8,0.4-2.4,1.1
		C324.8,107.6,324.6,108.6,324.6,109.7z"/>
	<path fill="#625B53" d="M335.7,114.9v-10.3h1.6v1.6c0.4-0.6,1-1,1.5-1.3c0.6-0.3,1.2-0.5,1.9-0.5v1.6c-0.2,0-0.5,0-0.6,0
		c-0.5,0-1,0.2-1.6,0.5c-0.6,0.3-1,0.7-1.2,1.1v7.3H335.7z"/>
	<path fill="#625B53" d="M342.1,111.8c0-0.6,0.1-1.1,0.3-1.5c0.2-0.4,0.5-0.8,0.8-1.1c0.3-0.3,0.7-0.5,1.1-0.6
		c0.4-0.1,0.8-0.2,1.3-0.2c1.5,0,2.6,0.5,3.4,1.4v-1.8c0-0.7-0.2-1.2-0.7-1.6c-0.5-0.4-1.1-0.6-1.9-0.6c-1.2,0-2.3,0.5-3.1,1.4
		l-0.7-1.1c1.1-1.1,2.4-1.7,4.1-1.7c0.6,0,1.1,0.1,1.5,0.2c0.5,0.1,0.9,0.3,1.2,0.6c0.4,0.3,0.7,0.6,0.9,1.1s0.3,1,0.3,1.6v7h-1.6
		v-1.2c-0.9,1-2,1.4-3.4,1.4c-0.4,0-0.9-0.1-1.3-0.2c-0.4-0.1-0.8-0.4-1.1-0.6c-0.3-0.3-0.6-0.6-0.8-1.1
		C342.2,112.8,342.1,112.3,342.1,111.8z M343.7,111.8c0,0.7,0.2,1.2,0.7,1.6c0.5,0.4,1.1,0.6,1.8,0.6c0.6,0,1.1-0.1,1.6-0.3
		c0.5-0.2,0.9-0.5,1.2-0.9v-1.9c-0.3-0.4-0.7-0.7-1.2-0.9c-0.5-0.2-1-0.3-1.6-0.3c-0.7,0-1.4,0.2-1.8,0.6
		C343.9,110.6,343.7,111.1,343.7,111.8z"/>
	<path fill="#625B53" d="M353.9,118.8v-14.2h1.6v1.5c0.4-0.5,0.9-1,1.5-1.3c0.6-0.3,1.3-0.5,2-0.5c1.4,0,2.5,0.5,3.3,1.4
		s1.3,2.3,1.3,3.9c0,1.6-0.4,2.9-1.3,3.9c-0.8,1-1.9,1.5-3.3,1.5c-0.7,0-1.3-0.2-1.9-0.5c-0.6-0.3-1.1-0.8-1.5-1.3v5.5H353.9z
		 M355.5,112.1c0.3,0.5,0.7,0.9,1.3,1.2c0.6,0.3,1.2,0.5,1.8,0.5c1,0,1.8-0.4,2.4-1.1c0.6-0.7,0.9-1.7,0.9-2.9
		c0-1.2-0.3-2.1-0.9-2.8c-0.6-0.7-1.4-1.1-2.4-1.1c-0.6,0-1.2,0.2-1.8,0.5c-0.6,0.3-1,0.7-1.3,1.2V112.1z"/>
	<path fill="#625B53" d="M366,114.9v-14.2h1.6v5.4c0.4-0.5,0.9-0.9,1.6-1.2c0.7-0.3,1.4-0.5,2.1-0.5c2.2,0,3.3,1.1,3.3,3.3v7.2h-1.6
		v-6.7c0-0.9-0.2-1.5-0.6-1.8c-0.4-0.4-1-0.5-1.7-0.5c-0.6,0-1.2,0.2-1.7,0.5c-0.6,0.3-1,0.7-1.3,1.1v7.5H366z"/>
	<path fill="#625B53" d="M376.9,113.5l0.8-1.1c0.4,0.4,0.9,0.8,1.5,1c0.6,0.3,1.2,0.4,1.9,0.4c0.8,0,1.4-0.2,1.8-0.5
		c0.4-0.3,0.6-0.7,0.6-1.3c0-0.3-0.1-0.6-0.4-0.8c-0.2-0.2-0.5-0.4-0.9-0.5c-0.4-0.1-0.8-0.2-1.2-0.4c-0.4-0.1-0.9-0.3-1.3-0.4
		c-0.5-0.1-0.9-0.3-1.2-0.5c-0.4-0.2-0.7-0.5-0.9-0.8c-0.2-0.4-0.4-0.8-0.4-1.3c0-0.8,0.3-1.6,1-2.1c0.7-0.6,1.6-0.8,2.8-0.8
		c1.6,0,2.8,0.5,3.8,1.5L384,107c-0.3-0.4-0.7-0.7-1.3-0.9c-0.5-0.2-1.1-0.4-1.8-0.4c-0.7,0-1.2,0.2-1.7,0.5
		c-0.4,0.3-0.6,0.7-0.6,1.2c0,0.3,0.1,0.6,0.3,0.8c0.2,0.2,0.5,0.4,0.9,0.5c0.4,0.1,0.8,0.2,1.2,0.3c0.4,0.1,0.9,0.3,1.4,0.4
		c0.5,0.1,0.9,0.3,1.2,0.5c0.4,0.2,0.7,0.5,0.9,0.9c0.2,0.4,0.4,0.8,0.4,1.3c0,0.9-0.4,1.6-1.1,2.2c-0.7,0.6-1.7,0.9-3,0.9
		C379.3,115.2,377.9,114.6,376.9,113.5z"/>
	<path fill="#625B53" d="M387.2,117c0.4-0.2,0.7-0.5,0.9-0.9c0.3-0.4,0.4-0.7,0.5-1.1c-0.1,0-0.2,0-0.3,0c-0.3,0-0.5-0.1-0.7-0.3
		c-0.2-0.2-0.3-0.4-0.3-0.7c0-0.3,0.1-0.6,0.3-0.8c0.2-0.2,0.5-0.3,0.8-0.3c0.4,0,0.7,0.1,1,0.4c0.3,0.3,0.4,0.7,0.4,1.1
		c0,0.6-0.2,1.2-0.5,1.8c-0.3,0.6-0.7,1-1.2,1.4L387.2,117z"/>
	<path fill="#625B53" d="M398,114.9v-10.3h1.6v1.5c0.4-0.5,0.9-0.9,1.6-1.2c0.7-0.3,1.4-0.5,2.1-0.5c2.2,0,3.3,1.1,3.3,3.3v7.2h-1.6
		v-6.7c0-0.9-0.2-1.5-0.6-1.8c-0.4-0.4-1-0.5-1.7-0.5c-0.6,0-1.2,0.2-1.7,0.5c-0.5,0.3-1,0.7-1.3,1.1v7.5H398z"/>
	<path fill="#625B53" d="M409.7,112.5c-0.4-0.8-0.6-1.7-0.6-2.7c0-1,0.2-1.9,0.6-2.7c0.4-0.8,1-1.5,1.8-1.9c0.8-0.5,1.7-0.7,2.7-0.7
		s1.9,0.2,2.7,0.7c0.8,0.5,1.4,1.1,1.8,1.9c0.4,0.8,0.6,1.7,0.6,2.7c0,1-0.2,1.9-0.6,2.7c-0.4,0.8-1,1.5-1.8,2
		c-0.8,0.5-1.7,0.7-2.7,0.7s-1.9-0.2-2.7-0.7C410.7,114,410.1,113.3,409.7,112.5z M410.8,109.8c0,1.1,0.3,2,0.9,2.8s1.4,1.2,2.5,1.2
		c0.7,0,1.3-0.2,1.8-0.6c0.5-0.4,0.9-0.9,1.2-1.4s0.4-1.2,0.4-2c0-0.7-0.1-1.4-0.4-2c-0.3-0.6-0.6-1.1-1.2-1.4
		c-0.5-0.4-1.1-0.6-1.8-0.6c-0.7,0-1.3,0.2-1.8,0.6c-0.5,0.4-0.9,0.9-1.2,1.4C410.9,108.4,410.8,109.1,410.8,109.8z"/>
	<path fill="#625B53" d="M420.4,106v-1.4h1.7v-2.8h1.6v2.8h2.1v1.4h-2.1v6.4c0,0.4,0.1,0.7,0.3,1c0.2,0.2,0.4,0.4,0.8,0.4
		c0.5,0,0.8-0.1,1.1-0.4l0.5,1.2c-0.5,0.4-1.1,0.7-1.9,0.7c-0.7,0-1.3-0.2-1.7-0.6c-0.4-0.4-0.6-1-0.6-1.8V106H420.4z"/>
	<path fill="#625B53" d="M433.6,114.9v-14.2h1.6v9.4l5.4-5.4h2l-4.5,4.6l4.6,5.6h-2l-3.7-4.6l-1.7,1.7v2.9H433.6z"/>
	<path fill="#625B53" d="M444.5,102.9c-0.2-0.2-0.3-0.5-0.3-0.8s0.1-0.6,0.3-0.8c0.2-0.2,0.5-0.3,0.8-0.3c0.3,0,0.5,0.1,0.8,0.3
		c0.2,0.2,0.3,0.5,0.3,0.8s-0.1,0.5-0.3,0.8c-0.2,0.2-0.5,0.3-0.8,0.3C445,103.2,444.7,103.1,444.5,102.9z M444.5,114.9v-10.3h1.6
		v10.3H444.5z"/>
	<path fill="#625B53" d="M449.2,114.9v-14.2h1.6v14.2H449.2z"/>
	<path fill="#625B53" d="M454,112.5c-0.4-0.8-0.6-1.7-0.6-2.7c0-1,0.2-1.9,0.6-2.7c0.4-0.8,1-1.5,1.8-1.9c0.8-0.5,1.7-0.7,2.7-0.7
		c1,0,1.9,0.2,2.7,0.7c0.8,0.5,1.4,1.1,1.8,1.9c0.4,0.8,0.6,1.7,0.6,2.7c0,1-0.2,1.9-0.6,2.7c-0.4,0.8-1,1.5-1.8,2
		c-0.8,0.5-1.7,0.7-2.7,0.7c-1,0-1.9-0.2-2.7-0.7C455,114,454.4,113.3,454,112.5z M455.1,109.8c0,1.1,0.3,2,0.9,2.8
		c0.6,0.8,1.4,1.2,2.5,1.2c0.7,0,1.3-0.2,1.8-0.6c0.5-0.4,0.9-0.9,1.2-1.4s0.4-1.2,0.4-2c0-0.7-0.1-1.4-0.4-2
		c-0.3-0.6-0.6-1.1-1.2-1.4c-0.5-0.4-1.1-0.6-1.8-0.6c-0.7,0-1.3,0.2-1.8,0.6s-0.9,0.9-1.2,1.4C455.2,108.4,455.1,109.1,455.1,109.8
		z"/>
	<path fill="#625B53" d="M466.1,114.9v-10.3h1.6v1.5c0.3-0.4,0.7-0.8,1.4-1.2c0.6-0.4,1.3-0.6,2-0.6c0.7,0,1.3,0.2,1.8,0.5
		c0.5,0.4,0.8,0.8,0.9,1.4c0.3-0.5,0.8-1,1.4-1.3c0.6-0.4,1.3-0.6,2-0.6c0.9,0,1.7,0.3,2.1,0.8c0.5,0.5,0.7,1.3,0.7,2.3v7.4h-1.6v-7
		c0-1.4-0.6-2.1-1.9-2.1c-0.5,0-1,0.2-1.5,0.5c-0.5,0.3-0.9,0.7-1.2,1.1v7.5h-1.6v-7c0-1.4-0.6-2.1-1.9-2.1c-0.5,0-1,0.2-1.5,0.5
		c-0.5,0.3-0.9,0.7-1.2,1.1v7.5H466.1z"/>
	<path fill="#625B53" d="M482.7,109.8c0-1,0.2-1.9,0.6-2.7c0.4-0.8,1-1.5,1.8-1.9c0.8-0.5,1.6-0.7,2.6-0.7c1,0,1.9,0.2,2.7,0.7
		c0.8,0.5,1.3,1.1,1.7,2c0.4,0.8,0.6,1.8,0.6,2.8v0.4h-8.3c0.1,1,0.4,1.9,1.1,2.5c0.7,0.7,1.5,1,2.6,1c0.6,0,1.2-0.1,1.7-0.3
		c0.6-0.2,1-0.6,1.5-1l0.8,1c-1.1,1.1-2.5,1.6-4.1,1.6c-1.5,0-2.8-0.5-3.8-1.5C483.2,112.7,482.7,111.4,482.7,109.8z M484.3,109.1
		h6.7c0-0.4-0.1-0.8-0.2-1.2c-0.1-0.4-0.3-0.7-0.6-1.1c-0.3-0.3-0.6-0.6-1.1-0.8c-0.4-0.2-0.9-0.3-1.5-0.3c-0.5,0-1,0.1-1.4,0.3
		c-0.4,0.2-0.8,0.5-1,0.8c-0.3,0.3-0.5,0.7-0.6,1.1C484.4,108.3,484.4,108.7,484.3,109.1z"/>
	<path fill="#625B53" d="M493.8,106v-1.4h1.7v-2.8h1.6v2.8h2.1v1.4h-2.1v6.4c0,0.4,0.1,0.7,0.3,1c0.2,0.2,0.4,0.4,0.8,0.4
		c0.5,0,0.8-0.1,1.1-0.4l0.5,1.2c-0.5,0.4-1.1,0.7-1.9,0.7c-0.7,0-1.3-0.2-1.7-0.6c-0.4-0.4-0.6-1-0.6-1.8V106H493.8z"/>
	<path fill="#625B53" d="M501.5,114.9v-10.3h1.6v1.6c0.4-0.6,1-1,1.5-1.3c0.6-0.3,1.2-0.5,1.9-0.5v1.6c-0.2,0-0.5,0-0.6,0
		c-0.5,0-1,0.2-1.6,0.5c-0.6,0.3-1,0.7-1.2,1.1v7.3H501.5z"/>
	<path fill="#625B53" d="M507.9,109.8c0-1,0.2-1.9,0.6-2.7c0.4-0.8,1-1.5,1.8-1.9c0.8-0.5,1.6-0.7,2.6-0.7c1,0,1.9,0.2,2.7,0.7
		c0.8,0.5,1.3,1.1,1.7,2c0.4,0.8,0.6,1.8,0.6,2.8v0.4h-8.3c0.1,1,0.4,1.9,1.1,2.5c0.7,0.7,1.5,1,2.6,1c0.6,0,1.2-0.1,1.7-0.3
		c0.6-0.2,1-0.6,1.5-1l0.8,1c-1.1,1.1-2.5,1.6-4.1,1.6c-1.5,0-2.8-0.5-3.8-1.5C508.4,112.7,507.9,111.4,507.9,109.8z M509.5,109.1
		h6.7c0-0.4-0.1-0.8-0.2-1.2c-0.1-0.4-0.3-0.7-0.6-1.1c-0.3-0.3-0.6-0.6-1.1-0.8c-0.4-0.2-0.9-0.3-1.5-0.3c-0.5,0-1,0.1-1.4,0.3
		c-0.4,0.2-0.8,0.5-1,0.8c-0.3,0.3-0.5,0.7-0.6,1.1C509.6,108.3,509.5,108.7,509.5,109.1z"/>
	<path fill="#625B53" d="M519.5,113.5l0.8-1.1c0.4,0.4,0.9,0.8,1.5,1c0.6,0.3,1.2,0.4,1.9,0.4c0.8,0,1.4-0.2,1.8-0.5
		c0.4-0.3,0.6-0.7,0.6-1.3c0-0.3-0.1-0.6-0.4-0.8c-0.2-0.2-0.5-0.4-0.9-0.5c-0.4-0.1-0.8-0.2-1.2-0.4c-0.4-0.1-0.9-0.3-1.3-0.4
		c-0.5-0.1-0.9-0.3-1.2-0.5c-0.4-0.2-0.7-0.5-0.9-0.8c-0.2-0.4-0.4-0.8-0.4-1.3c0-0.8,0.3-1.6,1-2.1c0.7-0.6,1.6-0.8,2.8-0.8
		c1.6,0,2.8,0.5,3.8,1.5l-0.7,1.1c-0.3-0.4-0.7-0.7-1.3-0.9s-1.1-0.4-1.8-0.4c-0.7,0-1.2,0.2-1.7,0.5c-0.4,0.3-0.6,0.7-0.6,1.2
		c0,0.3,0.1,0.6,0.3,0.8c0.2,0.2,0.5,0.4,0.9,0.5c0.4,0.1,0.8,0.2,1.2,0.3c0.4,0.1,0.9,0.3,1.4,0.4c0.5,0.1,0.9,0.3,1.2,0.5
		c0.4,0.2,0.7,0.5,0.9,0.9c0.2,0.4,0.4,0.8,0.4,1.3c0,0.9-0.4,1.6-1.1,2.2c-0.7,0.6-1.7,0.9-3,0.9
		C522,115.2,520.6,114.6,519.5,113.5z"/>
</g>
<ellipse opacity="0.1" fill="#3F3930" cx="429.6" cy="130.2" rx="0.5" ry="0.5"/>
<ellipse opacity="0.1" fill="#3F3930" cx="434.8" cy="107.7" rx="0.5" ry="0.5"/>
<ellipse opacity="0.1" fill="#3F3930" cx="494.3" cy="130.2" rx="0.7" ry="0.8"/>
<ellipse opacity="0.1" fill="#3F3930" cx="544.9" cy="119.8" rx="0.7" ry="0.8"/>
<ellipse opacity="0.1" fill="#3F3930" cx="573.4" cy="129.2" rx="0.7" ry="0.8"/>
<ellipse opacity="0.1" fill="#3F3930" cx="524.2" cy="111" rx="0.5" ry="0.5"/>
</svg>
