<?xml version="1.0" encoding="utf-8"?>
<!-- Generator: Adobe Illustrator 18.0.0, SVG Export Plug-In . SVG Version: 6.00 Build 0)  -->
<!DOCTYPE svg PUBLIC "-//W3C//DTD SVG 1.1//EN" "http://www.w3.org/Graphics/SVG/1.1/DTD/svg11.dtd">
<svg version="1.1" id="Layer_1" xmlns="http://www.w3.org/2000/svg" xmlns:xlink="http://www.w3.org/1999/xlink" x="0px" y="0px"
	 viewBox="21 159.2 373.2 87.6" enable-background="new 21 159.2 373.2 87.6" xml:space="preserve">
<g>
	<g>
		<path fill="#615A52" d="M21.3,197.6h1.5c1.9,6.6,5.9,12.9,13.6,12.9c5.4,0,9.9-4,9.9-9.9c0-14.3-25.2-12.4-25.2-28.5
			c0-6.5,5.2-12.9,14.1-12.9c5.1,0,9.9,2.3,11.1,2.3c0.9,0,1.2-0.6,1.3-1h2v12.3h-1.3c-2.1-6.6-5.9-12-12.9-12c-6.2,0-9,4.9-9,8.7
			c0,12.9,25.3,12.2,25.3,28.3c0,7.8-6.5,14.4-14.9,14.4c-5.6,0-11.9-2.6-12.4-2.6c-0.5,0-0.5,0.1-1,1.3h-2V197.6z"/>
		<path fill="#615A52" d="M76.1,209.8c-2.9,1.1-4.9,1.8-7.5,1.8c-4.6,0-6.7-2.1-6.6-8.9l0.3-19.5l-4.5,0.3v-2.2l3.3-0.1
			c0.9,0,1.2-0.4,1.2-1l0.1-12.4h5.1l-0.1,13.1c4.6-0.2,5.6-0.3,8.7-0.7v2.7c-2.7-0.1-7.9,0-8.4,0.4c-0.4,0.4-0.4,1-0.4,4.3
			l-0.1,12.5c-0.1,7.4,0.9,9.3,4.6,9.3c1.7,0,3.1-0.2,4.3-0.6V209.8z"/>
		<path fill="#615A52" d="M94.6,179.3c11.5,0,14.5,9.1,14.5,15.6c0,8.9-5.4,17.1-15.1,17.1c-7.5,0-15.2-5.3-15.2-16
			C78.8,183.2,87.5,179.3,94.6,179.3z M93.9,210.4c6.6,0,9.6-7.2,9.6-14.8c0-8.2-3.2-14.7-9-14.7c-3.8,0-10.2,3.4-10.2,14.8
			C84.3,203.3,87.9,210.4,93.9,210.4z"/>
		<path fill="#615A52" d="M115.3,209.1l3.8-0.1v-15.2c0-4.9,0-9.8-0.4-10.1c-0.2-0.2-2.4-0.3-3.7-0.4v-2.4l8.7-1.2l0.3,2.6
			c0.1,0.6,0.2,1.2,0.5,1.2c0.5,0,3.6-4.3,8.4-4.3c0.7,0,2,0,2,0.7c0,0.4-0.2,3.4-0.4,3.7c-0.1,0.1-0.4,0.3-5.7,0.3
			c-4.3,0-4.6,0.5-4.6,2.5V209l4.8,0.1v1.8h-13.7L115.3,209.1L115.3,209.1z"/>
		<path fill="#615A52" d="M166.2,182.7c-2.1,0.1-2.4,0.5-3.5,2.9l-12.6,29.7c-2.1,4.7-4.8,11-5.5,12.2c-0.8,1.3-1.8,2-2.6,1.9
			c-1.1-0.1-4.6-0.4-4.6-1.8c0-0.3,0.4-3.2,1.2-3.2c0.3,0,3.2,0.5,3.7,0.5c1.6,0,2.4-1,3.9-4.3l4.1-9.2l-9.7-24.3
			c-1.8-4.6-1.8-4.6-3.8-4.8v-2h12v2c-1.2,0.1-4.1-0.1-4.1,1.2c0,0.4,0.1,0.9,0.5,1.8l7.6,20.2l7.5-18.2c0.9-2.1,1.4-3.4,1.4-3.9
			c0-0.3-0.3-0.6-2.7-0.8v-2.3h7.2L166.2,182.7L166.2,182.7z"/>
		<path fill="#615A52" d="M167,225c5.7-3.7,8.8-8.5,8.8-23.1c0-13.1-0.4-35.1-0.4-39.6l-5.2-0.3v-1.8c1.3,0,6.3,0.1,8.4,0.1
			c2.3,0,7.4-0.1,8.9-0.1v1.8l-5.4,0.3c-0.1,5.9,0.1,31.8,0.1,37.2c0,12.6-2,18-6.5,22.3c-3.7,3.6-6.5,4-8.7,4.3L167,225L167,225z"
			/>
		<path fill="#615A52" d="M209.2,179.3c11.5,0,14.5,9.1,14.5,15.6c0,8.9-5.4,17.1-15.1,17.1c-7.5,0-15.2-5.3-15.2-16
			C193.4,183.2,202.1,179.3,209.2,179.3z M208.5,210.4c6.6,0,9.6-7.2,9.6-14.8c0-8.2-3.2-14.7-9-14.7c-3.8,0-10.2,3.4-10.2,14.8
			C198.9,203.3,202.5,210.4,208.5,210.4z"/>
		<path fill="#615A52" d="M229.6,180.5l8.9-0.9v22.5c0,5.6,1.8,7.6,8,7.6c3.4,0,6.4-0.9,7.2-1.4c0.5-0.3,0.8-0.7,0.8-2.8v-20.5
			c0-1.8-0.4-2-4.6-2.1v-2.4l9.8-0.9v28.5h3.6v2.1c-1.7,0.4-4.8,1.2-6.2,1.2c-2.4,0-1.8-2.1-2.9-2.1c-0.7,0-5.6,2.3-11.4,2.3
			c-6.8,0-9.4-2.9-9.4-11.5v-16.7l-3.7-0.4L229.6,180.5L229.6,180.5z"/>
		<path fill="#615A52" d="M269.9,209.1l3.8-0.1v-15.2c0-4.9,0-9.8-0.4-10.1c-0.2-0.2-2.4-0.3-3.7-0.4v-2.4l8.7-1.2l0.3,2.6
			c0.1,0.6,0.2,1.2,0.5,1.2c0.5,0,3.6-4.3,8.4-4.3c0.7,0,2,0,2,0.7c0,0.4-0.2,3.4-0.4,3.7c-0.1,0.1-0.4,0.3-5.7,0.3
			c-4.3,0-4.6,0.5-4.6,2.5V209l4.8,0.1v1.8H270L269.9,209.1L269.9,209.1z"/>
		<path fill="#615A52" d="M293.9,209.1l3.8-0.1v-25.1l-4-0.1v-2.9l8.7-1c0,2.1,0.1,2.6,0.9,2.6c0.8,0,5.5-2.9,11.5-2.9
			c5.6,0,9.1,2.9,9.1,8.7V209l3.8,0.1v1.8h-12.6v-1.8l3.7-0.1v-20.4c0-4.8-1.1-6.9-6.8-6.9c-2.4,0-6.3,0.7-8.3,1.8
			c-0.4,0.3-0.7,1-0.7,2.8V209l3.7,0.1v1.8h-12.7L293.9,209.1L293.9,209.1z"/>
		<path fill="#615A52" d="M360.7,203.8c-1.3,2.4-4.4,8.2-12.2,8.2c-8.2,0-14.8-6.4-14.8-15.9c0-8.4,5.4-16.8,15.1-16.8
			c9.5,0,11.8,8.2,11.8,10.9c0,1.1-0.1,1.5-1.5,1.5h-19.3c-1,0-1.3,0.2-1.3,2.9c0,6.5,4.2,13.9,12,13.9c5.3,0,7.6-3.2,9-5.4
			L360.7,203.8z M354.2,190.2c1.3,0,1.6-0.2,1.6-0.9c0-1.6-0.8-8.4-6.6-8.4c-6.2,0-9.6,7.2-9.6,9c0,0.2,0.3,0.4,0.8,0.4H354.2z"/>
		<path fill="#615A52" d="M394.2,182.7c-2.1,0.1-2.4,0.5-3.5,2.9l-12.6,29.7c-2.1,4.7-4.8,11-5.5,12.2c-0.8,1.3-1.8,2-2.6,1.9
			c-1.1-0.1-4.6-0.4-4.6-1.8c0-0.3,0.4-3.2,1.2-3.2c0.3,0,3.2,0.5,3.7,0.5c1.6,0,2.4-1,3.9-4.3l4.1-9.2l-9.7-24.3
			c-1.8-4.6-1.8-4.6-3.8-4.8v-2h12.1v2c-1.2,0.1-4.1-0.1-4.1,1.2c0,0.4,0.1,0.9,0.5,1.8l7.6,20.2l7.3-18.2c0.9-2.1,1.4-3.4,1.4-3.9
			c0-0.3-0.3-0.6-2.7-0.8v-2.3h7.2V182.7z"/>
	</g>
</g>
<g>
	<g>
		<g>
			<path fill="#615A52" d="M164.9,243.1v-12.3h4.9c1.2,0,2.1,0.4,2.8,1c0.7,0.7,1,1.6,1,2.6c0,1-0.4,1.9-1,2.6
				c-0.7,0.7-1.6,1.1-2.8,1.1h-3.4v4.8C166.5,243.1,164.9,243.1,164.9,243.1z M166.5,236.9h3.2c0.7,0,1.3-0.2,1.8-0.7
				c0.4-0.4,0.7-1,0.7-1.7c0-0.7-0.2-1.2-0.7-1.7c-0.4-0.4-1-0.7-1.8-0.7h-3.2V236.9z"/>
			<path fill="#615A52" d="M175.2,240.4c0-0.5,0.1-0.9,0.3-1.3c0.1-0.4,0.4-0.7,0.7-1c0.3-0.2,0.6-0.4,1-0.5
				c0.4-0.1,0.7-0.1,1.1-0.1c1.2,0,2.2,0.4,2.9,1.2V237c0-0.6-0.2-1-0.7-1.3c-0.4-0.4-1-0.5-1.6-0.5c-1,0-2,0.4-2.7,1.2l-0.7-1
				c1-1,2.1-1.5,3.5-1.5c0.5,0,1,0.1,1.3,0.1c0.4,0.1,0.7,0.3,1.1,0.5c0.3,0.2,0.6,0.5,0.7,1c0.1,0.4,0.3,0.9,0.3,1.4v6.1h-1.4v-1
				c-0.7,0.8-1.7,1.2-2.9,1.2c-0.4,0-0.7-0.1-1.1-0.2s-0.7-0.3-1-0.6c-0.3-0.2-0.5-0.5-0.7-1C175.3,241.4,175.2,240.9,175.2,240.4z
				 M176.5,240.4c0,0.6,0.2,1,0.6,1.4c0.4,0.4,1,0.5,1.6,0.5c0.5,0,1-0.1,1.4-0.3c0.4-0.2,0.8-0.4,1-0.8v-1.7
				c-0.3-0.4-0.6-0.6-1-0.8c-0.4-0.2-0.9-0.3-1.4-0.3c-0.7,0-1.2,0.1-1.6,0.5C176.8,239.4,176.5,239.9,176.5,240.4z"/>
			<path fill="#615A52" d="M185.4,243.1v-8.9h1.4v1.4c0.4-0.5,0.8-0.9,1.3-1.2c0.5-0.3,1-0.4,1.6-0.4v1.4c-0.2,0-0.4,0-0.5,0
				c-0.4,0-0.9,0.1-1.4,0.4c-0.5,0.3-0.9,0.6-1,1v6.3C186.8,243.1,185.4,243.1,185.4,243.1z"/>
			<path fill="#615A52" d="M190.9,240.4c0-0.5,0.1-0.9,0.3-1.3c0.1-0.4,0.4-0.7,0.7-1c0.3-0.2,0.6-0.4,1-0.5
				c0.4-0.1,0.7-0.1,1.1-0.1c1.2,0,2.2,0.4,2.9,1.2V237c0-0.6-0.2-1-0.7-1.3c-0.4-0.4-1-0.5-1.6-0.5c-1,0-2,0.4-2.7,1.2l-0.7-1
				c1-1,2.1-1.5,3.5-1.5c0.5,0,1,0.1,1.3,0.1c0.4,0.1,0.7,0.3,1.1,0.5c0.3,0.2,0.6,0.5,0.7,1s0.3,0.9,0.3,1.4v6.1h-1.4v-1
				c-0.7,0.8-1.7,1.2-2.9,1.2c-0.4,0-0.7-0.1-1.1-0.2c-0.4-0.1-0.7-0.3-1-0.6c-0.3-0.2-0.5-0.5-0.7-1
				C191,241.4,190.9,240.9,190.9,240.4z M192.3,240.4c0,0.6,0.2,1,0.6,1.4c0.4,0.4,1,0.5,1.6,0.5c0.5,0,1-0.1,1.4-0.3
				c0.4-0.2,0.8-0.4,1-0.8v-1.7c-0.3-0.4-0.6-0.6-1-0.8c-0.4-0.2-0.9-0.3-1.4-0.3c-0.7,0-1.2,0.1-1.6,0.5
				C192.6,239.4,192.3,239.9,192.3,240.4z"/>
			<path fill="#615A52" d="M200.6,238.6c0-1.4,0.4-2.5,1.1-3.4c0.7-0.8,1.7-1.2,2.9-1.2c0.6,0,1.2,0.1,1.7,0.4
				c0.5,0.3,1,0.7,1.3,1.2v-1.3h1.4v8.7c0,0.7-0.1,1.2-0.4,1.8s-0.6,0.9-1,1.2c-0.4,0.3-0.9,0.5-1.3,0.6c-0.5,0.1-1,0.2-1.6,0.2
				c-0.8,0-1.5-0.1-2-0.3c-0.5-0.2-1.1-0.5-1.6-1l0.7-1c0.4,0.4,0.8,0.7,1.2,0.9c0.4,0.2,1,0.3,1.7,0.3c0.8,0,1.5-0.2,2.1-0.7
				c0.5-0.4,0.8-1.1,0.8-1.9v-1.3c-0.4,0.4-0.8,0.9-1.3,1.2c-0.5,0.3-1.1,0.4-1.7,0.4c-1.2,0-2.1-0.4-2.9-1.2
				C201,241.2,200.6,240.1,200.6,238.6z M202,238.6c0,1,0.2,1.8,0.7,2.4c0.5,0.7,1.2,1,2.1,1c0.5,0,1-0.1,1.5-0.4s0.9-0.6,1.1-1
				v-3.9c-0.2-0.4-0.7-0.7-1.1-1c-0.5-0.3-1-0.4-1.5-0.4c-0.9,0-1.6,0.3-2.1,1C202.3,236.8,202,237.7,202,238.6z"/>
			<path fill="#615A52" d="M211.7,243.1v-8.9h1.4v1.4c0.4-0.5,0.8-0.9,1.3-1.2c0.5-0.3,1-0.4,1.6-0.4v1.4c-0.2,0-0.4,0-0.5,0
				c-0.4,0-0.9,0.1-1.4,0.4c-0.5,0.3-0.9,0.6-1,1v6.3C213.1,243.1,211.7,243.1,211.7,243.1z"/>
			<path fill="#615A52" d="M217.2,240.4c0-0.5,0.1-0.9,0.3-1.3c0.1-0.4,0.4-0.7,0.7-1c0.3-0.2,0.6-0.4,1-0.5
				c0.4-0.1,0.7-0.1,1.1-0.1c1.2,0,2.2,0.4,2.9,1.2V237c0-0.6-0.2-1-0.7-1.3c-0.4-0.4-1-0.5-1.6-0.5c-1,0-2,0.4-2.7,1.2l-0.7-1
				c1-1,2.1-1.5,3.5-1.5c0.5,0,1,0.1,1.3,0.1c0.4,0.1,0.7,0.3,1.1,0.5c0.3,0.2,0.6,0.5,0.7,1c0.1,0.4,0.3,0.9,0.3,1.4v6.1h-1.4v-1
				c-0.7,0.8-1.7,1.2-2.9,1.2c-0.4,0-0.7-0.1-1.1-0.2s-0.7-0.3-1-0.6c-0.3-0.2-0.5-0.5-0.7-1C217.3,241.4,217.2,240.9,217.2,240.4z
				 M218.6,240.4c0,0.6,0.2,1,0.6,1.4c0.4,0.4,1,0.5,1.6,0.5c0.5,0,1-0.1,1.4-0.3s0.8-0.4,1-0.8v-1.7c-0.3-0.4-0.6-0.6-1-0.8
				s-0.9-0.3-1.4-0.3c-0.7,0-1.2,0.1-1.6,0.5C218.9,239.4,218.6,239.9,218.6,240.4z"/>
			<path fill="#615A52" d="M227.5,246.5v-12.3h1.4v1.3c0.4-0.4,0.7-0.8,1.3-1.1c0.5-0.3,1.1-0.4,1.7-0.4c1.2,0,2.1,0.4,2.9,1.2
				c0.7,0.8,1.1,2,1.1,3.4s-0.4,2.6-1.1,3.4c-0.7,0.8-1.7,1.2-2.9,1.2c-0.6,0-1.2-0.1-1.7-0.4c-0.5-0.3-1-0.7-1.3-1.2v4.7h-1.4
				V246.5z M228.8,240.7c0.2,0.4,0.6,0.7,1.1,1c0.5,0.3,1,0.4,1.5,0.4c0.9,0,1.5-0.3,2.1-1c0.5-0.7,0.7-1.5,0.7-2.5
				s-0.2-1.8-0.7-2.5c-0.5-0.7-1.2-1-2.1-1c-0.5,0-1,0.1-1.5,0.4c-0.5,0.3-0.9,0.6-1.1,1V240.7z"/>
			<path fill="#615A52" d="M238,243.1v-12.3h1.4v4.6c0.4-0.4,0.8-0.7,1.3-1c0.6-0.3,1.2-0.4,1.8-0.4c1.9,0,2.8,1,2.8,2.9v6.2h-1.4
				v-5.8c0-0.7-0.1-1.2-0.5-1.5c-0.4-0.3-0.8-0.4-1.5-0.4c-0.5,0-1,0.1-1.5,0.4c-0.5,0.3-0.9,0.6-1.1,1v6.5
				C239.4,243.1,238,243.1,238,243.1z"/>
			<path fill="#615A52" d="M247.3,241.9l0.7-1c0.3,0.4,0.7,0.7,1.2,0.9c0.5,0.2,1.1,0.4,1.7,0.4c0.7,0,1.2-0.1,1.5-0.4
				c0.4-0.3,0.6-0.7,0.6-1.1c0-0.3-0.1-0.5-0.3-0.7c-0.2-0.2-0.4-0.4-0.8-0.4c-0.3-0.1-0.7-0.2-1-0.3c-0.4-0.1-0.7-0.2-1.2-0.4
				c-0.4-0.1-0.7-0.2-1.1-0.4c-0.3-0.1-0.6-0.4-0.8-0.7c-0.2-0.3-0.3-0.7-0.3-1.1c0-0.7,0.3-1.3,0.9-1.8c0.6-0.5,1.4-0.7,2.4-0.7
				c1.3,0,2.4,0.4,3.3,1.3l-0.7,1c-0.3-0.4-0.7-0.6-1.1-0.8s-1-0.3-1.5-0.3c-0.6,0-1.1,0.1-1.4,0.4c-0.3,0.3-0.5,0.6-0.5,1
				c0,0.3,0.1,0.5,0.3,0.7c0.2,0.1,0.4,0.3,0.8,0.4c0.4,0.1,0.7,0.2,1,0.3c0.4,0.1,0.8,0.2,1.2,0.3c0.4,0.1,0.7,0.2,1.1,0.4
				c0.3,0.1,0.6,0.4,0.8,0.7c0.2,0.3,0.3,0.7,0.3,1.2c0,0.8-0.3,1.4-0.9,1.9c-0.6,0.5-1.5,0.7-2.6,0.7
				C249.4,243.3,248.2,242.9,247.3,241.9z"/>
			<path fill="#615A52" d="M256.2,244.9c0.3-0.2,0.6-0.4,0.8-0.8c0.2-0.4,0.4-0.7,0.4-1c-0.1,0-0.1,0-0.3,0c-0.2,0-0.4-0.1-0.6-0.3
				c-0.1-0.1-0.2-0.4-0.2-0.7s0.1-0.5,0.3-0.7c0.2-0.2,0.4-0.3,0.7-0.3c0.3,0,0.6,0.1,0.8,0.4s0.4,0.6,0.4,1c0,0.5-0.1,1-0.4,1.5
				c-0.3,0.5-0.7,0.9-1.1,1.2L256.2,244.9z"/>
			<path fill="#615A52" d="M265.6,243.1v-8.9h1.4v1.2c0.4-0.4,0.8-0.7,1.4-1c0.6-0.3,1.2-0.4,1.8-0.4c1.9,0,2.8,1,2.8,2.9v6.2h-1.4
				v-5.8c0-0.7-0.1-1.2-0.5-1.6c-0.4-0.3-0.8-0.4-1.5-0.4c-0.5,0-1,0.1-1.5,0.4c-0.4,0.3-0.9,0.6-1.2,1v6.5L265.6,243.1L265.6,243.1
				z"/>
			<path fill="#615A52" d="M275.7,241.1c-0.4-0.7-0.5-1.5-0.5-2.4c0-0.9,0.1-1.6,0.5-2.4c0.4-0.7,0.9-1.2,1.5-1.7
				c0.7-0.4,1.5-0.7,2.4-0.7c0.9,0,1.7,0.2,2.4,0.7c0.7,0.4,1.2,1,1.5,1.7c0.4,0.7,0.5,1.5,0.5,2.4c0,0.9-0.1,1.6-0.5,2.4
				c-0.4,0.7-0.9,1.2-1.5,1.7c-0.7,0.4-1.5,0.7-2.4,0.7c-0.9,0-1.7-0.2-2.4-0.7S276.1,241.7,275.7,241.1z M276.7,238.7
				c0,1,0.3,1.8,0.8,2.4c0.5,0.7,1.2,1,2.1,1c0.6,0,1.2-0.1,1.6-0.5c0.4-0.3,0.8-0.7,1-1.2c0.2-0.5,0.4-1.1,0.4-1.7
				c0-0.6-0.1-1.2-0.4-1.7c-0.2-0.5-0.6-1-1-1.2s-1-0.5-1.6-0.5c-0.7,0-1.2,0.1-1.6,0.5c-0.4,0.3-0.8,0.7-1,1.2
				C276.7,237.5,276.7,238.1,276.7,238.7z"/>
			<path fill="#615A52" d="M285,235.5v-1.2h1.5v-2.4h1.4v2.4h1.8v1.2h-1.8v5.5c0,0.4,0.1,0.7,0.2,0.8c0.1,0.1,0.4,0.3,0.7,0.3
				c0.4,0,0.7-0.1,1-0.4l0.4,1c-0.4,0.4-1,0.6-1.6,0.6c-0.7,0-1.1-0.1-1.5-0.5s-0.5-0.9-0.5-1.5v-5.8
				C286.4,235.5,285,235.5,285,235.5z"/>
			<path fill="#615A52" d="M296.4,243.1v-12.3h1.4v8.1l4.6-4.7h1.8l-3.9,4l4,4.8h-1.8l-3.2-4l-1.5,1.5v2.6L296.4,243.1L296.4,243.1z
				"/>
			<path fill="#615A52" d="M305.8,232.8c-0.1-0.1-0.3-0.4-0.3-0.7s0.1-0.4,0.3-0.7c0.1-0.1,0.4-0.3,0.7-0.3c0.2,0,0.4,0.1,0.7,0.3
				c0.2,0.2,0.3,0.4,0.3,0.7c0,0.2-0.1,0.4-0.3,0.7c-0.2,0.2-0.4,0.3-0.7,0.3C306.2,233,306,232.9,305.8,232.8z M305.8,243.1v-8.9
				h1.4v8.9H305.8z"/>
			<path fill="#615A52" d="M309.9,243.1v-12.3h1.4v12.3C311.3,243.1,309.9,243.1,309.9,243.1z"/>
			<path fill="#615A52" d="M314.1,241.1c-0.4-0.7-0.5-1.5-0.5-2.4c0-0.9,0.1-1.6,0.5-2.4c0.4-0.7,0.9-1.2,1.5-1.7
				c0.7-0.4,1.5-0.7,2.4-0.7s1.7,0.2,2.4,0.7c0.7,0.4,1.2,1,1.5,1.7c0.4,0.7,0.5,1.5,0.5,2.4c0,0.9-0.1,1.6-0.5,2.4
				c-0.4,0.7-0.9,1.2-1.5,1.7c-0.7,0.4-1.5,0.7-2.4,0.7s-1.7-0.2-2.4-0.7S314.4,241.7,314.1,241.1z M314.9,238.7
				c0,1,0.3,1.8,0.8,2.4c0.5,0.7,1.2,1,2.1,1c0.6,0,1.2-0.1,1.6-0.5c0.4-0.3,0.8-0.7,1-1.2c0.2-0.5,0.4-1.1,0.4-1.7
				c0-0.6-0.1-1.2-0.4-1.7s-0.6-1-1-1.2s-1-0.5-1.6-0.5s-1.2,0.1-1.6,0.5c-0.4,0.3-0.8,0.7-1,1.2
				C315.1,237.5,314.9,238.1,314.9,238.7z"/>
			<path fill="#615A52" d="M324.6,243.1v-8.9h1.4v1.2c0.2-0.4,0.7-0.7,1.2-1c0.5-0.3,1.1-0.5,1.7-0.5c0.7,0,1.2,0.1,1.5,0.4
				c0.4,0.3,0.7,0.7,0.8,1.2c0.3-0.4,0.7-0.8,1.2-1.2s1.1-0.5,1.8-0.5c0.8,0,1.4,0.2,1.8,0.7s0.7,1.1,0.7,2v6.4h-1.4v-6
				c0-1.2-0.5-1.8-1.6-1.8c-0.4,0-0.9,0.1-1.3,0.4c-0.4,0.3-0.8,0.6-1,1v6.5h-1.4v-6c0-1.2-0.5-1.8-1.6-1.8c-0.4,0-0.9,0.1-1.3,0.4
				c-0.4,0.3-0.8,0.6-1,1v6.5h-1.4V243.1z"/>
			<path fill="#615A52" d="M338.9,238.7c0-0.9,0.2-1.6,0.6-2.4c0.4-0.7,0.9-1.2,1.5-1.7c0.7-0.4,1.4-0.6,2.3-0.6s1.6,0.2,2.3,0.7
				c0.7,0.4,1.2,1,1.5,1.7c0.4,0.7,0.5,1.5,0.5,2.4v0.4h-7.2c0.1,0.9,0.4,1.6,1,2.2c0.6,0.6,1.3,0.9,2.3,0.9c0.5,0,1-0.1,1.5-0.3
				c0.5-0.2,0.9-0.5,1.2-0.8l0.7,0.9c-1,1-2.1,1.4-3.5,1.4c-1.3,0-2.4-0.4-3.2-1.3C339.4,241.3,338.9,240.1,338.9,238.7z
				 M340.3,238.1h5.8c0-0.4-0.1-0.7-0.2-1c-0.1-0.4-0.3-0.7-0.5-1c-0.2-0.3-0.5-0.5-0.9-0.7c-0.4-0.1-0.8-0.3-1.3-0.3
				c-0.4,0-0.9,0.1-1.2,0.3c-0.4,0.1-0.7,0.4-0.9,0.7c-0.2,0.3-0.4,0.6-0.5,1C340.4,237.5,340.3,237.8,340.3,238.1z"/>
			<path fill="#615A52" d="M348.5,235.5v-1.2h1.5v-2.4h1.4v2.4h1.8v1.2h-1.8v5.5c0,0.4,0.1,0.7,0.2,0.8c0.1,0.1,0.4,0.3,0.7,0.3
				c0.4,0,0.7-0.1,1-0.4l0.4,1c-0.4,0.4-1,0.6-1.6,0.6c-0.7,0-1.1-0.1-1.5-0.5s-0.5-0.9-0.5-1.5v-5.8
				C350,235.5,348.5,235.5,348.5,235.5z"/>
			<path fill="#615A52" d="M355.1,243.1v-8.9h1.4v1.4c0.4-0.5,0.8-0.9,1.3-1.2c0.5-0.3,1-0.4,1.6-0.4v1.4c-0.2,0-0.4,0-0.5,0
				c-0.4,0-0.9,0.1-1.4,0.4s-0.9,0.6-1,1v6.3C356.5,243.1,355.1,243.1,355.1,243.1z"/>
			<path fill="#615A52" d="M360.6,238.7c0-0.9,0.2-1.6,0.6-2.4c0.4-0.7,0.9-1.2,1.5-1.7c0.7-0.4,1.4-0.6,2.3-0.6s1.6,0.2,2.3,0.7
				c0.7,0.4,1.2,1,1.5,1.7c0.4,0.7,0.5,1.5,0.5,2.4v0.4h-7.2c0.1,0.9,0.4,1.6,1,2.2c0.6,0.6,1.3,0.9,2.3,0.9c0.5,0,1-0.1,1.5-0.3
				c0.5-0.2,0.9-0.5,1.2-0.8l0.7,0.9c-1,1-2.1,1.4-3.5,1.4c-1.3,0-2.4-0.4-3.2-1.3C361.1,241.3,360.6,240.1,360.6,238.7z
				 M362.1,238.1h5.8c0-0.4-0.1-0.7-0.2-1c-0.1-0.4-0.3-0.7-0.5-1c-0.2-0.3-0.5-0.5-0.9-0.7c-0.4-0.1-0.8-0.3-1.3-0.3
				c-0.4,0-0.9,0.1-1.2,0.3c-0.4,0.1-0.7,0.4-0.9,0.7c-0.2,0.3-0.4,0.6-0.5,1C362.2,237.5,362.1,237.8,362.1,238.1z"/>
			<path fill="#615A52" d="M370.8,241.9l0.7-1c0.3,0.4,0.7,0.7,1.2,0.9c0.5,0.2,1.1,0.4,1.7,0.4c0.7,0,1.2-0.1,1.5-0.4
				c0.4-0.3,0.6-0.7,0.6-1.1c0-0.3-0.1-0.5-0.3-0.7c-0.2-0.2-0.4-0.4-0.8-0.4c-0.3-0.1-0.7-0.2-1-0.3c-0.4-0.1-0.7-0.2-1.2-0.4
				c-0.4-0.1-0.7-0.2-1.1-0.4c-0.3-0.1-0.6-0.4-0.8-0.7c-0.2-0.3-0.3-0.7-0.3-1.1c0-0.7,0.3-1.3,0.9-1.8c0.6-0.5,1.4-0.7,2.4-0.7
				c1.3,0,2.4,0.4,3.3,1.3l-0.7,1c-0.3-0.4-0.7-0.6-1.1-0.8c-0.4-0.2-1-0.3-1.5-0.3c-0.6,0-1.1,0.1-1.4,0.4s-0.5,0.6-0.5,1
				c0,0.3,0.1,0.5,0.3,0.7c0.2,0.1,0.4,0.3,0.8,0.4c0.4,0.1,0.7,0.2,1,0.3c0.4,0.1,0.8,0.2,1.2,0.3c0.4,0.1,0.7,0.2,1.1,0.4
				c0.3,0.1,0.6,0.4,0.8,0.7c0.2,0.3,0.3,0.7,0.3,1.2c0,0.8-0.3,1.4-0.9,1.9c-0.6,0.5-1.5,0.7-2.6,0.7
				C372.8,243.3,371.6,242.9,370.8,241.9z"/>
		</g>
	</g>
</g>
</svg>
