<?xml version="1.0" encoding="utf-8"?>
<!-- Generator: Adobe Illustrator 18.0.0, SVG Export Plug-In . SVG Version: 6.00 Build 0)  -->
<!DOCTYPE svg PUBLIC "-//W3C//DTD SVG 1.1//EN" "http://www.w3.org/Graphics/SVG/1.1/DTD/svg11.dtd">
<svg version="1.1" id="Layer_1" xmlns="http://www.w3.org/2000/svg" xmlns:xlink="http://www.w3.org/1999/xlink" x="0px" y="0px"
	 viewBox="0 0 523.6 129.7" enable-background="new 0 0 523.6 129.7" xml:space="preserve">
<g>
	<path fill="#231F20" d="M8.3,59.1h2c2.6,9,8.1,17.6,18.5,17.6c7.4,0,13.5-5.4,13.5-13.5C42.3,43.8,8,46.3,8,24.4
		c0-8.9,7.1-17.6,19.2-17.6c7,0,13.5,3.1,15.1,3.1c1.2,0,1.6-0.8,1.8-1.4h2.7v16.7h-1.8c-2.9-9-8-16.3-17.6-16.3
		c-8.4,0-12.3,6.7-12.3,11.9c0,17.5,34.5,16.6,34.5,38.5c0,10.6-8.9,19.6-20.3,19.6c-7.6,0-16.2-3.5-16.9-3.5
		c-0.7,0-0.7,0.2-1.4,1.8H8.3V59.1z"/>
	<path fill="#231F20" d="M82.9,75.8c-4,1.5-6.7,2.5-10.2,2.5c-6.2,0-9.1-2.9-9-12.1l0.4-26.6L58,40v-3l4.5-0.2
		c1.2,0,1.6-0.5,1.6-1.4l0.2-16.9h7l-0.2,17.8c6.3-0.3,7.6-0.4,11.9-1v3.7c-3.7-0.1-10.8,0-11.4,0.6S71,40.9,71,45.5l-0.2,17
		C70.6,72.6,72,75.1,77,75.1c2.3,0,4.2-0.3,5.9-0.8V75.8z"/>
	<path fill="#231F20" d="M108.1,34.2c15.6,0,19.7,12.4,19.7,21.2c0,12.1-7.4,23.3-20.5,23.3c-10.2,0-20.7-7.2-20.7-21.8
		C86.6,39.5,98.5,34.2,108.1,34.2z M107.2,76.5c9,0,13.1-9.8,13.1-20.2c0-11.2-4.4-20-12.3-20c-5.2,0-13.9,4.6-13.9,20.2
		C94.1,66.9,99,76.5,107.2,76.5z"/>
	<path fill="#231F20" d="M136.3,74.8l5.2-0.1V54c0-6.7,0-13.3-0.5-13.8c-0.3-0.3-3.2-0.4-5-0.5v-3.3l11.9-1.6l0.4,3.6
		c0.1,0.8,0.3,1.7,0.7,1.7c0.7,0,4.9-5.9,11.5-5.9c1,0,2.7,0,2.7,1c0,0.6-0.3,4.6-0.6,5.1c-0.1,0.2-0.6,0.4-7.8,0.4
		c-5.9,0-6.2,0.7-6.2,3.4v30.6l6.5,0.1v2.4h-18.7V74.8z"/>
	<path fill="#231F20" d="M205.6,38.9c-2.8,0.2-3.3,0.7-4.7,4l-17.1,40.5c-2.8,6.4-6.6,15-7.5,16.6c-1.1,1.8-2.5,2.7-3.6,2.6
		c-1.5-0.1-6.3-0.5-6.3-2.5c0-0.4,0.6-4.3,1.6-4.3c0.4,0,4.3,0.7,5.1,0.7c2.2,0,3.3-1.3,5.3-5.8l5.6-12.5l-13.2-33.1
		c-2.5-6.2-2.5-6.2-5.2-6.6v-2.7H182v2.7c-1.7,0.2-5.6-0.1-5.6,1.6c0,0.5,0.2,1.2,0.7,2.5l10.4,27.5l10.2-24.8
		c1.2-2.8,1.9-4.6,1.9-5.3c0-0.4-0.4-0.8-3.7-1.1v-3.1h9.8V38.9z"/>
	<path fill="#231F20" d="M206.7,96.5c7.8-5.1,12-11.6,12-31.4c0-17.9-0.6-47.8-0.6-53.9l-7.1-0.4V8.3c1.8,0,8.6,0.2,11.4,0.2
		c3.1,0,10.1-0.2,12.1-0.2v2.5l-7.4,0.4c-0.1,8,0.2,43.3,0.2,50.6c0,17.1-2.7,24.5-8.8,30.4c-5,4.9-8.9,5.5-11.8,5.9V96.5z"/>
	<path fill="#231F20" d="M264.1,34.2c15.6,0,19.7,12.4,19.7,21.2c0,12.1-7.4,23.3-20.5,23.3c-10.2,0-20.7-7.2-20.7-21.8
		C242.6,39.5,254.5,34.2,264.1,34.2z M263.2,76.5c9,0,13.1-9.8,13.1-20.2c0-11.2-4.4-20-12.3-20c-5.2,0-13.9,4.6-13.9,20.2
		C250.1,66.9,255,76.5,263.2,76.5z"/>
	<path fill="#231F20" d="M291.9,35.9l12.1-1.2v30.6c0,7.6,2.4,10.4,10.9,10.4c4.6,0,8.7-1.2,9.8-1.9c0.7-0.4,1.1-1,1.1-3.8V42.1
		c0-2.5-0.5-2.7-6.3-2.8v-3.3l13.3-1.2v38.8h4.9v2.9c-2.3,0.5-6.6,1.6-8.5,1.6c-3.2,0-2.5-2.9-3.9-2.9c-0.9,0-7.6,3.1-15.5,3.1
		c-9.3,0-12.8-3.9-12.8-15.7V39.8l-5-0.5V35.9z"/>
	<path fill="#231F20" d="M346.8,74.8l5.2-0.1V54c0-6.7,0-13.3-0.5-13.8c-0.3-0.3-3.2-0.4-5-0.5v-3.3l11.9-1.6l0.4,3.6
		c0.1,0.8,0.3,1.7,0.7,1.7c0.7,0,4.9-5.9,11.5-5.9c1,0,2.7,0,2.7,1c0,0.6-0.3,4.6-0.6,5.1c-0.1,0.2-0.6,0.4-7.8,0.4
		c-5.9,0-6.2,0.7-6.2,3.4v30.6l6.5,0.1v2.4h-18.7V74.8z"/>
	<path fill="#231F20" d="M379.5,74.8l5.2-0.1V40.5l-5.5-0.2v-3.9L391,35c0,2.8,0.2,3.6,1.2,3.6c1.1,0,7.5-4,15.7-4
		c7.6,0,12.4,3.9,12.4,11.9v28.2l5.2,0.1v2.4h-17.2v-2.4l5-0.1V46.9c0-6.6-1.5-9.4-9.3-9.4c-3.3,0-8.6,0.9-11.3,2.5
		c-0.6,0.4-1,1.3-1,3.8v30.8l5.1,0.1v2.4h-17.3V74.8z"/>
	<path fill="#231F20" d="M470.4,67.6c-1.8,3.2-6,11.1-16.6,11.1c-11.2,0-20.2-8.7-20.2-21.6c0-11.4,7.4-22.9,20.6-22.9
		c12.9,0,16.1,11.2,16.1,14.9c0,1.5-0.2,2.1-2,2.1h-26.3c-1.3,0-1.8,0.3-1.8,3.9c0,8.9,5.7,18.9,16.4,18.9c7.2,0,10.3-4.4,12.3-7.3
		L470.4,67.6z M461.5,49c1.8,0,2.2-0.3,2.2-1.2c0-2.2-1.1-11.5-9-11.5c-8.5,0-13.1,9.8-13.1,12.2c0,0.3,0.4,0.5,1.1,0.5H461.5z"/>
	<path fill="#231F20" d="M516,38.9c-2.8,0.2-3.3,0.7-4.7,4l-17.1,40.5c-2.8,6.4-6.6,15-7.5,16.6c-1.1,1.8-2.5,2.7-3.6,2.6
		c-1.5-0.1-6.3-0.5-6.3-2.5c0-0.4,0.6-4.3,1.6-4.3c0.4,0,4.3,0.7,5.1,0.7c2.2,0,3.3-1.3,5.3-5.8l5.6-12.5l-13.2-33.1
		c-2.5-6.2-2.5-6.2-5.2-6.6v-2.7h16.5v2.7c-1.7,0.2-5.6-0.1-5.6,1.6c0,0.5,0.2,1.2,0.7,2.5l10.4,27.5L508,45.3
		c1.2-2.8,1.9-4.6,1.9-5.3c0-0.4-0.4-0.8-3.7-1.1v-3.1h9.8V38.9z"/>
</g>
<g>
	<g>
		<path fill="#231F20" d="M203.9,121.1v-16.7h6.7c1.6,0,2.9,0.5,3.8,1.4c0.9,1,1.4,2.2,1.4,3.6c0,1.4-0.5,2.6-1.4,3.6
			c-0.9,1-2.2,1.5-3.8,1.5H206v6.6H203.9z M206,112.7h4.4c1,0,1.8-0.3,2.4-0.9c0.6-0.6,0.9-1.4,0.9-2.3s-0.3-1.7-0.9-2.3
			c-0.6-0.6-1.4-0.9-2.4-0.9H206V112.7z"/>
		<path fill="#231F20" d="M217.9,117.4c0-0.7,0.1-1.2,0.4-1.8c0.2-0.5,0.6-0.9,1-1.3c0.4-0.3,0.8-0.6,1.3-0.7c0.5-0.2,1-0.2,1.5-0.2
			c1.7,0,3,0.5,4,1.6v-2.2c0-0.8-0.3-1.4-0.9-1.8c-0.6-0.5-1.3-0.7-2.2-0.7c-1.4,0-2.7,0.6-3.7,1.7l-0.9-1.3c1.3-1.3,2.9-2,4.8-2
			c0.7,0,1.3,0.1,1.8,0.2c0.5,0.2,1,0.4,1.5,0.7c0.4,0.3,0.8,0.7,1,1.3s0.4,1.2,0.4,1.9v8.3h-1.9v-1.4c-1,1.1-2.3,1.7-4,1.7
			c-0.5,0-1-0.1-1.5-0.3s-0.9-0.4-1.3-0.8c-0.4-0.3-0.7-0.7-1-1.3C218,118.7,217.9,118.1,217.9,117.4z M219.7,117.4
			c0,0.8,0.3,1.4,0.8,1.9c0.6,0.5,1.3,0.7,2.2,0.7c0.7,0,1.3-0.1,1.9-0.4c0.6-0.3,1.1-0.6,1.4-1.1v-2.3c-0.4-0.5-0.8-0.8-1.4-1.1
			c-0.6-0.3-1.2-0.4-1.9-0.4c-0.9,0-1.6,0.2-2.2,0.7C220,116.1,219.7,116.7,219.7,117.4z"/>
		<path fill="#231F20" d="M231.7,121.1v-12.1h1.9v1.9c0.5-0.7,1.1-1.2,1.8-1.6s1.4-0.6,2.2-0.6v1.9c-0.3,0-0.5,0-0.7,0
			c-0.6,0-1.2,0.2-1.9,0.6s-1.2,0.8-1.4,1.3v8.6H231.7z"/>
		<path fill="#231F20" d="M239.3,117.4c0-0.7,0.1-1.2,0.4-1.8c0.2-0.5,0.6-0.9,1-1.3c0.4-0.3,0.8-0.6,1.3-0.7c0.5-0.2,1-0.2,1.5-0.2
			c1.7,0,3,0.5,4,1.6v-2.2c0-0.8-0.3-1.4-0.9-1.8c-0.6-0.5-1.3-0.7-2.2-0.7c-1.4,0-2.7,0.6-3.7,1.7l-0.9-1.3c1.3-1.3,2.9-2,4.8-2
			c0.7,0,1.3,0.1,1.8,0.2c0.5,0.2,1,0.4,1.5,0.7c0.4,0.3,0.8,0.7,1,1.3s0.4,1.2,0.4,1.9v8.3h-1.9v-1.4c-1,1.1-2.3,1.7-4,1.7
			c-0.5,0-1-0.1-1.5-0.3s-0.9-0.4-1.3-0.8c-0.4-0.3-0.7-0.7-1-1.3C239.4,118.7,239.3,118.1,239.3,117.4z M241.2,117.4
			c0,0.8,0.3,1.4,0.8,1.9c0.6,0.5,1.3,0.7,2.2,0.7c0.7,0,1.3-0.1,1.9-0.4c0.6-0.3,1.1-0.6,1.4-1.1v-2.3c-0.4-0.5-0.8-0.8-1.4-1.1
			c-0.6-0.3-1.2-0.4-1.9-0.4c-0.9,0-1.6,0.2-2.2,0.7C241.5,116.1,241.2,116.7,241.2,117.4z"/>
		<path fill="#231F20" d="M252.5,115c0-1.9,0.5-3.4,1.5-4.6c1-1.1,2.3-1.7,3.9-1.7c0.8,0,1.6,0.2,2.3,0.6c0.7,0.4,1.3,0.9,1.8,1.6
			v-1.8h1.9V121c0,0.9-0.2,1.7-0.5,2.4s-0.8,1.2-1.3,1.6c-0.6,0.4-1.2,0.7-1.8,0.8c-0.7,0.2-1.4,0.3-2.2,0.3c-1.1,0-2-0.1-2.7-0.4
			c-0.7-0.3-1.5-0.7-2.2-1.4l1-1.4c0.5,0.6,1.1,1,1.7,1.2c0.6,0.3,1.4,0.4,2.3,0.4c1.1,0,2-0.3,2.8-0.9c0.7-0.6,1.1-1.5,1.1-2.6
			v-1.8c-0.5,0.6-1.1,1.2-1.8,1.6s-1.5,0.6-2.3,0.6c-1.6,0-2.9-0.6-3.9-1.7C253,118.5,252.5,117,252.5,115z M254.4,115
			c0,1.4,0.3,2.5,1,3.3c0.7,0.9,1.6,1.3,2.8,1.3c0.7,0,1.4-0.2,2.1-0.6c0.7-0.4,1.2-0.8,1.5-1.4v-5.3c-0.3-0.5-0.9-1-1.5-1.4
			c-0.7-0.4-1.4-0.6-2.1-0.6c-1.2,0-2.2,0.4-2.8,1.3S254.4,113.7,254.4,115z"/>
		<path fill="#231F20" d="M267.5,121.1v-12.1h1.9v1.9c0.5-0.7,1.1-1.2,1.8-1.6s1.4-0.6,2.2-0.6v1.9c-0.3,0-0.5,0-0.7,0
			c-0.6,0-1.2,0.2-1.9,0.6s-1.2,0.8-1.4,1.3v8.6H267.5z"/>
		<path fill="#231F20" d="M275.1,117.4c0-0.7,0.1-1.2,0.4-1.8c0.2-0.5,0.6-0.9,1-1.3c0.4-0.3,0.8-0.6,1.3-0.7c0.5-0.2,1-0.2,1.5-0.2
			c1.7,0,3,0.5,4,1.6v-2.2c0-0.8-0.3-1.4-0.9-1.8c-0.6-0.5-1.3-0.7-2.2-0.7c-1.4,0-2.7,0.6-3.7,1.7l-0.9-1.3c1.3-1.3,2.9-2,4.8-2
			c0.7,0,1.3,0.1,1.8,0.2c0.5,0.2,1,0.4,1.5,0.7c0.4,0.3,0.8,0.7,1,1.3s0.4,1.2,0.4,1.9v8.3h-1.9v-1.4c-1,1.1-2.3,1.7-4,1.7
			c-0.5,0-1-0.1-1.5-0.3s-0.9-0.4-1.3-0.8c-0.4-0.3-0.7-0.7-1-1.3C275.2,118.7,275.1,118.1,275.1,117.4z M277,117.4
			c0,0.8,0.3,1.4,0.8,1.9c0.6,0.5,1.3,0.7,2.2,0.7c0.7,0,1.3-0.1,1.9-0.4c0.6-0.3,1.1-0.6,1.4-1.1v-2.3c-0.4-0.5-0.8-0.8-1.4-1.1
			c-0.6-0.3-1.2-0.4-1.9-0.4c-0.9,0-1.6,0.2-2.2,0.7C277.3,116.1,277,116.7,277,117.4z"/>
		<path fill="#231F20" d="M289,125.7v-16.7h1.9v1.8c0.5-0.6,1-1.1,1.8-1.5c0.7-0.4,1.5-0.6,2.3-0.6c1.6,0,2.9,0.6,3.9,1.7
			c1,1.1,1.5,2.7,1.5,4.6c0,1.9-0.5,3.5-1.5,4.6s-2.3,1.7-3.9,1.7c-0.8,0-1.6-0.2-2.3-0.6c-0.7-0.4-1.3-0.9-1.8-1.6v6.4H289z
			 M290.8,117.8c0.3,0.5,0.8,1,1.5,1.4c0.7,0.4,1.4,0.6,2.1,0.6c1.2,0,2.1-0.4,2.8-1.3c0.7-0.9,1-2,1-3.4s-0.3-2.5-1-3.4
			c-0.7-0.9-1.6-1.3-2.8-1.3c-0.7,0-1.4,0.2-2.1,0.6c-0.7,0.4-1.2,0.8-1.5,1.4V117.8z"/>
		<path fill="#231F20" d="M303.3,121.1v-16.7h1.9v6.3c0.5-0.6,1.1-1,1.8-1.4c0.8-0.4,1.6-0.6,2.5-0.6c2.6,0,3.8,1.3,3.8,3.9v8.5
			h-1.9v-7.9c0-1-0.2-1.7-0.7-2.1s-1.1-0.6-2-0.6c-0.7,0-1.4,0.2-2,0.5c-0.7,0.4-1.2,0.8-1.5,1.3v8.8H303.3z"/>
		<path fill="#231F20" d="M316,119.5l0.9-1.3c0.4,0.5,1,0.9,1.7,1.2s1.5,0.5,2.3,0.5c0.9,0,1.6-0.2,2.1-0.6c0.5-0.4,0.8-0.9,0.8-1.5
			c0-0.4-0.1-0.7-0.4-1c-0.3-0.3-0.6-0.5-1.1-0.6c-0.4-0.1-0.9-0.3-1.4-0.4s-1-0.3-1.6-0.5c-0.5-0.2-1-0.3-1.5-0.6
			c-0.4-0.2-0.8-0.6-1.1-1c-0.3-0.4-0.4-0.9-0.4-1.5c0-1,0.4-1.8,1.2-2.5c0.8-0.7,1.9-1,3.3-1c1.8,0,3.3,0.6,4.5,1.8l-0.9,1.3
			c-0.4-0.5-0.9-0.8-1.5-1.1c-0.6-0.3-1.3-0.4-2.1-0.4c-0.8,0-1.5,0.2-1.9,0.6s-0.7,0.8-0.7,1.4c0,0.4,0.1,0.7,0.4,0.9
			c0.3,0.2,0.6,0.4,1.1,0.6s0.9,0.3,1.4,0.4c0.5,0.1,1.1,0.3,1.6,0.4c0.5,0.2,1,0.3,1.5,0.6c0.4,0.2,0.8,0.6,1.1,1
			c0.3,0.4,0.4,1,0.4,1.6c0,1.1-0.4,1.9-1.2,2.6c-0.8,0.7-2,1-3.5,1C318.9,121.4,317.2,120.8,316,119.5z"/>
		<path fill="#231F20" d="M328.2,123.5c0.4-0.3,0.8-0.6,1.1-1.1s0.5-0.9,0.5-1.3c-0.1,0-0.2,0-0.4,0c-0.3,0-0.6-0.1-0.8-0.4
			c-0.2-0.2-0.3-0.5-0.3-0.9c0-0.4,0.1-0.7,0.4-0.9c0.3-0.3,0.6-0.4,0.9-0.4c0.4,0,0.8,0.2,1.1,0.5c0.3,0.3,0.5,0.8,0.5,1.3
			c0,0.7-0.2,1.4-0.6,2.1c-0.4,0.7-0.9,1.2-1.5,1.7L328.2,123.5z"/>
		<path fill="#231F20" d="M340.9,121.1v-12.1h1.9v1.7c0.5-0.6,1.1-1,1.9-1.4c0.8-0.4,1.6-0.6,2.5-0.6c2.6,0,3.8,1.3,3.8,3.9v8.5
			h-1.9v-7.9c0-1-0.2-1.7-0.7-2.2c-0.5-0.4-1.1-0.6-2-0.6c-0.7,0-1.4,0.2-2,0.5c-0.6,0.4-1.2,0.8-1.6,1.3v8.8H340.9z"/>
		<path fill="#231F20" d="M354.7,118.3c-0.5-1-0.7-2-0.7-3.2c0-1.2,0.2-2.2,0.7-3.2c0.5-1,1.2-1.7,2.1-2.3c0.9-0.6,2-0.9,3.2-0.9
			s2.3,0.3,3.2,0.9c0.9,0.6,1.6,1.3,2.1,2.3c0.5,1,0.7,2,0.7,3.2c0,1.2-0.2,2.2-0.7,3.2c-0.5,1-1.2,1.7-2.1,2.3
			c-0.9,0.6-2,0.9-3.2,0.9s-2.3-0.3-3.2-0.9C355.9,120,355.2,119.2,354.7,118.3z M356,115.1c0,1.3,0.4,2.4,1.1,3.3
			c0.7,0.9,1.7,1.4,2.9,1.4c0.8,0,1.6-0.2,2.2-0.7c0.6-0.4,1.1-1,1.4-1.7c0.3-0.7,0.5-1.5,0.5-2.3c0-0.8-0.2-1.6-0.5-2.3
			s-0.8-1.3-1.4-1.7c-0.6-0.4-1.3-0.7-2.2-0.7s-1.6,0.2-2.2,0.7c-0.6,0.4-1.1,1-1.4,1.7C356.1,113.5,356,114.3,356,115.1z"/>
		<path fill="#231F20" d="M367.3,110.7v-1.6h2v-3.3h1.9v3.3h2.5v1.6h-2.5v7.5c0,0.5,0.1,0.9,0.3,1.1s0.5,0.4,0.9,0.4
			c0.6,0,1-0.2,1.3-0.5l0.5,1.4c-0.5,0.5-1.3,0.8-2.2,0.8c-0.9,0-1.5-0.2-2-0.7c-0.5-0.5-0.7-1.2-0.7-2.1v-7.9H367.3z"/>
		<path fill="#231F20" d="M382.8,121.1v-16.7h1.9v11l6.3-6.4h2.4l-5.3,5.5l5.4,6.6H391l-4.3-5.4l-2,2v3.5H382.8z"/>
		<path fill="#231F20" d="M395.7,107c-0.2-0.2-0.4-0.5-0.4-0.9c0-0.4,0.1-0.6,0.4-0.9c0.2-0.2,0.5-0.4,0.9-0.4
			c0.3,0,0.6,0.1,0.9,0.4s0.4,0.5,0.4,0.9c0,0.3-0.1,0.6-0.4,0.9s-0.5,0.4-0.9,0.4C396.2,107.3,395.9,107.2,395.7,107z M395.6,121.1
			v-12.1h1.9v12.1H395.6z"/>
		<path fill="#231F20" d="M401.3,121.1v-16.7h1.9v16.7H401.3z"/>
		<path fill="#231F20" d="M406.9,118.3c-0.5-1-0.7-2-0.7-3.2c0-1.2,0.2-2.2,0.7-3.2c0.5-1,1.2-1.7,2.1-2.3c0.9-0.6,2-0.9,3.2-0.9
			s2.3,0.3,3.2,0.9c0.9,0.6,1.6,1.3,2.1,2.3c0.5,1,0.7,2,0.7,3.2c0,1.2-0.2,2.2-0.7,3.2c-0.5,1-1.2,1.7-2.1,2.3
			c-0.9,0.6-2,0.9-3.2,0.9s-2.3-0.3-3.2-0.9C408.1,120,407.4,119.2,406.9,118.3z M408.1,115.1c0,1.3,0.4,2.4,1.1,3.3
			c0.7,0.9,1.7,1.4,2.9,1.4c0.8,0,1.6-0.2,2.2-0.7c0.6-0.4,1.1-1,1.4-1.7c0.3-0.7,0.5-1.5,0.5-2.3c0-0.8-0.2-1.6-0.5-2.3
			s-0.8-1.3-1.4-1.7c-0.6-0.4-1.3-0.7-2.2-0.7s-1.6,0.2-2.2,0.7c-0.6,0.4-1.1,1-1.4,1.7C408.3,113.5,408.1,114.3,408.1,115.1z"/>
		<path fill="#231F20" d="M421.2,121.1v-12.1h1.9v1.7c0.3-0.5,0.9-0.9,1.6-1.4c0.7-0.4,1.5-0.7,2.3-0.7c0.9,0,1.6,0.2,2.1,0.6
			c0.5,0.4,0.9,1,1.1,1.6c0.4-0.6,0.9-1.1,1.7-1.6c0.8-0.5,1.5-0.7,2.4-0.7c1.1,0,1.9,0.3,2.5,0.9c0.6,0.6,0.9,1.5,0.9,2.7v8.7h-1.9
			v-8.2c0-1.7-0.7-2.5-2.2-2.5c-0.6,0-1.2,0.2-1.8,0.5c-0.6,0.4-1.1,0.8-1.4,1.3v8.8h-1.9v-8.2c0-1.7-0.7-2.5-2.2-2.5
			c-0.6,0-1.2,0.2-1.8,0.6c-0.6,0.4-1.1,0.8-1.4,1.3v8.8H421.2z"/>
		<path fill="#231F20" d="M440.7,115.1c0-1.2,0.3-2.2,0.8-3.2c0.5-1,1.2-1.7,2.1-2.3c0.9-0.6,1.9-0.8,3.1-0.8c1.2,0,2.2,0.3,3.1,0.9
			c0.9,0.6,1.6,1.4,2,2.3c0.5,1,0.7,2.1,0.7,3.3v0.5h-9.8c0.1,1.2,0.5,2.2,1.3,3s1.8,1.2,3.1,1.2c0.7,0,1.4-0.1,2-0.4
			c0.7-0.3,1.2-0.7,1.7-1.1l0.9,1.2c-1.3,1.3-2.9,1.9-4.8,1.9c-1.8,0-3.3-0.6-4.4-1.8S440.7,117,440.7,115.1z M442.6,114.3h7.9
			c0-0.5-0.1-0.9-0.3-1.4s-0.4-0.9-0.7-1.3c-0.3-0.4-0.7-0.7-1.2-1c-0.5-0.2-1.1-0.4-1.8-0.4c-0.6,0-1.2,0.1-1.7,0.4
			c-0.5,0.2-0.9,0.6-1.2,1c-0.3,0.4-0.6,0.8-0.7,1.3C442.7,113.4,442.6,113.8,442.6,114.3z"/>
		<path fill="#231F20" d="M453.8,110.7v-1.6h2v-3.3h1.9v3.3h2.5v1.6h-2.5v7.5c0,0.5,0.1,0.9,0.3,1.1s0.5,0.4,0.9,0.4
			c0.6,0,1-0.2,1.3-0.5l0.5,1.4c-0.5,0.5-1.3,0.8-2.2,0.8c-0.9,0-1.5-0.2-2-0.7c-0.5-0.5-0.7-1.2-0.7-2.1v-7.9H453.8z"/>
		<path fill="#231F20" d="M462.8,121.1v-12.1h1.9v1.9c0.5-0.7,1.1-1.2,1.8-1.6s1.4-0.6,2.2-0.6v1.9c-0.3,0-0.5,0-0.7,0
			c-0.6,0-1.2,0.2-1.9,0.6s-1.2,0.8-1.4,1.3v8.6H462.8z"/>
		<path fill="#231F20" d="M470.3,115.1c0-1.2,0.3-2.2,0.8-3.2c0.5-1,1.2-1.7,2.1-2.3c0.9-0.6,1.9-0.8,3.1-0.8c1.2,0,2.2,0.3,3.1,0.9
			c0.9,0.6,1.6,1.4,2,2.3c0.5,1,0.7,2.1,0.7,3.3v0.5h-9.8c0.1,1.2,0.5,2.2,1.3,3s1.8,1.2,3.1,1.2c0.7,0,1.4-0.1,2-0.4
			c0.7-0.3,1.2-0.7,1.7-1.1l0.9,1.2c-1.3,1.3-2.9,1.9-4.8,1.9c-1.8,0-3.3-0.6-4.4-1.8S470.3,117,470.3,115.1z M472.3,114.3h7.9
			c0-0.5-0.1-0.9-0.3-1.4s-0.4-0.9-0.7-1.3c-0.3-0.4-0.7-0.7-1.2-1c-0.5-0.2-1.1-0.4-1.8-0.4c-0.6,0-1.2,0.1-1.7,0.4
			c-0.5,0.2-0.9,0.6-1.2,1c-0.3,0.4-0.6,0.8-0.7,1.3C472.4,113.4,472.3,113.8,472.3,114.3z"/>
		<path fill="#231F20" d="M484.1,119.5l0.9-1.3c0.4,0.5,1,0.9,1.7,1.2s1.5,0.5,2.3,0.5c0.9,0,1.6-0.2,2.1-0.6
			c0.5-0.4,0.8-0.9,0.8-1.5c0-0.4-0.1-0.7-0.4-1c-0.3-0.3-0.6-0.5-1.1-0.6c-0.4-0.1-0.9-0.3-1.4-0.4s-1-0.3-1.6-0.5
			c-0.5-0.2-1-0.3-1.5-0.6c-0.4-0.2-0.8-0.6-1.1-1c-0.3-0.4-0.4-0.9-0.4-1.5c0-1,0.4-1.8,1.2-2.5c0.8-0.7,1.9-1,3.3-1
			c1.8,0,3.3,0.6,4.5,1.8l-0.9,1.3c-0.4-0.5-0.9-0.8-1.5-1.1c-0.6-0.3-1.3-0.4-2.1-0.4c-0.8,0-1.5,0.2-1.9,0.6s-0.7,0.8-0.7,1.4
			c0,0.4,0.1,0.7,0.4,0.9c0.3,0.2,0.6,0.4,1.1,0.6s0.9,0.3,1.4,0.4c0.5,0.1,1.1,0.3,1.6,0.4c0.5,0.2,1,0.3,1.5,0.6
			c0.4,0.2,0.8,0.6,1.1,1c0.3,0.4,0.4,1,0.4,1.6c0,1.1-0.4,1.9-1.2,2.6c-0.8,0.7-2,1-3.5,1C486.9,121.4,485.3,120.8,484.1,119.5z"/>
	</g>
</g>
</svg>
